# Blender 4.5.3 LTS
# www.blender.org
mtllib Lab Copy Machine Broken.mtl
o lab_copy_machine_broken
v -0.016010 1.915986 0.094508
v -0.015788 1.857706 0.109111
v -0.016096 1.905778 0.078486
v -0.456000 1.432824 0.302479
v -0.456000 1.379176 0.302479
v -0.456000 1.379176 0.476521
v -0.256500 1.379176 0.476521
v -0.256500 1.379176 0.302479
v -0.256500 1.432824 0.302479
v 0.340887 1.191988 0.578359
v 0.342074 1.191957 0.597313
v 0.341481 1.191973 0.587831
v 0.933969 1.918006 0.088098
v 0.934191 1.859726 0.102710
v 0.933881 1.907798 0.072085
v 0.782191 1.859403 0.103730
v 0.781969 1.917682 0.089127
v 0.781885 1.907475 0.073105
v -0.167783 1.857383 0.110141
v -0.168006 1.915663 0.095529
v -0.168092 1.905455 0.079516
v 0.118940 1.197000 0.541500
v 0.118940 1.140000 0.527065
v 0.118940 1.121000 0.541500
v 0.118940 1.216000 0.527065
v 0.118940 1.197000 0.551000
v 0.118940 1.216000 0.551000
v 1.385149 0.768163 -0.323000
v 1.453315 0.733242 -0.323000
v 1.456566 0.742169 -0.323000
v 1.381897 0.759236 -0.323000
v 0.950084 0.683881 -0.323000
v 0.946836 0.674953 -0.323000
v 0.339820 1.211011 0.563988
v 0.341481 1.191973 0.587831
v 0.341313 1.210972 0.587877
v 0.340887 1.191988 0.578359
v 0.340479 1.135014 0.563821
v 0.341545 1.115991 0.578192
v -0.206006 1.915582 0.095789
v -0.210232 1.627410 -0.621731
v -0.206864 2.025555 0.003201
v -0.209545 1.497019 -0.561196
v -0.205869 1.847094 0.094379
v -0.205783 1.857302 0.110400
v -0.209107 1.464260 -0.506534
v -0.209151 1.459154 -0.514549
v -0.205713 1.823056 0.109677
v -0.208954 1.440223 -0.491217
v 0.991187 1.859847 0.102320
v 0.990964 1.918127 0.087717
v 0.987819 1.461699 -0.522620
v 0.987425 1.499564 -0.569267
v 0.971106 2.028060 -0.004741
v 0.967738 1.629915 -0.629672
v -0.167869 1.917862 0.116672
v -0.168041 1.897444 0.084619
v -0.167920 1.925873 0.111560
v -0.168092 1.905455 0.079516
v 0.782057 1.927892 0.105159
v 0.781885 1.907475 0.073105
v 0.934052 1.928216 0.104129
v 0.933881 1.907798 0.072085
v 0.342074 1.191957 0.597313
v 0.331994 1.191889 0.588434
v 0.341740 1.229956 0.597405
v 0.331582 1.239387 0.588536
v -0.016096 1.905778 0.078486
v -0.016045 1.897767 0.083598
v -0.015922 1.926196 0.110540
v -0.015871 1.918185 0.115642
v 0.991187 1.859847 0.102320
v 0.934191 1.859726 0.102710
v 0.990964 1.918127 0.087717
v 0.933969 1.918006 0.088098
v 0.971106 2.028060 -0.004741
v 0.781969 1.917682 0.089127
v -0.016010 1.915986 0.094508
v -0.206864 2.025555 0.003201
v -0.015788 1.857706 0.109111
v 0.782191 1.859403 0.103730
v -0.168006 1.915663 0.095529
v -0.206006 1.915582 0.095789
v -0.167783 1.857383 0.110141
v -0.205783 1.857302 0.110400
v 0.426396 1.240224 0.582617
v 0.331582 1.239387 0.588536
v 0.425802 1.240239 0.573126
v 0.330988 1.239402 0.579055
v 0.934103 1.920205 0.109241
v 0.934052 1.928216 0.104129
v 0.933932 1.899787 0.077188
v 0.933881 1.907798 0.072085
v 0.341481 1.191973 0.587831
v 0.342074 1.191957 0.597313
v 0.417327 1.192642 0.583090
v 0.417921 1.192627 0.592590
v 0.426804 1.192726 0.582506
v 0.426211 1.192741 0.573024
v 0.416734 1.192657 0.573618
v 0.342074 1.191957 0.597313
v 0.340887 1.191988 0.578359
v 0.331994 1.191889 0.588434
v 0.331401 1.191904 0.578953
v 0.781885 1.907475 0.073105
v 0.782057 1.927892 0.105159
v 0.781936 1.899464 0.078217
v 0.782108 1.919882 0.110261
v 0.194560 1.197000 0.560500
v 0.194560 1.235000 0.560500
v 0.204060 1.197000 0.551000
v 0.204060 1.244500 0.551000
v 0.933932 1.899787 0.077188
v 0.781936 1.899464 0.078217
v 0.934103 1.920205 0.109241
v 0.782108 1.919882 0.110261
v 0.279461 0.393499 0.542827
v 0.275556 1.115408 0.582320
v 0.281832 0.393438 0.580752
v 0.271780 1.276963 0.544738
v 0.274892 1.191406 0.582478
v 0.274150 1.276902 0.582673
v 0.109440 1.244500 0.551000
v 0.204060 1.244500 0.551000
v 0.118560 1.235000 0.560500
v 0.194560 1.235000 0.560500
v -0.167783 1.857383 0.110141
v -0.205869 1.847094 0.094379
v -0.205783 1.857302 0.110400
v -0.015788 1.857706 0.109111
v 0.782191 1.859403 0.103730
v 0.972103 1.849599 0.086428
v 0.934191 1.859726 0.102710
v 0.991187 1.859847 0.102320
v 0.987819 1.461699 -0.522620
v 0.968865 1.466764 -0.514475
v -0.209151 1.459154 -0.514549
v -0.209107 1.464260 -0.506534
v 0.934052 1.928216 0.104129
v 0.934103 1.920205 0.109241
v 0.782057 1.927892 0.105159
v 0.782108 1.919882 0.110261
v -0.167869 1.917862 0.116672
v -0.015871 1.918185 0.115642
v -0.168041 1.897444 0.084619
v -0.016045 1.897767 0.083598
v 0.339820 1.211011 0.563988
v 0.341313 1.210972 0.587877
v 0.415667 1.211680 0.559257
v 0.417161 1.211642 0.583137
v 0.194560 1.140000 0.527065
v 0.194560 1.197000 0.541500
v 0.194560 1.121000 0.541500
v 0.194560 1.216000 0.527065
v 0.194560 1.197000 0.551000
v 0.194560 1.216000 0.551000
v 0.331582 1.239387 0.588536
v 0.426396 1.240224 0.582617
v 0.341740 1.229956 0.597405
v 0.417592 1.230625 0.592664
v -0.172111 1.655920 -0.595049
v -0.169089 2.013231 -0.034205
v -0.172060 1.647909 -0.589937
v -0.169038 2.005217 -0.029103
v -0.015922 1.926196 0.110540
v -0.167920 1.925873 0.111560
v -0.016096 1.905778 0.078486
v -0.168092 1.905455 0.079516
v 0.929863 1.658262 -0.602480
v 0.929914 1.650252 -0.597368
v 0.932883 2.015575 -0.041637
v 0.932934 2.007561 -0.036534
v 0.426396 1.240224 0.582617
v 0.425802 1.240239 0.573126
v 0.426804 1.192726 0.582506
v 0.426211 1.192741 0.573024
v -0.167869 1.917862 0.116672
v -0.167920 1.925873 0.111560
v -0.015871 1.918185 0.115642
v -0.015922 1.926196 0.110540
v 0.415667 1.211680 0.559257
v 0.416325 1.135684 0.559081
v 0.339820 1.211011 0.563988
v 0.340479 1.135014 0.563821
v 0.341545 1.115991 0.578192
v 0.417392 1.116661 0.573451
v 1.187500 0.427500 0.161500
v 1.216000 0.408500 0.161500
v 1.187500 0.408500 0.161500
v 1.178000 0.446500 0.161500
v 1.216000 0.446500 0.161500
v 1.026000 0.427500 0.161500
v 1.178000 0.465500 0.161500
v 1.026000 0.522500 0.161500
v 1.216000 0.446500 -0.351500
v 1.216000 0.427500 -0.342000
v 1.216000 0.446500 -0.342000
v 1.216000 0.408500 -0.351500
v 1.216000 0.427500 0.152000
v 1.216000 0.408500 0.161500
v 1.216000 0.446500 0.161500
v 1.216000 0.446500 0.152000
v 0.416325 1.135684 0.559081
v 0.416734 1.192657 0.573618
v 0.417392 1.116661 0.573451
v 0.415667 1.211680 0.559257
v 0.417327 1.192642 0.583090
v 0.417161 1.211642 0.583137
v 0.341545 1.115991 0.578192
v 0.331401 1.191904 0.578953
v 0.340887 1.191988 0.578359
v 0.274892 1.191406 0.582478
v 0.275556 1.115408 0.582320
v 0.330988 1.239402 0.579055
v 0.274150 1.276902 0.582673
v 0.425802 1.240239 0.573126
v 0.904833 1.282471 0.543244
v 0.426211 1.192741 0.573024
v 0.905580 1.196974 0.543068
v 0.906239 1.120977 0.542901
v 0.417392 1.116661 0.573451
v 0.416734 1.192657 0.573618
v 0.261060 1.282500 0.503500
v 0.261060 1.197000 0.541500
v 0.261060 1.282500 0.541500
v 0.261060 1.121000 0.541500
v 0.261060 0.399000 0.503500
v 0.261060 0.399000 0.541500
v 1.187500 0.408500 0.190000
v 1.026000 0.408500 -0.380000
v 1.026000 0.408500 0.190000
v 1.187500 0.408500 0.161500
v 1.216000 0.408500 0.161500
v 1.187500 0.408500 -0.351500
v 1.187500 0.408500 -0.380000
v 1.216000 0.408500 -0.351500
v -0.380000 1.130500 0.503500
v 0.912000 1.130500 0.503500
v 0.912000 0.389500 0.503500
v -0.380000 0.389500 0.503500
v 0.932934 2.007561 -0.036534
v -0.169089 2.013231 -0.034205
v 0.932883 2.015575 -0.041637
v -0.169038 2.005217 -0.029103
v -0.380000 1.140000 0.503500
v 0.912000 1.130500 0.503500
v -0.380000 1.130500 0.503500
v 0.912000 1.140000 0.503500
v 0.929914 1.650252 -0.597368
v 0.929863 1.658262 -0.602480
v -0.172111 1.655920 -0.595049
v -0.172060 1.647909 -0.589937
v 0.275556 1.115408 0.582320
v 0.906239 1.120977 0.542901
v 0.281832 0.393438 0.580752
v 0.912519 0.399006 0.541342
v 0.969000 0.152000 0.532000
v -0.969000 0.152000 0.522500
v 0.969000 0.152000 0.522500
v -0.969000 0.152000 0.532000
v 1.297033 1.178074 -0.323000
v 0.948803 0.911844 -0.323000
v 0.950042 0.902425 -0.323000
v 1.295794 1.187493 -0.323000
v 1.372383 1.187994 -0.323000
v 1.371145 1.197413 -0.323000
v -0.969000 0.323449 0.532000
v 0.969000 0.323449 0.522500
v -0.969000 0.323449 0.522500
v 0.969000 0.323449 0.532000
v -1.026000 0.152000 -0.437000
v -1.016500 1.130500 -0.437000
v -1.016500 0.152000 -0.437000
v -1.026000 1.130500 -0.437000
v 0.906239 1.120977 0.542901
v 0.910149 0.399068 0.503407
v 0.912519 0.399006 0.541342
v 0.902463 1.282532 0.505318
v 0.905580 1.196974 0.543068
v 0.904833 1.282471 0.543244
v -1.026000 1.130500 -0.133000
v -1.016500 0.152000 -0.133000
v -1.016500 1.130500 -0.133000
v -1.026000 0.152000 -0.133000
v -1.016500 1.130500 0.522500
v -1.016500 1.140000 -0.522500
v -1.016500 1.140000 0.522500
v -1.016500 1.130500 -0.522500
v 1.453315 0.733242 -0.323000
v 1.453315 0.733242 0.133000
v 1.456566 0.742169 -0.323000
v 1.456566 0.742169 0.133000
v 0.341313 1.210972 0.587877
v 0.341481 1.191973 0.587831
v 0.417161 1.211642 0.583137
v 0.417327 1.192642 0.583090
v 1.216000 0.446500 0.152000
v 1.216000 0.446500 0.161500
v 1.178000 0.446500 0.152000
v 1.178000 0.446500 0.161500
v -1.016500 1.130500 -0.522500
v 1.016500 1.140000 -0.522500
v -1.016500 1.140000 -0.522500
v 1.016500 1.130500 -0.522500
v 1.026000 0.427500 -0.380000
v 1.187500 0.427500 -0.380000
v 1.026000 0.427500 -0.351500
v 1.187500 0.427500 -0.351500
v -0.342000 1.691000 0.152000
v -0.494000 1.691000 0.152000
v -0.342000 1.672000 0.152000
v -0.494000 1.672000 0.152000
v -0.218500 1.472500 -0.503500
v -0.969000 1.472500 -0.503500
v -0.218500 1.444000 -0.503500
v -0.969000 1.444000 -0.503500
v 0.912000 1.292000 0.532000
v 0.912000 1.292000 0.503500
v -0.380000 1.292000 0.532000
v -0.380000 1.292000 0.503500
v -0.969000 1.140000 0.209000
v -0.969000 1.444000 0.209000
v -0.494000 1.140000 0.209000
v -0.494000 1.444000 0.209000
v 0.950000 1.140000 0.152000
v 0.950000 1.292000 0.152000
v 0.950000 1.140000 -0.342000
v 0.950000 1.292000 -0.342000
v 1.026000 0.408500 -0.342000
v 0.950000 0.408500 -0.342000
v 1.026000 1.130500 -0.342000
v 0.950000 1.130500 -0.342000
v 0.912000 0.389500 0.532000
v 0.912000 0.389500 0.503500
v 0.912000 1.130500 0.532000
v 0.912000 1.130500 0.503500
v -1.016500 1.130500 -0.133000
v -1.016500 0.152000 -0.133000
v -1.016500 1.130500 -0.437000
v -1.016500 0.152000 -0.437000
v 1.016500 1.130500 -0.351500
v 0.950000 1.130500 -0.351500
v 1.016500 1.140000 -0.351500
v 0.950000 1.140000 -0.351500
v -1.016500 1.130500 0.522500
v -1.016500 1.140000 0.522500
v -0.380000 1.130500 0.522500
v -0.380000 1.140000 0.522500
v 0.274150 1.276902 0.582673
v 0.271780 1.276963 0.544738
v 0.904833 1.282471 0.543244
v 0.902463 1.282532 0.505318
v 0.204060 1.197000 0.551000
v 0.204060 1.244500 0.551000
v 0.204060 1.197000 0.541500
v 0.204060 1.244500 0.541500
v 0.950000 0.114000 0.456000
v 0.950000 -0.000000 0.456000
v -0.950000 0.114000 0.456000
v -0.950000 -0.000000 0.456000
v 1.187500 0.408500 0.161500
v 1.187500 0.408500 0.190000
v 1.187500 0.427500 0.161500
v 1.187500 0.427500 0.190000
v 0.934191 1.859726 0.102710
v 0.782191 1.859403 0.103730
v 0.933881 1.907798 0.072085
v 0.781885 1.907475 0.073105
v -0.016096 1.905778 0.078486
v -0.015788 1.857706 0.109111
v -0.168092 1.905455 0.079516
v -0.167783 1.857383 0.110141
v -1.026000 1.368000 -0.437000
v -1.016500 1.368000 -0.437000
v -1.026000 1.140000 -0.437000
v -1.016500 1.140000 -0.437000
v 1.026000 1.292000 -0.342000
v 0.950000 1.292000 -0.342000
v 1.026000 1.292000 0.152000
v 0.950000 1.292000 0.152000
v -0.380000 1.140000 0.503500
v -0.380000 1.292000 0.503500
v 0.912000 1.140000 0.503500
v 0.912000 1.292000 0.503500
v -0.969000 0.323449 0.532000
v -0.969000 0.323449 0.522500
v -0.969000 0.152000 0.532000
v -0.969000 0.152000 0.522500
v -1.026000 0.152000 -0.437000
v -1.016500 0.152000 -0.437000
v -1.026000 0.152000 -0.133000
v -1.016500 0.152000 -0.133000
v -0.893000 1.140000 0.560500
v -0.893000 1.140000 0.541500
v -0.570000 1.140000 0.560500
v -0.570000 1.140000 0.541500
v -0.570000 1.140000 0.560500
v -0.570000 1.140000 0.541500
v -0.570000 1.387000 0.560500
v -0.570000 1.387000 0.541500
v 1.372383 1.187994 -0.323000
v 1.372383 1.187994 0.133000
v 1.371145 1.197413 -0.323000
v 1.371145 1.197413 0.133000
v 0.910149 0.399068 0.503407
v 0.279461 0.393499 0.542827
v 0.912519 0.399006 0.541342
v 0.281832 0.393438 0.580752
v 0.109440 1.244500 0.541500
v 0.109440 1.244500 0.551000
v 0.109440 1.197000 0.541500
v 0.109440 1.197000 0.551000
v -0.950000 0.114000 -0.456000
v -0.950000 0.000000 -0.456000
v 0.950000 0.114000 -0.456000
v 0.950000 0.000000 -0.456000
v -0.208954 1.440223 -0.491217
v -0.205713 1.823056 0.109677
v 0.969019 1.442728 -0.499158
v 0.972256 1.825560 0.101735
v 1.406000 1.358500 -0.323000
v 1.406000 1.358500 0.133000
v 1.406000 1.368000 -0.323000
v 1.406000 1.368000 0.133000
v 1.178000 0.446500 0.152000
v 1.178000 0.427500 0.152000
v 1.216000 0.446500 0.152000
v 1.216000 0.427500 0.152000
v -0.342000 1.615000 0.152000
v -0.342000 1.615000 -0.342000
v -0.342000 1.672000 0.152000
v -0.342000 1.672000 -0.342000
v 0.972103 1.849599 0.086428
v 0.972256 1.825560 0.101735
v -0.205869 1.847094 0.094379
v -0.205713 1.823056 0.109677
v -1.026000 1.140000 -0.133000
v -1.016500 1.140000 -0.133000
v -1.026000 1.368000 -0.133000
v -1.016500 1.368000 -0.133000
v 0.969000 0.152000 0.532000
v 0.969000 0.152000 0.522500
v 0.969000 0.323449 0.532000
v 0.969000 0.323449 0.522500
v -0.380000 0.389500 0.532000
v -0.380000 0.389500 0.503500
v 0.912000 0.389500 0.532000
v 0.912000 0.389500 0.503500
v -1.026000 1.130500 -0.532000
v -1.026000 0.114000 -0.532000
v 1.026000 1.130500 -0.532000
v 1.026000 0.114000 -0.532000
v 1.016500 1.140000 0.522500
v 1.016500 1.130500 0.522500
v 0.912000 1.140000 0.522500
v 0.912000 1.130500 0.522500
v -0.893000 1.387000 0.560500
v -0.893000 1.387000 0.541500
v -0.893000 1.140000 0.560500
v -0.893000 1.140000 0.541500
v 0.948803 0.911844 0.133000
v 1.297033 1.178074 0.133000
v 0.950042 0.902425 0.133000
v 1.295794 1.187493 0.133000
v 1.372383 1.187994 0.133000
v 1.371145 1.197413 0.133000
v 0.194560 1.197000 0.560500
v 0.118560 1.197000 0.560500
v 0.194560 1.235000 0.560500
v 0.118560 1.235000 0.560500
v 0.118940 1.216000 0.551000
v 0.194560 1.216000 0.551000
v 0.118940 1.216000 0.527065
v 0.194560 1.216000 0.527065
v -0.370500 1.197000 0.541500
v -0.370500 1.282500 0.503500
v -0.370500 1.282500 0.541500
v -0.370500 1.121000 0.541500
v -0.370500 0.399000 0.503500
v -0.370500 0.399000 0.541500
v 0.950084 0.683881 0.133000
v 1.381897 0.759236 0.133000
v 0.946836 0.674953 0.133000
v 1.385149 0.768163 0.133000
v 1.453315 0.733242 0.133000
v 1.456566 0.742169 0.133000
v 1.016500 1.130500 0.522500
v 1.016500 1.140000 0.522500
v 1.016500 1.130500 0.161500
v 1.016500 1.140000 0.161500
v 1.026000 0.114000 -0.532000
v -1.026000 0.114000 -0.532000
v 1.026000 0.114000 0.532000
v -1.026000 0.114000 0.532000
v -0.969000 0.323449 0.522500
v 0.969000 0.323449 0.522500
v -0.969000 0.152000 0.522500
v 0.969000 0.152000 0.522500
v -1.026000 1.140000 0.532000
v -1.026000 1.444000 0.532000
v -0.969000 1.140000 0.532000
v -0.969000 1.444000 0.532000
v -1.026000 1.368000 -0.133000
v -1.016500 1.368000 -0.133000
v -1.026000 1.368000 -0.437000
v -1.016500 1.368000 -0.437000
v -0.208954 1.440223 -0.491217
v 0.969019 1.442728 -0.499158
v -0.209107 1.464260 -0.506534
v 0.968865 1.466764 -0.514475
v -0.342000 1.615000 0.152000
v -0.342000 1.672000 0.152000
v -0.760000 1.615000 0.152000
v -0.912000 1.672000 0.152000
v 1.178000 0.446500 -0.351500
v 1.216000 0.446500 -0.351500
v 1.178000 0.446500 -0.342000
v 1.216000 0.446500 -0.342000
v -0.342000 1.672000 -0.342000
v -0.494000 1.672000 -0.342000
v -0.342000 1.691000 -0.342000
v -0.494000 1.691000 -0.342000
v -0.494000 1.691000 0.152000
v -0.570000 1.700500 0.142500
v -0.494000 1.710000 0.152000
v -0.570000 1.710000 0.142500
v 1.026000 0.408500 0.190000
v 1.026000 0.427500 0.190000
v 1.187500 0.408500 0.190000
v 1.187500 0.427500 0.190000
v -0.370500 0.399000 0.503500
v -0.370500 0.399000 0.541500
v 0.261060 0.399000 0.503500
v 0.261060 0.399000 0.541500
v 0.417921 1.192627 0.592590
v 0.417592 1.230625 0.592664
v 0.426804 1.192726 0.582506
v 0.426396 1.240224 0.582617
v -0.969000 1.463000 0.560500
v -0.969000 1.463000 0.209000
v -0.494000 1.463000 0.560500
v -0.494000 1.463000 0.209000
v 1.016500 1.140000 -0.522500
v 1.016500 1.130500 -0.522500
v 1.016500 1.140000 -0.351500
v 1.016500 1.130500 -0.351500
v 1.016500 1.140000 0.161500
v 0.950000 1.140000 0.161500
v 1.016500 1.130500 0.161500
v 0.950000 1.130500 0.161500
v 1.026000 1.130500 0.152000
v 0.950000 1.130500 0.152000
v 1.026000 0.408500 0.152000
v 0.950000 0.408500 0.152000
v -0.323000 1.672000 -0.361000
v -0.323000 1.719500 -0.361000
v -0.494000 1.672000 -0.361000
v -0.494000 1.719500 -0.361000
v -0.570000 1.710000 -0.332500
v -0.570000 1.710000 0.142500
v -0.570000 1.700500 -0.332500
v -0.570000 1.700500 0.142500
v 1.187500 0.427500 0.161500
v 1.187500 0.427500 0.190000
v 1.026000 0.427500 0.161500
v 1.026000 0.427500 0.190000
v 0.929863 1.658262 -0.602480
v 0.932883 2.015575 -0.041637
v -0.172111 1.655920 -0.595049
v -0.169089 2.013231 -0.034205
v -0.494000 1.672000 0.171000
v -0.494000 1.719500 0.171000
v -0.323000 1.672000 0.171000
v -0.323000 1.719500 0.171000
v -0.342000 1.710000 -0.342000
v -0.342000 1.719500 -0.342000
v -0.342000 1.710000 0.152000
v -0.342000 1.719500 0.152000
v 1.187500 0.427500 -0.380000
v 1.187500 0.408500 -0.380000
v 1.187500 0.427500 -0.351500
v 1.187500 0.408500 -0.351500
v 0.118940 1.216000 0.551000
v 0.118940 1.197000 0.551000
v 0.194560 1.216000 0.551000
v 0.194560 1.197000 0.551000
v -0.494000 1.691000 -0.342000
v -0.494000 1.710000 -0.342000
v -0.570000 1.700500 -0.332500
v -0.570000 1.710000 -0.332500
v -0.323000 1.672000 0.171000
v -0.323000 1.719500 0.171000
v -0.323000 1.672000 -0.361000
v -0.323000 1.719500 -0.361000
v -0.342000 1.615000 -0.342000
v -0.760000 1.615000 -0.342000
v -0.342000 1.672000 -0.342000
v -0.912000 1.672000 -0.342000
v 0.968865 1.466764 -0.514475
v 0.969019 1.442728 -0.499158
v 0.972103 1.849599 0.086428
v 0.972256 1.825560 0.101735
v -1.016500 1.140000 -0.437000
v -1.016500 1.368000 -0.437000
v -1.016500 1.140000 -0.133000
v -1.016500 1.368000 -0.133000
v -1.026000 1.444000 -0.532000
v -1.026000 1.140000 -0.532000
v 1.026000 1.444000 -0.532000
v 1.026000 1.140000 -0.532000
v -0.380000 1.130500 0.532000
v -0.380000 1.130500 0.503500
v -0.380000 0.389500 0.532000
v -0.380000 0.389500 0.503500
v 0.912000 1.130500 0.532000
v 1.026000 1.130500 0.152000
v 1.026000 1.130500 0.532000
v 0.950000 1.130500 0.152000
v 0.912000 1.130500 0.503500
v -1.016500 1.130500 -0.133000
v -1.026000 1.130500 -0.133000
v -0.380000 1.130500 0.503500
v -0.380000 1.130500 0.532000
v -1.026000 1.130500 0.532000
v -1.016500 1.130500 -0.437000
v -1.026000 1.130500 -0.532000
v -1.026000 1.130500 -0.437000
v 0.950000 1.130500 -0.342000
v 1.026000 1.130500 -0.532000
v 1.026000 1.130500 -0.342000
v 0.950000 0.114000 -0.456000
v 0.950000 0.000000 -0.456000
v 0.950000 0.114000 0.456000
v 0.950000 -0.000000 0.456000
v 0.261060 1.282500 0.541500
v -0.370500 1.282500 0.541500
v 0.261060 1.282500 0.503500
v -0.370500 1.282500 0.503500
v 0.912000 1.130500 0.522500
v 0.912000 1.130500 0.503500
v 0.912000 1.140000 0.522500
v 0.912000 1.140000 0.503500
v -0.893000 1.140000 0.541500
v -0.893000 1.387000 0.541500
v -0.570000 1.140000 0.541500
v -0.570000 1.387000 0.541500
v -0.570000 1.387000 0.560500
v -0.570000 1.387000 0.541500
v -0.893000 1.387000 0.560500
v -0.893000 1.387000 0.541500
v -0.256500 1.379176 0.302479
v -0.456000 1.379176 0.302479
v -0.256500 1.432824 0.302479
v -0.456000 1.432824 0.302479
v 0.331582 1.239387 0.588536
v 0.331994 1.191889 0.588434
v 0.330988 1.239402 0.579055
v 0.331401 1.191904 0.578953
v 0.118560 1.197000 0.560500
v 0.109440 1.197000 0.551000
v 0.118560 1.235000 0.560500
v 0.109440 1.244500 0.551000
v 0.950000 1.130500 0.161500
v 0.950000 1.140000 0.161500
v 0.950000 1.130500 -0.351500
v 0.950000 1.140000 -0.351500
v 1.026000 0.408500 0.152000
v 0.950000 0.408500 0.152000
v 1.026000 0.408500 -0.342000
v 0.950000 0.408500 -0.342000
v 1.026000 1.292000 0.152000
v 0.950000 1.292000 0.152000
v 1.026000 1.140000 0.152000
v 0.950000 1.140000 0.152000
v -0.380000 1.292000 0.532000
v -0.380000 1.292000 0.503500
v -0.380000 1.140000 0.532000
v -0.380000 1.140000 0.503500
v 0.950000 0.000000 -0.456000
v -0.950000 0.000000 -0.456000
v 0.950000 -0.000000 0.456000
v -0.950000 -0.000000 0.456000
v -0.342000 1.691000 -0.342000
v -0.342000 1.691000 0.152000
v -0.342000 1.672000 -0.342000
v -0.342000 1.672000 0.152000
v -0.342000 1.710000 0.152000
v -0.342000 1.719500 0.152000
v -0.494000 1.710000 0.152000
v -0.494000 1.719500 0.152000
v 1.026000 0.408500 -0.380000
v 1.187500 0.408500 -0.380000
v 1.026000 0.427500 -0.380000
v 1.187500 0.427500 -0.380000
v 1.216000 0.446500 -0.342000
v 1.216000 0.427500 -0.342000
v 1.178000 0.446500 -0.342000
v 1.178000 0.427500 -0.342000
v -0.494000 1.710000 -0.342000
v -0.494000 1.719500 -0.342000
v -0.342000 1.710000 -0.342000
v -0.342000 1.719500 -0.342000
v 0.912000 1.140000 0.532000
v 0.912000 1.140000 0.503500
v 0.912000 1.292000 0.532000
v 0.912000 1.292000 0.503500
v 1.026000 1.140000 -0.342000
v 0.950000 1.140000 -0.342000
v 1.026000 1.292000 -0.342000
v 0.950000 1.292000 -0.342000
v 0.950000 1.130500 -0.342000
v 0.950000 0.408500 -0.342000
v 0.950000 1.130500 0.152000
v 0.950000 0.408500 0.152000
v -0.380000 1.140000 0.522500
v -0.380000 1.140000 0.503500
v -0.380000 1.130500 0.522500
v -0.380000 1.130500 0.503500
v -0.494000 0.361000 0.532000
v -0.969000 0.361000 0.532000
v -0.494000 0.389500 0.560500
v -0.969000 0.389500 0.560500
v -0.456000 1.379176 0.476521
v -0.456000 1.379176 0.302479
v -0.256500 1.379176 0.476521
v -0.256500 1.379176 0.302479
v 0.341740 1.229956 0.597405
v 0.417592 1.230625 0.592664
v 0.342074 1.191957 0.597313
v 0.417921 1.192627 0.592590
v 0.204060 1.244500 0.551000
v 0.109440 1.244500 0.551000
v 0.204060 1.244500 0.541500
v 0.109440 1.244500 0.541500
v -0.950000 0.114000 0.456000
v -0.950000 -0.000000 0.456000
v -0.950000 0.114000 -0.456000
v -0.950000 0.000000 -0.456000
v -0.494000 1.719500 -0.361000
v -0.342000 1.719500 -0.342000
v -0.494000 1.719500 -0.342000
v -0.323000 1.719500 -0.361000
v -0.342000 1.719500 0.152000
v -0.323000 1.719500 0.171000
v -0.494000 1.719500 0.171000
v -0.494000 1.719500 0.152000
v -0.342000 1.615000 0.152000
v -0.760000 1.615000 0.152000
v -0.342000 1.615000 -0.342000
v -0.760000 1.615000 -0.342000
v -0.912000 1.672000 0.152000
v -0.912000 1.672000 -0.342000
v -0.969000 1.672000 -0.513000
v -0.218500 1.672000 -0.513000
v -0.342000 1.672000 -0.342000
v -0.969000 1.672000 0.228000
v -0.342000 1.672000 0.152000
v -0.218500 1.672000 0.228000
v -0.342000 1.672000 0.152000
v -0.342000 1.672000 -0.342000
v -0.218500 1.672000 -0.513000
v -0.218500 1.672000 0.228000
v -0.988000 1.472500 -0.513000
v -0.988000 1.529500 -0.532000
v -0.988000 1.472500 0.228000
v -0.988000 1.529500 0.247000
v -0.969000 1.672000 -0.513000
v -0.969000 1.672000 0.228000
v -0.969000 1.140000 0.513000
v -1.026000 1.140000 0.532000
v -0.969000 1.140000 0.532000
v -0.969000 1.140000 0.209000
v -1.026000 1.140000 -0.133000
v -0.494000 1.140000 0.209000
v 0.912000 1.140000 0.503500
v -1.016500 1.140000 -0.133000
v -0.380000 1.140000 0.503500
v -0.380000 1.140000 0.532000
v -0.494000 1.140000 0.532000
v 0.950000 1.140000 0.152000
v -1.016500 1.140000 -0.437000
v 0.912000 1.140000 0.532000
v 1.026000 1.140000 0.152000
v 1.026000 1.140000 0.532000
v -1.026000 1.140000 -0.532000
v -1.026000 1.140000 -0.437000
v 0.950000 1.140000 -0.342000
v 1.026000 1.140000 -0.532000
v 1.026000 1.140000 -0.342000
v -0.218500 1.672000 0.228000
v -0.218500 1.529500 0.247000
v -0.969000 1.672000 0.228000
v -0.988000 1.529500 0.247000
v -0.218500 1.472500 0.228000
v -0.988000 1.472500 0.228000
v -0.494000 1.140000 0.532000
v -0.380000 1.292000 0.532000
v -0.380000 1.140000 0.532000
v -0.494000 1.368000 0.532000
v 0.912000 1.292000 0.532000
v 1.026000 1.368000 0.532000
v 1.026000 1.140000 0.532000
v 0.912000 1.140000 0.532000
v 1.216000 0.427500 -0.342000
v 1.178000 0.427500 -0.332500
v 1.178000 0.427500 -0.342000
v 1.178000 0.427500 0.142500
v 1.216000 0.427500 0.152000
v 1.178000 0.427500 0.152000
v 0.950000 0.427500 0.142500
v 0.950000 0.427500 -0.332500
v 1.026000 1.130500 -0.532000
v 1.026000 0.408500 -0.342000
v 1.026000 1.130500 -0.342000
v 1.026000 0.114000 -0.532000
v 1.026000 0.408500 0.152000
v 1.026000 0.114000 0.532000
v 1.026000 1.130500 0.532000
v 1.026000 1.130500 0.152000
v 0.194560 1.216000 0.527065
v 0.194560 1.140000 0.527065
v 0.118940 1.216000 0.527065
v 0.118940 1.140000 0.527065
v 0.194560 1.121000 0.541500
v 0.118940 1.121000 0.541500
v -0.370500 0.399000 0.541500
v -0.370500 1.121000 0.541500
v 0.109440 1.197000 0.541500
v 0.118940 1.197000 0.541500
v -0.370500 1.197000 0.541500
v -0.370500 1.282500 0.541500
v 0.109440 1.244500 0.541500
v 0.261060 1.282500 0.541500
v 0.204060 1.244500 0.541500
v 0.261060 1.197000 0.541500
v 0.204060 1.197000 0.541500
v 0.194560 1.197000 0.541500
v 0.261060 1.121000 0.541500
v 0.261060 0.399000 0.541500
v -0.969000 1.463000 0.209000
v -0.969000 1.472500 -0.503500
v -0.969000 1.472500 0.209000
v -0.969000 1.444000 0.209000
v -0.969000 1.444000 -0.503500
v -0.494000 1.710000 -0.342000
v -0.494000 1.719500 -0.361000
v -0.494000 1.719500 -0.342000
v -0.494000 1.691000 -0.342000
v -0.494000 1.672000 -0.361000
v -0.494000 1.672000 -0.342000
v -0.969000 1.472500 0.209000
v -0.494000 1.463000 0.209000
v -0.969000 1.463000 0.209000
v -0.218500 1.472500 0.209000
v -0.494000 1.444000 0.209000
v -0.218500 1.444000 0.209000
v -0.218500 1.472500 -0.513000
v -0.969000 1.472500 -0.503500
v -0.218500 1.472500 -0.503500
v -0.988000 1.472500 -0.513000
v -0.969000 1.472500 0.209000
v -0.988000 1.472500 0.228000
v -0.218500 1.472500 0.228000
v -0.218500 1.472500 0.209000
v -1.026000 1.140000 -0.532000
v -1.026000 1.368000 -0.437000
v -1.026000 1.140000 -0.437000
v -1.026000 1.444000 -0.532000
v -1.026000 1.368000 -0.133000
v -1.026000 1.444000 0.532000
v -1.026000 1.140000 -0.133000
v -1.026000 1.140000 0.532000
v 1.178000 0.427500 -0.332500
v 1.178000 0.446500 -0.342000
v 1.178000 0.427500 -0.342000
v 1.178000 0.465500 -0.332500
v 1.178000 0.446500 -0.351500
v 1.178000 0.465500 -0.351500
v -1.026000 1.444000 0.532000
v -0.969000 1.444000 0.513000
v -0.969000 1.444000 0.532000
v -0.969000 1.444000 0.209000
v -1.026000 1.444000 -0.532000
v -0.494000 1.444000 0.209000
v 1.026000 1.444000 -0.532000
v -0.494000 1.444000 0.266000
v 1.026000 1.444000 0.266000
v -0.456000 1.432824 0.302479
v -0.456000 1.379176 0.476521
v -0.256500 1.432824 0.302479
v -0.494000 1.368000 0.513000
v -0.256500 1.379176 0.476521
v 1.026000 1.368000 0.513000
v -0.494000 1.368000 0.532000
v 1.026000 1.368000 0.532000
v 0.109440 1.197000 0.551000
v 0.118940 1.197000 0.541500
v 0.109440 1.197000 0.541500
v 0.118940 1.197000 0.551000
v 0.118560 1.197000 0.560500
v 0.194560 1.197000 0.560500
v 0.194560 1.197000 0.551000
v 0.204060 1.197000 0.551000
v 0.204060 1.197000 0.541500
v 0.194560 1.197000 0.541500
v 1.178000 0.446500 0.152000
v 1.178000 0.427500 0.142500
v 1.178000 0.427500 0.152000
v 1.178000 0.465500 0.142500
v 1.178000 0.446500 0.161500
v 1.178000 0.465500 0.161500
v 1.026000 1.368000 0.532000
v 1.026000 1.140000 0.152000
v 1.026000 1.140000 0.532000
v 1.026000 1.292000 0.152000
v 1.026000 1.368000 0.513000
v 1.026000 1.444000 0.266000
v 1.026000 1.292000 -0.342000
v 1.026000 1.444000 -0.532000
v 1.026000 1.140000 -0.532000
v 1.026000 1.140000 -0.342000
v -1.026000 0.152000 -0.437000
v -1.026000 1.130500 -0.532000
v -1.026000 1.130500 -0.437000
v -1.026000 0.114000 -0.532000
v -1.026000 0.152000 -0.133000
v -1.026000 0.114000 0.532000
v -1.026000 1.130500 0.532000
v -1.026000 1.130500 -0.133000
v 0.950084 0.683881 0.133000
v 0.950084 0.683881 -0.323000
v 1.385149 0.768163 0.133000
v 1.385149 0.768163 -0.323000
v 1.456566 0.742169 0.133000
v 1.456566 0.742169 -0.323000
v 1.178000 0.465500 0.161500
v 1.026000 0.522500 0.161500
v 1.178000 0.465500 0.142500
v 1.026000 0.522500 0.152000
v 1.026000 0.522500 0.142500
v 0.950000 0.522500 0.142500
v 0.950000 0.522500 0.152000
v 1.026000 0.427500 -0.351500
v 1.178000 0.465500 -0.351500
v 1.026000 0.522500 -0.351500
v 1.178000 0.446500 -0.351500
v 1.187500 0.427500 -0.351500
v 1.216000 0.408500 -0.351500
v 1.216000 0.446500 -0.351500
v 1.187500 0.408500 -0.351500
v -0.969000 1.463000 0.560500
v -0.969000 0.389500 0.560500
v -0.969000 1.463000 0.209000
v -0.969000 0.361000 0.532000
v -0.969000 0.361000 0.209000
v 1.406000 1.358500 0.133000
v 1.406000 1.358500 -0.323000
v 1.330000 1.358500 0.133000
v 1.330000 1.358500 -0.323000
v 0.950000 1.130500 0.133000
v 0.950000 1.130500 -0.323000
v -0.342000 1.710000 0.152000
v -0.494000 1.710000 0.152000
v -0.342000 1.710000 -0.342000
v -0.570000 1.710000 0.142500
v -0.494000 1.710000 -0.342000
v -0.570000 1.710000 -0.332500
v 0.950000 0.522500 -0.332500
v 1.026000 0.522500 -0.332500
v 0.950000 0.427500 -0.332500
v 1.178000 0.465500 -0.332500
v 1.178000 0.427500 -0.332500
v 1.453315 0.733242 0.133000
v 1.453315 0.733242 -0.323000
v 1.381897 0.759236 0.133000
v 1.381897 0.759236 -0.323000
v 0.946836 0.674953 0.133000
v 0.946836 0.674953 -0.323000
v 0.950042 0.902425 -0.323000
v 0.950042 0.902425 0.133000
v 1.297033 1.178074 -0.323000
v 1.297033 1.178074 0.133000
v 1.372383 1.187994 -0.323000
v 1.372383 1.187994 0.133000
v 0.950000 1.140000 0.133000
v 0.950000 1.140000 -0.323000
v 1.330000 1.368000 0.133000
v 1.330000 1.368000 -0.323000
v 1.406000 1.368000 0.133000
v 1.406000 1.368000 -0.323000
v -0.494000 1.463000 0.560500
v -0.494000 1.463000 0.209000
v -0.494000 0.389500 0.560500
v -0.494000 0.361000 0.209000
v -0.494000 0.361000 0.532000
v 1.371145 1.197413 -0.323000
v 1.371145 1.197413 0.133000
v 1.295794 1.187493 -0.323000
v 1.295794 1.187493 0.133000
v 0.948803 0.911844 -0.323000
v 0.948803 0.911844 0.133000
v 0.950000 0.522500 0.142500
v 0.950000 0.427500 0.142500
v 1.026000 0.522500 0.142500
v 1.178000 0.427500 0.142500
v 1.178000 0.465500 0.142500
v -0.494000 1.672000 0.152000
v -0.494000 1.691000 0.152000
v -0.494000 1.672000 0.171000
v -0.494000 1.710000 0.152000
v -0.494000 1.719500 0.171000
v -0.494000 1.719500 0.152000
v -0.494000 1.368000 0.532000
v -0.494000 1.140000 0.532000
v -0.494000 1.368000 0.513000
v -0.494000 1.444000 0.266000
v -0.494000 1.444000 0.209000
v -0.494000 1.140000 0.209000
v -0.570000 1.700500 0.142500
v -0.494000 1.691000 0.152000
v -0.570000 1.700500 -0.332500
v -0.494000 1.691000 -0.342000
v -0.342000 1.691000 -0.342000
v -0.342000 1.691000 0.152000
v 1.330000 1.358500 -0.323000
v 0.950000 1.140000 -0.323000
v 0.950000 1.130500 -0.323000
v 1.330000 1.368000 -0.323000
v 1.406000 1.368000 -0.323000
v 1.406000 1.358500 -0.323000
v -0.218500 1.529500 -0.532000
v -0.218500 1.672000 0.228000
v -0.218500 1.672000 -0.513000
v -0.218500 1.529500 0.247000
v -0.218500 1.472500 -0.503500
v -0.218500 1.472500 -0.513000
v -0.218500 1.472500 0.209000
v -0.218500 1.472500 0.228000
v -0.218500 1.444000 0.209000
v -0.218500 1.444000 -0.503500
v 0.950000 0.522500 -0.332500
v 0.950000 0.522500 -0.342000
v 1.026000 0.522500 -0.332500
v 1.026000 0.522500 -0.342000
v 1.178000 0.465500 -0.351500
v 1.026000 0.522500 -0.351500
v 1.178000 0.465500 -0.332500
v -0.218500 1.472500 -0.513000
v -0.218500 1.529500 -0.532000
v -0.988000 1.472500 -0.513000
v -0.988000 1.529500 -0.532000
v -0.969000 1.672000 -0.513000
v -0.218500 1.672000 -0.513000
v -0.969000 1.444000 0.532000
v -0.969000 1.444000 0.513000
v -0.969000 1.140000 0.532000
v -0.969000 1.140000 0.513000
v -0.969000 1.140000 0.209000
v -0.969000 1.444000 0.209000
v -0.209151 1.459154 -0.514549
v 0.987819 1.461699 -0.522620
v -0.209545 1.497019 -0.561196
v 0.987425 1.499564 -0.569267
v 0.967738 1.629915 -0.629672
v -0.210232 1.627410 -0.621731
v 0.950000 1.140000 0.133000
v 1.330000 1.358500 0.133000
v 0.950000 1.130500 0.133000
v 1.330000 1.368000 0.133000
v 1.406000 1.368000 0.133000
v 1.406000 1.358500 0.133000
v 0.912000 1.130500 0.532000
v 1.026000 1.130500 0.532000
v 1.026000 0.114000 0.532000
v 0.969000 0.323449 0.532000
v 0.912000 0.389500 0.532000
v 0.969000 0.152000 0.532000
v -1.026000 0.114000 0.532000
v -0.969000 0.152000 0.532000
v -0.969000 0.323449 0.532000
v -1.026000 1.130500 0.532000
v -0.380000 0.389500 0.532000
v -0.380000 1.130500 0.532000
v 0.932934 2.007561 -0.036534
v 0.967738 1.629915 -0.629672
v 0.971106 2.028060 -0.004741
v -0.206864 2.025555 0.003201
v 0.929914 1.650252 -0.597368
v -0.169038 2.005217 -0.029103
v -0.172060 1.647909 -0.589937
v -0.210232 1.627410 -0.621731
v -0.570000 1.387000 0.560500
v -0.969000 1.463000 0.560500
v -0.494000 1.463000 0.560500
v -0.494000 0.389500 0.560500
v -0.893000 1.387000 0.560500
v -0.570000 1.140000 0.560500
v -0.969000 0.389500 0.560500
v -0.893000 1.140000 0.560500
vn -1.0000 -0.0039 -0.0039
vn 1.0000 -0.0039 -0.0039
vn 0.6943 -0.7179 -0.0510
vn 0.6943 -0.7179 -0.0509
vn -0.0039 -0.0039 -1.0000
vn 0.9977 0.0040 -0.0670
vn 0.9977 0.0039 -0.0670
vn 0.9987 0.0355 -0.0355
vn 0.9955 0.0748 -0.0590
vn 0.9908 0.1066 -0.0829
vn -0.0117 0.8397 -0.5429
vn -0.6626 -0.0118 0.7489
vn -0.6626 -0.0117 0.7489
vn 0.0039 0.3815 0.9243
vn 0.0039 0.3420 0.9397
vn 0.0039 0.2398 0.9708
vn 0.0039 0.5374 0.8433
vn -0.0039 0.6413 0.7672
vn 0.0039 0.4519 0.8920
vn -0.0039 0.4203 0.9074
vn 0.0039 0.3816 0.9243
vn -0.0039 1.0000 -0.0039
vn -0.0039 -1.0000 -0.0039
vn 0.7071 -0.0040 0.7071
vn 0.7071 -0.0039 0.7071
vn 0.0039 -0.8491 0.5283
vn 0.0039 -0.8491 0.5282
vn -0.9982 -0.0117 0.0587
vn -0.9982 -0.0117 0.0588
vn -0.9982 -0.0118 0.0587
vn -0.0039 0.7071 0.7071
vn 0.0040 0.5374 0.8433
vn 0.0355 0.7067 0.7067
vn 0.0355 0.7067 0.7066
vn 0.0356 0.7066 0.7067
vn 0.0041 0.5374 0.8433
vn 0.0592 -0.0040 0.9982
vn 0.0511 0.3182 0.9467
vn 0.0592 -0.0039 0.9982
vn 0.0513 0.2488 0.9672
vn 0.0593 0.2095 0.9760
vn -0.0039 -0.0039 1.0000
vn 0.0513 0.2487 0.9672
vn 0.0593 0.2094 0.9760
vn 0.0040 0.5373 0.8434
vn -0.0116 -0.5393 -0.8420
vn 0.9977 0.0039 -0.0671
vn 0.9371 -0.3490 -0.0039
vn -0.0665 -0.0039 -0.9978
vn 0.0039 0.3421 0.9396
vn 0.0039 0.3421 0.9397
vn 0.9915 0.1304 -0.0039
vn -0.0116 -0.5394 -0.8420
vn -0.1293 -0.0039 0.9916
vn 0.7528 0.0039 0.6582
vn -0.1284 -0.0039 -0.9917
vn -0.7264 -0.0039 0.6872
vn -0.7265 -0.0039 0.6872
vn -0.0039 -0.7110 0.7032
vn 0.1381 0.9904 -0.0039
vn 0.2323 0.9726 -0.0039
vn 0.0827 0.9966 -0.0039
vn -0.9991 0.0431 -0.0039
vn -0.9966 0.0821 -0.0039
vn -0.9916 0.1293 -0.0039
vn -0.0040 0.1226 0.9925
vn -0.0039 -0.0040 1.0000
vn -0.0039 -0.1764 0.9843
vn -0.0039 -0.3186 0.9479
vn -0.0039 0.1779 0.9840
vn -0.0040 0.1778 0.9841
vn -0.0040 0.1226 0.9924
vn -0.0039 0.9841 0.1778
vn -0.0039 0.9726 0.2323
vn -0.0039 0.9577 0.2877
vn -0.0040 0.9841 0.1778
vn -0.1855 0.9826 -0.0039
vn 0.3515 0.9362 -0.0039
vn 0.3516 0.9362 -0.0040
vn 0.1779 0.9840 -0.0039
vn 0.1778 0.9841 -0.0039
vn 0.1765 -0.9843 -0.0039
vn 0.3490 -0.9371 -0.0039
vn 0.5133 -0.8582 -0.0039
vn -0.1751 -0.9845 -0.0039
vn -0.3464 -0.9381 -0.0039
vn 0.4675 -0.8840 -0.0039
vn 0.6156 -0.7881 -0.0039
vn 0.3021 -0.9533 -0.0039
vn 0.1293 -0.9916 -0.0039
vn -0.3584 0.9336 -0.0039
vn -0.5226 0.8526 -0.0039
vn -0.3115 0.9502 -0.0039
vn -0.1381 0.9904 -0.0040
vn -0.1381 0.9904 -0.0039
vn -0.4769 0.8790 -0.0039
vn -0.6242 0.7812 -0.0039
vn -0.1284 -0.9917 -0.0039
vn -0.0665 -0.9978 -0.0039
vn -0.0039 -0.3162 -0.9487
vn -0.0039 -0.0975 -0.9952
vn -0.0039 -0.0976 -0.9952
vn -0.0039 0.1293 -0.9916
vn -0.0117 -0.6117 -0.7910
vn -0.0039 -0.7774 -0.6290
vn -0.0116 -0.4237 -0.9057
vn -0.0117 -0.4237 -0.9057
vt 0.752441 0.624023
vt 0.752441 0.616943
vt 0.759766 0.624023
vt 0.632324 0.654297
vt 0.632324 0.630127
vt 0.639648 0.630127
vt 0.592285 0.630127
vt 0.599609 0.630127
vt 0.599609 0.654297
vt 0.085205 0.533447
vt 0.085205 0.537109
vt 0.085205 0.529785
vt 0.754394 0.661865
vt 0.754394 0.654541
vt 0.761719 0.661865
vt 0.759766 0.636231
vt 0.752441 0.636231
vt 0.759766 0.628906
vt 0.759766 0.649902
vt 0.752441 0.649902
vt 0.759766 0.642822
vt 0.096619 0.571045
vt 0.100952 0.573975
vt 0.096619 0.583496
vt 0.100952 0.586670
vt 0.093811 0.583496
vt 0.093811 0.586670
vt 0.910156 0.919617
vt 0.910644 0.918518
vt 0.917481 0.924927
vt 0.918457 0.923828
vt 0.973633 0.924927
vt 0.974121 0.923828
vt 0.094788 0.517578
vt 0.094788 0.514648
vt 0.101807 0.517578
vt 0.097595 0.514648
vt 0.101807 0.505371
vt 0.097595 0.502441
vt 0.766113 0.960785
vt 0.766113 0.850464
vt 0.786133 0.963593
vt 0.786133 0.847656
vt 0.793945 0.957947
vt 0.793945 0.960785
vt 0.793945 0.851807
vt 0.793945 0.850464
vt 0.797852 0.957947
vt 0.797852 0.851807
vt 0.554688 0.850464
vt 0.563477 0.963593
vt 0.554688 0.960785
vt 0.563477 0.847656
vt 0.586426 0.960785
vt 0.586426 0.850464
vt 0.730469 0.639160
vt 0.737793 0.646240
vt 0.730469 0.646240
vt 0.737793 0.639160
vt 0.663086 0.639160
vt 0.687012 0.631836
vt 0.687012 0.639160
vt 0.663086 0.631836
vt 0.085205 0.542725
vt 0.083618 0.537109
vt 0.083618 0.544190
vt 0.706543 0.639160
vt 0.699219 0.646240
vt 0.699219 0.639160
vt 0.706543 0.646240
vt 0.583496 0.984604
vt 0.592285 0.994133
vt 0.583496 0.994133
vt 0.592285 0.984604
vt 0.615234 0.984604
vt 0.736816 0.984604
vt 0.736816 0.994133
vt 0.615234 0.994133
vt 0.760254 0.984604
vt 0.766113 0.984604
vt 0.760254 0.994133
vt 0.766113 0.994133
vt 0.099304 0.551514
vt 0.099304 0.544190
vt 0.083618 0.551514
vt 0.655762 0.646240
vt 0.663086 0.646240
vt 0.655762 0.639160
vt 0.097778 0.533447
vt 0.097778 0.537109
vt 0.099304 0.533447
vt 0.099304 0.529785
vt 0.097778 0.529785
vt 0.083618 0.533447
vt 0.083618 0.529785
vt 0.694336 0.646240
vt 0.694336 0.639160
vt 0.687012 0.646240
vt 0.098267 0.611572
vt 0.096802 0.617188
vt 0.096741 0.611572
vt 0.098328 0.618652
vt 0.687012 0.653565
vt 0.663086 0.653565
vt 0.121521 0.516357
vt 0.121521 0.529541
vt 0.115662 0.516357
vt 0.115662 0.652588
vt 0.121521 0.541260
vt 0.121521 0.652588
vt 0.084290 0.617188
vt 0.082764 0.618652
vt 0.595215 0.672607
vt 0.595215 0.669678
vt 0.601074 0.672607
vt 0.623535 0.672607
vt 0.743164 0.672607
vt 0.771484 0.669678
vt 0.766113 0.672607
vt 0.774414 0.672607
vt 0.774414 0.562012
vt 0.771484 0.563477
vt 0.595215 0.562012
vt 0.595215 0.563477
vt 0.730469 0.653565
vt 0.706543 0.653565
vt 0.088135 0.520752
vt 0.094788 0.520752
vt 0.088135 0.517578
vt 0.084106 0.571045
vt 0.084106 0.583496
vt 0.079773 0.573975
vt 0.079773 0.586670
vt 0.086975 0.583496
vt 0.086975 0.586670
vt 0.097778 0.542725
vt 0.763672 0.692383
vt 0.756348 0.793945
vt 0.756348 0.692383
vt 0.763672 0.793945
vt 0.706543 0.631836
vt 0.730469 0.631836
vt 0.594238 0.793945
vt 0.586914 0.692383
vt 0.594238 0.692383
vt 0.586914 0.793945
vt 0.099304 0.537109
vt 0.106506 0.544190
vt 0.106506 0.537109
vt 0.138061 0.638428
vt 0.149292 0.626709
vt 0.149292 0.638428
vt 0.138061 0.626709
vt 0.138061 0.623779
vt 0.149292 0.623779
vt 0.898438 0.405273
vt 0.898438 0.398438
vt 0.901856 0.405273
vt 0.905762 0.407227
vt 0.905762 0.398438
vt 0.901856 0.443359
vt 0.909180 0.407227
vt 0.919922 0.443359
vt 0.905762 0.323730
vt 0.901856 0.323730
vt 0.905762 0.322754
vt 0.898438 0.322754
vt 0.901856 0.396973
vt 0.905762 0.396973
vt 0.085388 0.502441
vt 0.085388 0.514648
vt 0.081177 0.505371
vt 0.081177 0.517578
vt 0.088135 0.514648
vt 0.138061 0.635498
vt 0.136719 0.635498
vt 0.128296 0.635498
vt 0.128296 0.623779
vt 0.136719 0.642822
vt 0.128296 0.648682
vt 0.150635 0.642822
vt 0.221436 0.648682
vt 0.150635 0.635498
vt 0.221436 0.635498
vt 0.221436 0.623779
vt 0.149292 0.635498
vt 0.221680 0.807739
vt 0.221680 0.794556
vt 0.228882 0.807739
vt 0.221680 0.782837
vt 0.228882 0.671631
vt 0.221680 0.671631
vt 0.865723 0.402832
vt 0.865723 0.318359
vt 0.893555 0.402832
vt 0.893555 0.398438
vt 0.893555 0.322754
vt 0.893555 0.318359
vt 0.965332 0.210938
vt 0.863281 0.210938
vt 0.863281 0.027832
vt 0.965332 0.027832
vt 0.594238 0.801148
vt 0.756348 0.801148
vt 0.993652 0.572998
vt 0.993652 0.769531
vt 0.986328 0.572998
vt 0.986328 0.769531
vt 0.594238 0.685059
vt 0.756348 0.685059
vt 0.128296 0.512451
vt 0.221436 0.512451
vt 0.843750 0.305664
vt 0.843750 0.014160
vt 0.851074 0.305664
vt 0.851074 0.014160
vt 0.819336 0.014160
vt 0.819336 0.305664
vt 0.812500 0.014160
vt 0.812500 0.305664
vt 0.481445 0.833740
vt 0.481445 0.978485
vt 0.474121 0.833740
vt 0.474121 0.978485
vt 0.227417 0.511719
vt 0.234619 0.511719
vt 0.227417 0.623047
vt 0.234619 0.647949
vt 0.227417 0.634766
vt 0.227417 0.647949
vt 0.531250 0.978485
vt 0.531250 0.833740
vt 0.538574 0.978485
vt 0.538574 0.833740
vt 0.986328 0.472656
vt 0.986328 0.319336
vt 0.993652 0.472656
vt 0.993652 0.319336
vt 0.906250 0.924927
vt 0.898926 0.992191
vt 0.898926 0.924927
vt 0.906250 0.992191
vt 0.922363 0.354980
vt 0.915039 0.362305
vt 0.915039 0.354980
vt 0.922363 0.362305
vt 0.986328 0.010742
vt 0.993652 0.010742
vt 0.861816 0.445801
vt 0.869141 0.421387
vt 0.869141 0.445801
vt 0.861816 0.421387
vt 0.970703 0.564941
vt 0.963379 0.589111
vt 0.963379 0.564941
vt 0.970703 0.589111
vt 0.791504 0.509033
vt 0.784180 0.619385
vt 0.784180 0.509033
vt 0.791504 0.619385
vt 0.565918 0.709229
vt 0.558106 0.485352
vt 0.565918 0.485352
vt 0.558106 0.709229
vt 0.029861 0.690918
vt 0.079895 0.766846
vt 0.029861 0.766846
vt 0.079895 0.690918
vt 0.473877 0.709961
vt 0.498047 0.785644
vt 0.473877 0.785644
vt 0.498047 0.709961
vt 0.136719 0.142578
vt 0.121155 0.032227
vt 0.136719 0.032227
vt 0.121155 0.142578
vt 0.863281 0.224609
vt 0.973633 0.217285
vt 0.973633 0.224609
vt 0.863281 0.217285
vt 0.986328 0.958313
vt 0.993652 0.942627
vt 0.993652 0.958313
vt 0.986328 0.942627
vt 0.993652 0.565918
vt 0.986328 0.565918
vt 0.128296 0.655762
vt 0.221436 0.655762
vt 0.105408 0.611328
vt 0.105469 0.618652
vt 0.807129 0.613037
vt 0.822754 0.895752
vt 0.807129 0.895752
vt 0.822754 0.613037
vt 0.934570 0.463379
vt 0.941894 0.456055
vt 0.941894 0.463379
vt 0.934570 0.456055
vt 0.529297 0.799927
vt 0.562500 0.792847
vt 0.562500 0.799927
vt 0.529297 0.792847
vt 0.513672 0.785644
vt 0.513672 0.709961
vt 0.530273 0.485352
vt 0.530273 0.709229
vt 0.843750 0.007324
vt 0.819336 0.007324
vt 0.531250 0.826538
vt 0.481445 0.826538
vt 0.570801 0.398438
vt 0.519043 0.405762
vt 0.519043 0.398438
vt 0.570801 0.405762
vt 0.578125 0.448242
vt 0.578125 0.405762
vt 0.570801 0.448242
vt 0.221680 0.508301
vt 0.128540 0.500977
vt 0.221680 0.500977
vt 0.128540 0.508301
vt 0.079163 0.611572
vt 0.079224 0.618652
vt 0.082703 0.611572
vt 0.974609 0.895752
vt 0.958984 0.613037
vt 0.974609 0.613037
vt 0.958984 0.895752
vt 0.740723 0.866699
vt 0.618164 0.945953
vt 0.618652 0.866699
vt 0.740723 0.945984
vt 0.922363 0.348145
vt 0.915039 0.348145
vt 0.814453 0.498047
vt 0.821777 0.421875
vt 0.821777 0.498047
vt 0.814453 0.421875
vt 0.584473 0.585449
vt 0.763672 0.578125
vt 0.763672 0.585449
vt 0.584473 0.578125
vt 0.562500 0.735596
vt 0.529297 0.742920
vt 0.529297 0.735596
vt 0.562500 0.742920
vt 0.819336 0.312988
vt 0.843750 0.312988
vt 0.980469 0.217285
vt 0.973633 0.020996
vt 0.980469 0.020996
vt 0.170410 0.322754
vt 0.479004 0.169434
vt 0.479004 0.322754
vt 0.170410 0.169434
vt 0.986328 0.776733
vt 0.993652 0.792481
vt 0.986328 0.792481
vt 0.993652 0.776733
vt 0.511719 0.405762
vt 0.519043 0.448242
vt 0.511719 0.448242
vt 0.974121 0.993294
vt 0.918457 0.993294
vt 0.973633 0.992191
vt 0.917481 0.992191
vt 0.910644 0.998584
vt 0.910156 0.997482
vt 0.084229 0.611572
vt 0.093811 0.589844
vt 0.086975 0.589844
vt 0.128540 0.807739
vt 0.121460 0.807739
vt 0.128540 0.794556
vt 0.128540 0.782837
vt 0.121460 0.671631
vt 0.128540 0.671631
vt 0.993652 0.851074
vt 0.986328 0.851074
vt 0.170410 0.007324
vt 0.479004 0.007324
vt 0.029861 0.816894
vt 0.079895 0.824097
vt 0.029861 0.824097
vt 0.079895 0.816894
vt 0.569336 0.792847
vt 0.569336 0.742920
vt 0.763672 0.598389
vt 0.584473 0.591309
vt 0.763672 0.591309
vt 0.584473 0.598389
vt 0.821777 0.559570
vt 0.814453 0.582275
vt 0.915039 0.371094
vt 0.922363 0.377930
vt 0.915039 0.377930
vt 0.922363 0.371094
vt 0.963379 0.489258
vt 0.970703 0.464844
vt 0.970703 0.489258
vt 0.963379 0.464844
vt 0.912598 0.564941
vt 0.924316 0.565918
vt 0.913574 0.570068
vt 0.923828 0.563477
vt 0.934570 0.431641
vt 0.941894 0.431641
vt 0.221680 0.664307
vt 0.128540 0.664307
vt 0.679199 0.234375
vt 0.737793 0.310547
vt 0.679199 0.310547
vt 0.737793 0.234375
vt 0.993652 0.982544
vt 0.986328 0.982544
vt 0.986328 0.866821
vt 0.993652 0.866821
vt 0.029572 0.032227
vt 0.045258 0.142578
vt 0.029572 0.142578
vt 0.045258 0.032227
vt 0.870117 0.476074
vt 0.846191 0.483398
vt 0.846191 0.476074
vt 0.870117 0.483398
vt 0.930664 0.490723
vt 0.923828 0.490723
vt 0.930664 0.563477
vt 0.910644 0.463379
vt 0.910644 0.456055
vt 0.846191 0.574707
vt 0.870117 0.567627
vt 0.870117 0.574707
vt 0.846191 0.567627
vt 0.891113 0.564941
vt 0.883789 0.489258
vt 0.891113 0.489258
vt 0.883789 0.564941
vt 0.869141 0.414062
vt 0.861816 0.414062
vt 0.924316 0.488281
vt 0.912598 0.489258
vt 0.913574 0.484375
vt 0.838867 0.483398
vt 0.838867 0.567627
vt 0.821777 0.359863
vt 0.814453 0.337402
vt 0.584473 0.611328
vt 0.694824 0.604004
vt 0.694824 0.611328
vt 0.584473 0.604004
vt 0.457764 0.809326
vt 0.407715 0.500732
vt 0.457764 0.500732
vt 0.407715 0.809326
vt 0.973633 0.013672
vt 0.863281 0.020996
vt 0.863281 0.013672
vt 0.491455 0.168945
vt 0.491455 0.110840
vt 0.508789 0.168945
vt 0.502930 0.110840
vt 0.508789 0.164551
vt 0.798828 0.067383
vt 0.800293 0.067383
vt 0.703125 0.164551
vt 0.703125 0.168945
vt 0.800293 0.168945
vt 0.798828 0.020996
vt 0.800293 0.006836
vt 0.800293 0.020996
vt 0.502930 0.035645
vt 0.491455 0.006836
vt 0.491455 0.035645
vt 0.822754 0.911438
vt 0.958984 0.911438
vt 0.221680 0.814941
vt 0.128540 0.814941
vt 0.519043 0.456055
vt 0.570801 0.456055
vt 0.599609 0.622803
vt 0.632324 0.622803
vt 0.076477 0.544190
vt 0.076477 0.537109
vt 0.121155 0.016602
vt 0.045258 0.016602
vt 0.473877 0.801392
vt 0.498047 0.801392
vt 0.530273 0.717529
vt 0.558106 0.717529
vt 0.891113 0.589111
vt 0.883789 0.589111
vt 0.893066 0.421387
vt 0.893066 0.414062
vt 0.922363 0.363770
vt 0.915039 0.363770
vt 0.883789 0.464844
vt 0.891113 0.464844
vt 0.558106 0.477051
vt 0.530273 0.477051
vt 0.498047 0.694092
vt 0.473877 0.694092
vt 0.521484 0.234375
vt 0.517090 0.310547
vt 0.517090 0.234375
vt 0.521484 0.310547
vt 0.098389 0.625732
vt 0.082825 0.625732
vt 0.958984 0.597412
vt 0.822754 0.597412
vt 0.870117 0.486328
vt 0.848633 0.486328
vt 0.848633 0.564697
vt 0.870117 0.564697
vt 0.651856 0.437012
vt 0.713379 0.510742
vt 0.651856 0.510742
vt 0.713379 0.437012
vt 0.735352 0.510742
vt 0.735352 0.437012
vt 0.744141 0.411621
vt 0.633789 0.411621
vt 0.744141 0.521973
vt 0.633789 0.521973
vt 0.775879 0.521973
vt 0.766602 0.408691
vt 0.775879 0.411621
vt 0.766602 0.524902
vt 0.245727 0.509277
vt 0.245727 0.500732
vt 0.248535 0.509277
vt 0.294922 0.509277
vt 0.346924 0.500732
vt 0.294922 0.580810
vt 0.250000 0.792114
vt 0.346924 0.502197
vt 0.250000 0.597900
vt 0.245727 0.597900
vt 0.245727 0.580810
vt 0.303467 0.797852
vt 0.393310 0.502197
vt 0.245727 0.792114
vt 0.303467 0.809326
vt 0.245727 0.809326
vt 0.393310 0.500732
vt 0.378662 0.797852
vt 0.378662 0.809326
vt 0.633789 0.544190
vt 0.746582 0.544190
vt 0.633789 0.553223
vt 0.746582 0.553223
vt 0.029861 0.621094
vt 0.054871 0.621094
vt 0.029861 0.640869
vt 0.067383 0.640869
vt 0.054871 0.396973
vt 0.067383 0.376953
vt 0.029861 0.376953
vt 0.029861 0.396973
vt 0.942383 0.323242
vt 0.942383 0.324707
vt 0.936523 0.323242
vt 0.942383 0.395508
vt 0.936523 0.396973
vt 0.942383 0.396973
vt 0.976562 0.395508
vt 0.976562 0.324707
vt 0.141357 0.322754
vt 0.141357 0.213867
vt 0.066162 0.213867
vt 0.008324 0.169434
vt 0.008324 0.322754
vt 0.066162 0.322754
vt 0.200806 0.797485
vt 0.211914 0.785767
vt 0.211914 0.797485
vt 0.200806 0.785767
vt 0.211914 0.782837
vt 0.200806 0.782837
vt 0.199341 0.794556
vt 0.200806 0.794556
vt 0.199341 0.801880
vt 0.213379 0.801880
vt 0.213379 0.794556
vt 0.211914 0.794556
vt 0.784180 0.729736
vt 0.786621 0.729736
vt 0.791504 0.729736
vt 0.871094 0.486328
vt 0.872070 0.486328
vt 0.873535 0.483398
vt 0.873535 0.486328
vt 0.786621 0.799438
vt 0.784180 0.839966
vt 0.791504 0.799438
vt 0.791504 0.839966
vt 0.686035 0.326172
vt 0.802246 0.326172
vt 0.686035 0.327637
vt 0.805176 0.327637
vt 0.802246 0.220215
vt 0.805176 0.217285
vt 0.686035 0.217285
vt 0.686035 0.220215
vt 0.029861 0.971619
vt 0.067383 0.971619
vt 0.029861 0.986084
vt 0.079895 0.986084
vt 0.067383 0.925354
vt 0.029861 0.925354
vt 0.934570 0.304688
vt 0.938477 0.304688
vt 0.934570 0.308105
vt 0.942383 0.308105
vt 0.938477 0.300781
vt 0.942383 0.300781
vt 0.088440 0.824097
vt 0.088440 0.826904
vt 0.088440 0.873291
vt 0.159912 0.873291
vt 0.388428 0.986084
vt 0.159912 0.864624
vt 0.388428 0.864624
vt 0.165527 0.859009
vt 0.165527 0.832519
vt 0.195557 0.859009
vt 0.159912 0.826904
vt 0.195557 0.832519
vt 0.388428 0.826904
vt 0.159912 0.824097
vt 0.388428 0.824097
vt 0.082703 0.604492
vt 0.084229 0.604492
vt 0.082703 0.607910
vt 0.084290 0.607910
vt 0.096680 0.607910
vt 0.098267 0.607910
vt 0.098267 0.604248
vt 0.096680 0.604248
vt 0.934570 0.415527
vt 0.934570 0.412109
vt 0.938477 0.415527
vt 0.942383 0.412109
vt 0.938477 0.419434
vt 0.942383 0.419434
vt 0.407715 0.971344
vt 0.407715 0.913452
vt 0.445312 0.971344
vt 0.432617 0.913452
vt 0.445312 0.968445
vt 0.457764 0.930847
vt 0.432617 0.838257
vt 0.407715 0.838257
vt 0.025009 0.490234
vt 0.010544 0.490234
vt 0.025009 0.342773
vt 0.010544 0.336914
vt 0.071289 0.342773
vt 0.172607 0.336914
vt 0.172607 0.490234
vt 0.071289 0.490234
vt 0.965332 0.419434
vt 0.965332 0.415527
vt 0.965332 0.412109
vt 0.976562 0.412109
vt 0.976562 0.415527
vt 0.919922 0.277344
vt 0.909180 0.313477
vt 0.901856 0.277344
vt 0.905762 0.313477
vt 0.901856 0.315918
vt 0.898438 0.315918
vt 0.679199 0.369141
vt 0.517090 0.315430
vt 0.517090 0.369141
vt 0.887695 0.992191
vt 0.887695 0.924927
vt 0.832031 0.992191
vt 0.832031 0.924927
vt 0.965332 0.308105
vt 0.976562 0.308105
vt 0.942383 0.318359
vt 0.679199 0.176270
vt 0.517090 0.176270
vt 0.517090 0.229980
vt 0.942383 0.402344
vt 0.873535 0.567627
vt 0.872070 0.564697
vt 0.873535 0.564697
vt 0.871094 0.564697
vt 0.067383 0.643799
vt 0.079895 0.682129
vt 0.941406 0.564941
vt 0.941406 0.489258
vt 0.613769 0.408691
vt 0.613769 0.524902
vt 0.605469 0.413086
vt 0.605469 0.411621
vt 0.605469 0.519043
vt 0.605469 0.521973
vt 0.601562 0.519043
vt 0.601562 0.413086
vt 0.976562 0.304688
vt 0.965332 0.304688
vt 0.965332 0.300781
vt 0.746582 0.380371
vt 0.633789 0.389648
vt 0.633789 0.380371
vt 0.746582 0.389648
vt 0.079895 0.813965
vt 0.029861 0.813965
vt 0.766113 0.826660
vt 0.583496 0.817139
vt 0.766113 0.817139
vt 0.583496 0.826660
vt 0.481201 0.336914
vt 0.481201 0.490234
vt 0.464111 0.490234
vt 0.472656 0.368652
vt 0.464111 0.378418
vt 0.472656 0.342773
vt 0.181152 0.342773
vt 0.181152 0.368652
vt 0.269775 0.378418
vt 0.269775 0.490234
vt 0.592285 0.955109
vt 0.592285 0.856079
vt 0.760254 0.955109
vt 0.760254 0.856079
vt 0.667969 0.246582
vt 0.667969 0.298340
vt 0.631836 0.246582
vt 0.631836 0.298340
s 1
usemtl lab_copy_machine_broken
f 3/1/1 2/2/1 1/3/1
f 6/4/2 5/5/2 4/6/2
f 9/7/1 8/8/1 7/9/1
f 12/10/3 11/11/4 10/12/3
f 15/13/1 14/14/1 13/15/1
f 18/16/2 17/17/2 16/18/2
f 21/19/2 20/20/2 19/21/2
f 24/22/2 23/23/2 22/24/2
f 25/25/2 22/24/2 23/23/2
f 26/26/2 22/24/2 25/25/2
f 27/27/2 26/26/2 25/25/2
f 30/28/5 29/29/5 28/30/5
f 29/29/5 31/31/5 28/30/5
f 32/32/5 28/30/5 31/31/5
f 33/33/5 32/32/5 31/31/5
f 36/34/6 35/35/7 34/36/7
f 35/35/7 37/37/7 34/36/7
f 37/37/7 38/38/7 34/36/7
f 39/39/7 38/38/7 37/37/7
f 42/40/1 41/41/1 40/42/1
f 41/41/1 43/43/1 40/42/1
f 40/42/1 43/43/1 44/44/1
f 45/45/1 40/42/1 44/44/1
f 43/43/1 46/46/1 44/44/1
f 47/47/1 46/46/1 43/43/1
f 48/48/1 44/44/1 46/46/1
f 49/49/1 48/48/1 46/46/1
f 52/50/2 51/51/8 50/52/2
f 51/51/8 52/50/2 53/53/9
f 53/53/9 54/54/10 51/51/8
f 54/54/10 53/53/9 55/55/10
f 58/56/1 57/57/1 56/58/1
f 57/57/1 58/56/1 59/59/1
f 62/60/11 61/61/11 60/62/11
f 61/61/11 62/60/11 63/63/11
f 66/64/12 65/65/12 64/11/13
f 65/65/12 66/64/12 67/66/12
f 70/67/2 69/68/2 68/69/2
f 69/68/2 70/67/2 71/70/2
f 74/71/14 73/72/15 72/73/16
f 73/72/15 74/71/14 75/74/17
f 74/71/14 76/54/18 75/74/17
f 75/74/17 76/54/18 77/75/19
f 78/76/17 77/75/19 76/54/18
f 79/40/18 78/76/17 76/54/18
f 80/77/20 77/75/19 78/76/17
f 77/75/19 80/77/20 81/78/20
f 82/79/17 78/76/17 79/40/18
f 83/80/21 82/79/17 79/40/18
f 83/80/21 84/81/15 82/79/17
f 84/81/15 83/80/21 85/82/16
f 88/83/22 87/66/22 86/84/22
f 87/66/22 88/83/22 89/85/22
f 92/86/2 91/60/2 90/87/2
f 91/60/2 92/86/2 93/88/2
f 96/89/23 95/11/23 94/10/23
f 97/90/23 95/11/23 96/89/23
f 98/91/23 97/90/23 96/89/23
f 99/92/23 98/91/23 96/89/23
f 100/93/23 99/92/23 96/89/23
f 103/94/23 102/12/23 101/11/23
f 104/95/23 102/12/23 103/94/23
f 107/96/1 106/62/1 105/97/1
f 106/62/1 107/96/1 108/98/1
f 111/99/24 110/100/25 109/101/25
f 110/100/25 111/99/24 112/102/25
f 115/87/26 114/103/26 113/104/27
f 114/103/26 115/87/26 116/98/27
f 119/105/28 118/106/28 117/107/28
f 117/107/28 118/106/28 120/108/28
f 121/109/29 120/108/28 118/106/28
f 122/110/30 120/108/28 121/109/29
f 125/111/31 124/102/31 123/112/31
f 124/102/31 125/111/31 126/100/31
f 129/113/27 128/114/26 127/115/27
f 127/115/27 128/114/26 130/116/26
f 131/117/27 130/116/26 128/114/26
f 132/118/26 131/117/27 128/114/26
f 133/119/26 131/117/27 132/118/26
f 134/120/27 133/119/26 132/118/26
f 132/118/26 135/121/27 134/120/27
f 135/121/27 132/118/26 136/122/27
f 135/121/27 136/122/27 137/123/26
f 138/124/26 137/123/26 136/122/27
f 141/62/32 140/87/17 139/60/32
f 140/87/17 141/62/32 142/98/32
f 145/125/26 144/70/27 143/58/27
f 144/70/27 145/125/26 146/126/27
f 149/127/23 148/34/23 147/128/23
f 148/34/23 149/127/23 150/129/23
f 153/130/1 152/131/1 151/132/1
f 154/133/1 151/132/1 152/131/1
f 155/134/1 154/133/1 152/131/1
f 156/135/1 154/133/1 155/134/1
f 159/64/33 158/84/34 157/66/35
f 158/84/34 159/64/33 160/136/33
f 163/137/1 162/138/1 161/139/1
f 162/138/1 163/137/1 164/140/1
f 167/141/11 166/56/11 165/67/11
f 166/56/11 167/141/11 168/142/11
f 171/143/2 170/144/2 169/145/2
f 170/144/2 171/143/2 172/146/2
f 175/147/7 174/148/6 173/84/6
f 174/148/6 175/147/7 176/149/7
f 179/70/36 178/56/17 177/58/32
f 178/56/17 179/70/36 180/67/32
f 183/150/37 182/151/38 181/152/39
f 182/151/38 183/150/37 184/153/38
f 185/154/40 182/151/38 184/153/38
f 182/151/38 185/154/40 186/155/41
f 189/156/42 188/157/42 187/158/42
f 188/157/42 190/159/42 187/158/42
f 191/160/42 190/159/42 188/157/42
f 187/158/42 190/159/42 192/161/42
f 190/159/42 193/162/42 192/161/42
f 194/163/42 192/161/42 193/162/42
f 197/164/2 196/165/2 195/166/2
f 195/166/2 196/165/2 198/167/2
f 196/165/2 199/168/2 198/167/2
f 200/157/2 198/167/2 199/168/2
f 201/160/2 200/157/2 199/168/2
f 202/169/2 201/160/2 199/168/2
f 205/170/28 204/171/28 203/172/28
f 206/173/28 203/172/28 204/171/28
f 207/174/28 206/173/28 204/171/28
f 208/129/28 206/173/28 207/174/28
f 211/175/39 210/176/37 209/154/43
f 212/177/39 209/154/43 210/176/37
f 209/154/43 212/177/39 213/178/39
f 210/176/37 214/179/39 212/177/39
f 212/177/39 214/179/39 215/180/37
f 214/179/39 216/181/39 215/180/37
f 215/180/37 216/181/39 217/182/39
f 218/183/39 217/182/39 216/181/39
f 219/184/39 217/182/39 218/183/39
f 218/183/39 220/185/39 219/184/39
f 220/185/39 218/183/39 221/155/44
f 222/186/39 221/155/44 218/183/39
f 225/187/2 224/188/2 223/189/2
f 224/188/2 226/190/2 223/189/2
f 227/191/2 223/189/2 226/190/2
f 228/192/2 227/191/2 226/190/2
f 231/193/23 230/194/23 229/195/23
f 232/196/23 229/195/23 230/194/23
f 233/157/23 232/196/23 230/194/23
f 234/197/23 233/157/23 230/194/23
f 235/198/23 234/197/23 230/194/23
f 236/167/23 233/157/23 234/197/23
f 239/199/42 238/200/42 237/201/42
f 240/202/42 239/199/42 237/201/42
f 243/143/45 242/138/17 241/203/17
f 244/204/17 241/203/17 242/138/17
f 247/205/42 246/206/42 245/207/42
f 248/208/42 245/207/42 246/206/42
f 251/139/46 250/145/46 249/209/46
f 252/210/46 251/139/46 249/209/46
f 255/211/37 254/185/37 253/178/37
f 254/185/37 255/211/37 256/212/39
f 259/213/22 258/214/22 257/215/22
f 260/216/22 257/215/22 258/214/22
f 263/33/5 262/32/5 261/31/5
f 262/32/5 264/30/5 261/31/5
f 265/29/5 261/31/5 264/30/5
f 266/28/5 265/29/5 264/30/5
f 269/217/23 268/218/23 267/219/23
f 270/220/23 267/219/23 268/218/23
f 273/221/42 272/222/42 271/223/42
f 274/224/42 271/223/42 272/222/42
f 277/225/6 276/226/6 275/227/47
f 278/228/7 275/227/47 276/226/6
f 279/229/7 275/227/47 278/228/7
f 280/230/6 279/229/7 278/228/7
f 283/231/5 282/232/5 281/233/5
f 284/234/5 281/233/5 282/232/5
f 287/235/1 286/236/1 285/237/1
f 288/238/1 285/237/1 286/236/1
f 291/239/48 290/240/48 289/241/48
f 290/240/48 291/239/48 292/242/48
f 295/129/49 294/35/49 293/34/49
f 294/35/49 295/129/49 296/174/49
f 299/243/22 298/244/22 297/245/22
f 298/244/22 299/243/22 300/246/22
f 303/236/5 302/247/5 301/238/5
f 304/248/5 301/238/5 302/247/5
f 307/249/22 306/250/22 305/251/22
f 306/250/22 307/249/22 308/252/22
f 311/253/5 310/254/5 309/255/5
f 310/254/5 311/253/5 312/256/5
f 315/257/5 314/258/5 313/259/5
f 314/258/5 315/257/5 316/260/5
f 319/261/23 318/262/23 317/263/23
f 318/262/23 319/261/23 320/264/23
f 323/265/42 322/266/42 321/267/42
f 322/266/42 323/265/42 324/268/42
f 327/269/2 326/270/2 325/271/2
f 326/270/2 327/269/2 328/272/2
f 331/273/42 330/274/42 329/275/42
f 330/274/42 331/273/42 332/276/42
f 335/277/1 334/278/1 333/279/1
f 334/278/1 335/277/1 336/280/1
f 339/222/1 338/232/1 337/231/1
f 338/232/1 339/222/1 340/221/1
f 343/281/42 342/282/42 341/283/42
f 342/282/42 343/281/42 344/284/42
f 347/285/42 346/235/42 345/237/42
f 346/235/42 347/285/42 348/286/42
f 351/182/22 350/287/22 349/180/22
f 350/287/22 351/182/22 352/288/22
f 355/289/2 354/102/2 353/99/2
f 354/102/2 355/289/2 356/290/2
f 359/291/42 358/292/42 357/293/42
f 358/292/42 359/291/42 360/294/42
f 363/295/2 362/296/2 361/297/2
f 362/296/2 363/295/2 364/298/2
f 367/74/17 366/78/20 365/72/50
f 366/78/20 367/74/17 368/75/17
f 371/79/17 370/77/20 369/76/17
f 370/77/20 371/79/17 372/81/51
f 375/299/42 374/300/42 373/301/42
f 374/300/42 375/299/42 376/302/42
f 379/303/23 378/272/23 377/304/23
f 378/272/23 379/303/23 380/270/23
f 383/305/42 382/264/42 381/306/42
f 382/264/42 383/305/42 384/262/42
f 387/307/2 386/217/2 385/308/2
f 386/217/2 387/307/2 388/214/2
f 391/309/22 390/221/22 389/310/22
f 390/221/22 391/309/22 392/232/22
f 395/311/22 394/312/22 393/313/22
f 394/312/22 395/311/22 396/314/22
f 399/315/1 398/314/1 397/316/1
f 398/314/1 399/315/1 400/317/1
f 403/239/52 402/240/52 401/241/52
f 402/240/52 403/239/52 404/242/52
f 407/318/23 406/319/23 405/320/23
f 406/319/23 407/318/23 408/321/23
f 411/322/1 410/112/1 409/323/1
f 410/112/1 411/322/1 412/324/1
f 415/325/5 414/326/5 413/327/5
f 414/326/5 415/325/5 416/328/5
f 419/329/26 418/330/26 417/331/26
f 418/330/26 419/329/26 420/332/26
f 423/239/2 422/240/2 421/241/2
f 422/240/2 423/239/2 424/242/2
f 427/245/5 426/333/5 425/243/5
f 426/333/5 427/245/5 428/334/5
f 431/335/1 430/336/1 429/337/1
f 430/336/1 431/335/1 432/338/1
f 435/339/45 434/340/17 433/341/17
f 434/340/17 435/339/45 436/342/17
f 439/343/5 438/344/5 437/345/5
f 438/344/5 439/343/5 440/346/5
f 443/347/1 442/213/1 441/348/1
f 442/213/1 443/347/1 444/218/1
f 447/349/22 446/350/22 445/351/22
f 446/350/22 447/349/22 448/278/22
f 451/352/5 450/353/5 449/354/5
f 450/353/5 451/352/5 452/355/5
f 455/356/42 454/357/42 453/358/42
f 454/357/42 455/356/42 456/359/42
f 459/360/2 458/361/2 457/362/2
f 458/361/2 459/360/2 460/312/2
f 463/363/42 462/364/42 461/365/42
f 464/366/42 461/365/42 462/364/42
f 465/367/42 464/366/42 462/364/42
f 466/368/42 464/366/42 465/367/42
f 469/100/42 468/369/42 467/101/42
f 468/369/42 469/100/42 470/111/42
f 473/370/23 472/135/23 471/27/23
f 472/135/23 473/370/23 474/371/23
f 477/372/1 476/373/1 475/374/1
f 475/374/1 476/373/1 478/375/1
f 479/376/1 478/375/1 476/373/1
f 480/377/1 478/375/1 479/376/1
f 483/363/42 482/364/42 481/365/42
f 484/366/42 481/365/42 482/364/42
f 485/367/42 484/366/42 482/364/42
f 486/368/42 484/366/42 485/367/42
f 489/378/2 488/358/2 487/357/2
f 488/358/2 489/378/2 490/379/2
f 493/380/23 492/353/23 491/355/23
f 492/353/23 493/380/23 494/381/23
f 497/214/42 496/218/42 495/217/42
f 496/218/42 497/214/42 498/213/42
f 501/382/42 500/383/42 499/384/42
f 500/383/42 501/382/42 502/385/42
f 505/386/23 504/346/23 503/387/23
f 504/346/23 505/386/23 506/300/23
f 509/388/46 508/389/46 507/390/46
f 508/389/46 509/388/46 510/391/53
f 513/392/5 512/335/5 511/337/5
f 512/335/5 513/392/5 514/393/5
f 517/394/22 516/395/22 515/396/22
f 516/395/22 517/394/22 518/397/22
f 521/398/42 520/399/42 519/400/42
f 520/399/42 521/398/42 522/401/42
f 525/402/54 524/403/54 523/404/54
f 524/403/54 525/402/54 526/405/54
f 529/296/42 528/406/42 527/407/42
f 528/406/42 529/296/42 530/298/42
f 533/408/23 532/377/23 531/409/23
f 532/377/23 533/408/23 534/192/23
f 537/147/55 536/136/55 535/90/55
f 536/136/55 537/147/55 538/84/55
f 541/410/22 540/411/22 539/412/22
f 540/411/22 541/410/22 542/413/22
f 545/281/2 544/414/2 543/415/2
f 544/414/2 545/281/2 546/283/2
f 549/378/5 548/416/5 547/379/5
f 548/416/5 549/378/5 550/417/5
f 553/418/5 552/419/5 551/420/5
f 552/419/5 553/418/5 554/421/5
f 557/422/5 556/423/5 555/424/5
f 556/423/5 557/422/5 558/425/5
f 561/426/1 560/405/1 559/427/1
f 560/405/1 561/426/1 562/428/1
f 565/429/22 564/298/22 563/295/22
f 564/298/22 565/429/22 566/430/22
f 569/139/11 568/143/11 567/145/11
f 568/143/11 569/139/11 570/138/11
f 573/431/42 572/432/42 571/433/42
f 572/432/42 573/431/42 574/434/42
f 577/435/1 576/436/1 575/437/1
f 576/436/1 577/435/1 578/438/1
f 581/252/2 580/439/2 579/250/2
f 580/439/2 581/252/2 582/440/2
f 585/135/5 584/26/5 583/27/5
f 584/26/5 585/135/5 586/134/5
f 589/441/56 588/442/56 587/443/56
f 588/442/56 589/441/56 590/427/56
f 593/444/2 592/434/2 591/445/2
f 592/434/2 593/444/2 594/423/2
f 597/338/42 596/446/42 595/336/42
f 596/446/42 597/338/42 598/447/42
f 601/448/2 600/449/2 599/450/2
f 600/449/2 601/448/2 602/451/2
f 605/344/1 604/300/1 603/302/1
f 604/300/1 605/344/1 606/346/1
f 609/452/5 608/453/5 607/454/5
f 608/453/5 609/452/5 610/455/5
f 613/456/2 612/457/2 611/458/2
f 612/457/2 613/456/2 614/350/2
f 617/459/22 616/460/22 615/461/22
f 616/460/22 618/462/22 615/461/22
f 615/461/22 618/462/22 619/463/22
f 618/462/22 620/464/22 619/463/22
f 621/465/22 619/463/22 620/464/22
f 622/466/22 619/463/22 621/465/22
f 623/467/22 622/466/22 621/465/22
f 624/468/22 623/467/22 621/465/22
f 625/469/22 620/464/22 618/462/22
f 626/470/22 625/469/22 618/462/22
f 627/471/22 625/469/22 626/470/22
f 628/472/22 626/470/22 618/462/22
f 629/473/22 626/470/22 628/472/22
f 630/474/22 629/473/22 628/472/22
f 633/475/2 632/328/2 631/476/2
f 632/328/2 633/475/2 634/292/2
f 637/477/22 636/372/22 635/187/22
f 636/372/22 637/477/22 638/478/22
f 641/356/1 640/206/1 639/359/1
f 640/206/1 641/356/1 642/208/1
f 645/314/42 644/361/42 643/312/42
f 644/361/42 645/314/42 646/317/42
f 649/479/23 648/317/23 647/480/23
f 648/317/23 649/479/23 650/361/23
f 653/481/42 652/5/42 651/8/42
f 652/5/42 653/481/42 654/482/42
f 657/483/30 656/65/30 655/66/28
f 656/65/30 657/483/30 658/484/30
f 661/111/57 660/324/57 659/369/58
f 660/324/57 661/111/57 662/112/58
f 665/282/2 664/416/2 663/417/2
f 664/416/2 665/282/2 666/284/2
f 669/485/22 668/421/22 667/486/22
f 668/421/22 669/485/22 670/274/22
f 673/487/5 672/270/5 671/488/5
f 672/270/5 673/487/5 674/271/5
f 677/489/2 676/264/2 675/490/2
f 676/264/2 677/489/2 678/306/2
f 681/292/23 680/326/23 679/328/23
f 680/326/23 681/292/23 682/294/23
f 685/400/1 684/255/1 683/398/1
f 684/255/1 685/400/1 686/253/1
f 689/491/5 688/438/5 687/435/5
f 688/438/5 689/491/5 690/492/5
f 693/493/5 692/439/5 691/494/5
f 692/439/5 693/493/5 694/250/5
f 697/394/42 696/495/42 695/397/42
f 696/495/42 697/394/42 698/496/42
f 701/437/42 700/497/42 699/498/42
f 700/497/42 701/437/42 702/436/42
f 705/499/1 704/305/1 703/500/1
f 704/305/1 705/499/1 706/262/1
f 709/501/42 708/269/42 707/502/42
f 708/269/42 709/501/42 710/272/42
f 713/419/2 712/274/2 711/276/2
f 712/274/2 713/419/2 714/421/2
f 717/285/2 716/207/2 715/286/2
f 716/207/2 717/285/2 718/205/2
f 721/503/59 720/504/59 719/505/59
f 720/504/59 721/503/59 722/506/59
f 725/9/22 724/5/22 723/4/22
f 724/5/22 725/9/22 726/8/22
f 729/11/39 728/136/37 727/64/37
f 728/136/37 729/11/39 730/90/39
f 733/507/22 732/112/22 731/102/22
f 732/112/22 733/507/22 734/508/22
f 737/509/1 736/294/1 735/510/1
f 736/294/1 737/509/1 738/326/1
f 741/511/22 740/512/22 739/425/22
f 739/425/22 740/512/22 742/423/22
f 743/513/22 742/423/22 740/512/22
f 744/434/22 742/423/22 743/513/22
f 745/432/22 744/434/22 743/513/22
f 746/514/22 745/432/22 743/513/22
f 749/515/22 748/516/60 747/517/22
f 748/516/60 749/515/22 750/518/61
f 750/518/61 751/519/60 748/516/60
f 751/519/60 750/518/61 752/520/62
f 751/519/60 752/520/62 753/521/22
f 752/520/62 754/522/22 753/521/22
f 754/522/22 752/520/62 755/515/22
f 751/519/60 753/521/22 756/523/22
f 756/523/22 757/517/22 751/519/60
f 757/517/22 756/523/22 758/524/22
f 761/522/22 760/515/22 759/517/22
f 762/524/22 761/522/22 759/517/22
f 765/525/1 764/526/63 763/527/1
f 764/526/63 765/525/1 766/528/64
f 766/528/64 767/521/65 764/526/63
f 767/521/65 766/528/64 768/523/65
f 771/529/23 770/530/23 769/531/23
f 769/531/23 770/530/23 772/532/23
f 770/530/23 773/533/23 772/532/23
f 772/532/23 773/533/23 774/534/23
f 774/534/23 773/533/23 775/535/23
f 776/536/23 775/535/23 773/533/23
f 777/537/23 774/534/23 775/535/23
f 778/538/23 774/534/23 777/537/23
f 779/539/23 774/534/23 778/538/23
f 780/540/23 775/535/23 776/536/23
f 781/541/23 780/540/23 776/536/23
f 782/542/23 775/535/23 780/540/23
f 783/543/23 782/542/23 780/540/23
f 784/544/23 782/542/23 783/543/23
f 785/453/23 780/540/23 781/541/23
f 786/545/23 785/453/23 781/541/23
f 787/546/23 780/540/23 785/453/23
f 788/455/23 787/546/23 785/453/23
f 789/547/23 787/546/23 788/455/23
f 792/523/66 791/548/67 790/524/66
f 791/548/67 792/523/66 793/549/68
f 793/549/68 794/550/69 791/548/67
f 794/550/69 793/549/68 795/551/69
f 798/552/42 797/553/42 796/554/42
f 796/554/42 797/553/42 799/555/42
f 797/553/42 800/556/42 799/555/42
f 801/557/42 799/555/42 800/556/42
f 802/558/42 801/557/42 800/556/42
f 803/559/42 802/558/42 800/556/42
f 806/560/22 805/561/22 804/562/22
f 804/562/22 805/561/22 807/563/22
f 808/564/22 804/562/22 807/563/22
f 809/565/22 808/564/22 807/563/22
f 810/566/22 807/563/22 805/561/22
f 811/567/22 810/566/22 805/561/22
f 814/568/2 813/569/2 812/352/2
f 813/569/2 815/355/2 812/352/2
f 816/570/2 815/355/2 813/569/2
f 817/571/2 815/355/2 816/570/2
f 818/572/2 817/571/2 816/570/2
f 819/573/2 818/572/2 816/570/2
f 822/574/42 821/575/70 820/576/42
f 821/575/70 822/574/42 823/577/20
f 823/577/20 824/578/71 821/575/70
f 824/578/71 823/577/20 825/579/72
f 825/579/72 826/377/42 824/578/71
f 827/375/42 826/377/42 825/579/72
f 827/375/42 825/579/72 828/580/42
f 828/580/42 825/579/72 829/581/42
f 830/374/42 827/375/42 828/580/42
f 830/374/42 828/580/42 831/372/42
f 828/580/42 832/582/42 831/372/42
f 832/582/42 833/187/42 831/372/42
f 834/583/42 833/187/42 832/582/42
f 835/188/42 833/187/42 834/583/42
f 836/584/42 835/188/42 834/583/42
f 835/188/42 836/584/42 824/578/71
f 837/585/42 824/578/71 836/584/42
f 838/190/42 835/188/42 824/578/71
f 824/578/71 826/377/42 838/190/42
f 839/192/42 838/190/42 826/377/42
f 842/586/1 841/258/1 840/587/1
f 843/588/1 840/587/1 841/258/1
f 844/260/1 843/588/1 841/258/1
f 847/511/1 846/425/1 845/589/1
f 845/589/1 846/425/1 848/590/1
f 849/591/1 848/590/1 846/425/1
f 850/592/1 848/590/1 849/591/1
f 853/587/42 852/593/42 851/586/42
f 851/586/42 852/593/42 854/594/42
f 855/595/42 854/594/42 852/593/42
f 856/596/42 854/594/42 855/595/42
f 859/597/23 858/598/23 857/599/23
f 857/599/23 858/598/23 860/600/23
f 861/601/23 860/600/23 858/598/23
f 862/602/23 860/600/23 861/601/23
f 863/603/23 862/602/23 861/601/23
f 864/604/23 863/603/23 861/601/23
f 867/605/1 866/606/1 865/607/1
f 865/607/1 866/606/1 868/608/1
f 866/606/1 869/609/1 868/608/1
f 870/383/1 868/608/1 869/609/1
f 871/610/1 870/383/1 869/609/1
f 872/384/1 870/383/1 871/610/1
f 875/611/2 874/612/2 873/613/2
f 876/614/2 873/613/2 874/612/2
f 877/615/2 876/614/2 874/612/2
f 878/616/2 876/614/2 877/615/2
f 881/617/22 880/618/22 879/383/22
f 880/618/22 882/619/22 879/383/22
f 879/383/22 882/619/22 883/608/22
f 882/619/22 884/620/22 883/608/22
f 883/608/22 884/620/22 885/621/22
f 886/622/73 885/621/22 884/620/22
f 887/623/74 885/621/22 886/622/73
f 888/624/75 887/623/74 886/622/73
f 889/625/75 888/624/75 886/622/73
f 887/623/74 888/624/75 890/626/75
f 889/625/75 886/622/73 891/627/74
f 887/623/74 890/626/75 892/628/75
f 891/627/74 892/628/75 889/625/75
f 893/629/76 887/623/74 892/628/75
f 892/628/75 891/627/74 893/629/76
f 894/630/22 893/629/76 891/627/74
f 893/629/76 894/630/22 895/631/22
f 898/632/23 897/633/23 896/634/23
f 897/633/23 899/635/23 896/634/23
f 896/634/23 899/635/23 900/369/23
f 900/369/23 899/635/23 901/101/23
f 899/635/23 902/636/23 901/101/23
f 903/637/23 901/101/23 902/636/23
f 904/638/23 903/637/23 902/636/23
f 905/639/23 904/638/23 902/636/23
f 908/640/2 907/641/2 906/642/2
f 907/641/2 909/643/2 906/642/2
f 910/644/2 906/642/2 909/643/2
f 911/645/2 910/644/2 909/643/2
f 914/646/2 913/647/2 912/648/2
f 913/647/2 915/649/2 912/648/2
f 916/650/2 912/648/2 915/649/2
f 917/651/2 916/650/2 915/649/2
f 918/652/2 917/651/2 915/649/2
f 919/452/2 917/651/2 918/652/2
f 920/455/2 919/452/2 918/652/2
f 921/653/2 920/455/2 918/652/2
f 924/654/1 923/655/1 922/656/1
f 923/655/1 925/657/1 922/656/1
f 922/656/1 925/657/1 926/658/1
f 925/657/1 927/659/1 926/658/1
f 928/660/1 926/658/1 927/659/1
f 929/661/1 926/658/1 928/660/1
f 932/366/22 931/32/77 930/365/77
f 931/32/77 932/366/22 933/30/60
f 934/242/78 933/30/60 932/366/22
f 933/30/60 934/242/78 935/239/78
f 938/643/79 937/662/79 936/645/79
f 937/662/79 938/643/79 939/663/80
f 940/664/81 939/663/80 938/643/79
f 941/665/22 939/663/80 940/664/81
f 939/663/80 941/665/22 942/666/22
f 945/667/5 944/668/5 943/669/5
f 944/668/5 946/670/5 943/669/5
f 947/671/5 943/669/5 946/670/5
f 948/167/5 947/671/5 946/670/5
f 949/166/5 948/167/5 946/670/5
f 950/672/5 947/671/5 948/167/5
f 953/673/1 952/506/1 951/412/1
f 952/506/1 953/673/1 954/674/1
f 955/675/1 954/674/1 953/673/1
f 958/676/82 957/241/23 956/240/23
f 957/241/23 958/676/82 959/677/83
f 960/678/84 959/677/83 958/676/82
f 959/677/83 960/678/84 961/679/84
f 964/437/22 963/402/22 962/435/22
f 963/402/22 964/437/22 965/405/22
f 966/442/22 965/405/22 964/437/22
f 965/405/22 966/442/22 967/427/22
f 970/567/42 969/680/42 968/681/42
f 969/680/42 970/567/42 971/682/42
f 972/561/42 971/682/42 970/567/42
f 975/676/85 974/241/86 973/240/86
f 974/241/86 975/676/85 976/677/23
f 977/678/82 976/677/23 975/676/85
f 976/677/23 977/678/82 978/679/82
f 981/677/87 980/678/88 979/679/88
f 980/678/88 981/677/87 982/676/89
f 983/241/90 982/676/89 981/677/87
f 982/676/89 983/241/90 984/240/90
f 987/366/91 986/32/92 985/365/92
f 986/32/92 987/366/91 988/30/77
f 989/242/22 988/30/77 987/366/91
f 988/30/77 989/242/22 990/239/22
f 993/503/2 992/683/2 991/410/2
f 992/683/2 993/503/2 994/684/2
f 995/685/2 994/684/2 993/503/2
f 998/30/93 997/242/94 996/239/95
f 997/242/94 998/30/93 999/366/96
f 1000/32/97 999/366/96 998/30/93
f 999/366/96 1000/32/97 1001/365/97
f 1004/664/5 1003/566/5 1002/665/5
f 1003/566/5 1004/664/5 1005/563/5
f 1006/686/5 1005/563/5 1004/664/5
f 1009/687/1 1008/688/1 1007/689/1
f 1008/688/1 1009/687/1 1010/690/1
f 1011/432/1 1010/690/1 1009/687/1
f 1010/690/1 1011/432/1 1012/514/1
f 1015/691/1 1014/554/1 1013/555/1
f 1016/692/1 1014/554/1 1015/691/1
f 1017/268/1 1014/554/1 1016/692/1
f 1018/265/1 1014/554/1 1017/268/1
f 1021/426/98 1020/693/99 1019/428/98
f 1020/693/99 1021/426/98 1022/694/99
f 1023/398/23 1020/693/99 1022/694/99
f 1020/693/99 1023/398/23 1024/255/23
f 1027/33/5 1026/32/5 1025/31/5
f 1026/32/5 1028/30/5 1025/31/5
f 1029/28/5 1025/31/5 1028/30/5
f 1030/29/5 1025/31/5 1029/28/5
f 1033/522/2 1032/524/2 1031/695/2
f 1032/524/2 1034/696/2 1031/695/2
f 1031/695/2 1034/696/2 1035/697/2
f 1036/698/2 1031/695/2 1035/697/2
f 1034/696/2 1037/699/2 1035/697/2
f 1038/700/2 1037/699/2 1034/696/2
f 1037/699/2 1039/701/2 1035/697/2
f 1040/702/2 1035/697/2 1039/701/2
f 1043/680/81 1042/703/22 1041/681/22
f 1042/703/22 1043/680/81 1044/704/61
f 1043/680/81 1045/616/79 1044/704/61
f 1046/705/78 1044/704/61 1045/616/79
f 1045/616/79 1043/680/81 1047/614/79
f 1050/706/100 1049/707/101 1048/708/100
f 1049/707/101 1050/706/100 1051/709/102
f 1052/521/103 1049/707/101 1051/709/102
f 1049/707/101 1052/521/103 1053/522/103
f 1056/382/2 1055/710/2 1054/385/2
f 1055/710/2 1056/382/2 1057/711/2
f 1058/267/2 1055/710/2 1057/711/2
f 1055/710/2 1058/267/2 1059/266/2
f 1062/712/104 1061/713/105 1060/714/105
f 1061/713/105 1062/712/104 1063/715/104
f 1062/712/104 1064/55/106 1063/715/104
f 1064/55/106 1062/712/104 1065/41/107
f 1068/363/42 1067/364/42 1066/365/42
f 1069/366/42 1066/365/42 1067/364/42
f 1070/368/42 1069/366/42 1067/364/42
f 1071/367/42 1070/368/42 1067/364/42
f 1074/716/42 1073/717/42 1072/718/42
f 1072/718/42 1075/719/42 1074/716/42
f 1072/718/42 1076/720/42 1075/719/42
f 1074/716/42 1075/719/42 1077/721/42
f 1077/721/42 1078/659/42 1074/716/42
f 1077/721/42 1079/722/42 1078/659/42
f 1076/720/42 1080/723/42 1075/719/42
f 1079/722/42 1081/660/42 1078/659/42
f 1081/660/42 1079/722/42 1080/723/42
f 1076/720/42 1082/724/42 1080/723/42
f 1081/660/42 1080/723/42 1082/724/42
f 1082/724/42 1083/725/42 1081/660/42
f 1086/54/11 1085/55/11 1084/726/11
f 1084/726/11 1087/40/11 1086/54/11
f 1085/55/11 1088/727/11 1084/726/11
f 1087/40/11 1084/726/11 1089/728/11
f 1085/55/11 1090/729/11 1088/727/11
f 1089/728/11 1091/41/11 1087/40/11
f 1089/728/11 1090/729/11 1091/41/11
f 1090/729/11 1085/55/11 1091/41/11
f 1094/410/42 1093/412/42 1092/730/42
f 1092/730/42 1095/503/42 1094/410/42
f 1093/412/42 1096/731/42 1092/730/42
f 1092/730/42 1097/732/42 1095/503/42
f 1096/731/42 1093/412/42 1098/506/42
f 1098/506/42 1095/503/42 1097/732/42
f 1099/733/42 1096/731/42 1098/506/42
f 1097/732/42 1099/733/42 1098/506/42
