# Blender v2.77 (sub 0) OBJ File: ''
# www.blender.org
mtllib Blood Slime.mtl
o shot_2025-05-16_10-06-04-628
v 0.328816 0.011186 -0.612724
v 0.496679 -0.006489 -0.775825
v 0.325214 -0.007473 -0.762747
v 0.328816 0.011186 -0.612724
v 0.325214 -0.007473 -0.762747
v 0.214818 -0.000136 -0.679828
v 0.496679 -0.006489 -0.775825
v 0.582365 0.006494 -0.556373
v 0.604561 -0.006237 -0.724278
v 0.582365 0.006494 -0.556373
v 0.697314 -0.006808 -0.631565
v 0.604561 -0.006237 -0.724278
v 0.582365 0.006494 -0.556373
v 0.496679 -0.006489 -0.775825
v 0.328816 0.011186 -0.612724
v 0.236187 0.152959 -0.888555
v 0.241206 0.220210 -0.832087
v 0.270410 0.185225 -0.829968
v 0.236187 0.152959 -0.888555
v 0.201403 0.162093 -0.856076
v 0.241206 0.220210 -0.832087
v 0.236187 0.152959 -0.888555
v 0.247895 0.156253 -0.822232
v 0.201403 0.162093 -0.856076
v 0.236187 0.152959 -0.888555
v 0.270410 0.185225 -0.829968
v 0.247895 0.156253 -0.822232
v 0.214818 -0.000136 -0.679828
v 0.155388 0.033453 -0.542479
v 0.328816 0.011186 -0.612724
v 0.155388 0.033453 -0.542479
v 0.214818 -0.000136 -0.679828
v 0.111743 -0.005152 -0.677559
v -0.300783 0.006333 -0.544319
v -0.052195 0.000022 -0.628953
v -0.297743 -0.008975 -0.614631
v 0.155388 0.033453 -0.542479
v 0.111743 -0.005152 -0.677559
v -0.052195 0.000022 -0.628953
v 0.214687 0.162796 -0.696626
v 0.201403 0.162093 -0.856076
v 0.247895 0.156253 -0.822232
v -0.135349 0.024626 -0.486884
v -0.052195 0.000022 -0.628953
v -0.300783 0.006333 -0.544319
v 0.582365 0.006494 -0.556373
v 0.771395 -0.003864 -0.420270
v 0.697314 -0.006808 -0.631565
v -0.300783 0.006333 -0.544319
v -0.297743 -0.008975 -0.614631
v -0.493210 -0.000527 -0.501669
v -0.528528 0.134458 -0.732383
v -0.511038 0.178677 -0.683701
v -0.496685 0.143451 -0.735670
v -0.528528 0.134458 -0.732383
v -0.487315 0.122662 -0.688115
v -0.532908 0.137682 -0.680966
v -0.528528 0.134458 -0.732383
v -0.496685 0.143451 -0.735670
v -0.487315 0.122662 -0.688115
v 0.241206 0.220210 -0.832087
v 0.262143 0.227706 -0.720322
v 0.270410 0.185225 -0.829968
v 0.166421 0.219589 -0.741612
v 0.241206 0.220210 -0.832087
v 0.201403 0.162093 -0.856076
v 0.201403 0.162093 -0.856076
v 0.214687 0.162796 -0.696626
v 0.166421 0.219589 -0.741612
v 0.247895 0.156253 -0.822232
v 0.262143 0.227706 -0.720322
v 0.214687 0.162796 -0.696626
v 0.262143 0.227706 -0.720322
v 0.247895 0.156253 -0.822232
v 0.270410 0.185225 -0.829968
v 0.341718 0.049051 -0.416333
v 0.582365 0.006494 -0.556373
v 0.328816 0.011186 -0.612724
v 0.341718 0.049051 -0.416333
v 0.328816 0.011186 -0.612724
v 0.155388 0.033453 -0.542479
v 0.155388 0.033453 -0.542479
v -0.052195 0.000022 -0.628953
v -0.135349 0.024626 -0.486884
v -0.528528 0.134458 -0.732383
v -0.532908 0.137682 -0.680966
v -0.511038 0.178677 -0.683701
v -0.460967 0.126183 -0.570697
v -0.532908 0.137682 -0.680966
v -0.487315 0.122662 -0.688115
v -0.424128 0.177115 -0.588567
v -0.487315 0.122662 -0.688115
v -0.496685 0.143451 -0.735670
v 0.241206 0.220210 -0.832087
v 0.166421 0.219589 -0.741612
v 0.221748 0.284740 -0.710730
v -0.414410 0.032842 -0.422168
v -0.135349 0.024626 -0.486884
v -0.300783 0.006333 -0.544319
v -0.414410 0.032842 -0.422168
v -0.300783 0.006333 -0.544319
v -0.493210 -0.000527 -0.501669
v -0.511038 0.178677 -0.683701
v -0.424128 0.177115 -0.588567
v -0.496685 0.143451 -0.735670
v -0.515889 0.184183 -0.568107
v -0.511038 0.178677 -0.683701
v -0.532908 0.137682 -0.680966
v -0.487315 0.122662 -0.688115
v -0.424128 0.177115 -0.588567
v -0.460967 0.126183 -0.570697
v 0.241206 0.220210 -0.832087
v 0.221748 0.284740 -0.710730
v 0.262143 0.227706 -0.720322
v 0.214687 0.162796 -0.696626
v 0.164030 0.189309 -0.576903
v 0.166421 0.219589 -0.741612
v 0.155388 0.033453 -0.542479
v -0.135349 0.024626 -0.486884
v 0.070160 0.078114 -0.387328
v -0.414410 0.032842 -0.422168
v -0.493210 -0.000527 -0.501669
v -0.595120 0.009214 -0.327135
v 0.771395 -0.003864 -0.420270
v 0.582365 0.006494 -0.556373
v 0.604035 0.028781 -0.264292
v -0.532908 0.137682 -0.680966
v -0.460967 0.126183 -0.570697
v -0.515889 0.184183 -0.568107
v 0.164030 0.189309 -0.576903
v 0.221748 0.284740 -0.710730
v 0.166421 0.219589 -0.741612
v 0.214687 0.162796 -0.696626
v 0.234528 0.135471 -0.543520
v 0.164030 0.189309 -0.576903
v 0.214687 0.162796 -0.696626
v 0.266724 0.190487 -0.542036
v 0.234528 0.135471 -0.543520
v 0.266724 0.190487 -0.542036
v 0.214687 0.162796 -0.696626
v 0.262143 0.227706 -0.720322
v 0.218754 0.095669 -0.497112
v 0.155388 0.033453 -0.542479
v 0.168941 0.147801 -0.464781
v 0.218754 0.095669 -0.497112
v 0.341718 0.049051 -0.416333
v 0.155388 0.033453 -0.542479
v 0.341718 0.049051 -0.416333
v 0.604035 0.028781 -0.264292
v 0.582365 0.006494 -0.556373
v -0.414410 0.032842 -0.422168
v -0.214433 0.046172 -0.358120
v -0.135349 0.024626 -0.486884
v 0.070160 0.078114 -0.387328
v -0.135349 0.024626 -0.486884
v -0.214433 0.046172 -0.358120
v -0.511038 0.178677 -0.683701
v -0.446248 0.220355 -0.533083
v -0.424128 0.177115 -0.588567
v -0.511038 0.178677 -0.683701
v -0.515889 0.184183 -0.568107
v -0.446248 0.220355 -0.533083
v -0.460967 0.126183 -0.570697
v -0.395504 0.097653 -0.466909
v -0.453074 0.158737 -0.445100
v -0.460967 0.126183 -0.570697
v -0.453074 0.158737 -0.445100
v -0.515889 0.184183 -0.568107
v -0.460967 0.126183 -0.570697
v -0.372556 0.142590 -0.482770
v -0.395504 0.097653 -0.466909
v -0.372556 0.142590 -0.482770
v -0.460967 0.126183 -0.570697
v -0.424128 0.177115 -0.588567
v 0.221748 0.284740 -0.710730
v 0.232223 0.251640 -0.505813
v 0.262143 0.227706 -0.720322
v 0.164030 0.189309 -0.576903
v 0.218754 0.095669 -0.497112
v 0.168941 0.147801 -0.464781
v 0.218754 0.095669 -0.497112
v 0.164030 0.189309 -0.576903
v 0.234528 0.135471 -0.543520
v 0.168941 0.147801 -0.464781
v 0.155388 0.033453 -0.542479
v 0.070160 0.078114 -0.387328
v -0.424128 0.177115 -0.588567
v -0.377943 0.190877 -0.417461
v -0.372556 0.142590 -0.482770
v -0.453074 0.158737 -0.445100
v -0.446248 0.220355 -0.533083
v -0.515889 0.184183 -0.568107
v -0.391190 0.073859 -0.419986
v -0.453074 0.158737 -0.445100
v -0.395504 0.097653 -0.466909
v -0.395504 0.097653 -0.466909
v -0.320199 0.101052 -0.380003
v -0.391190 0.073859 -0.419986
v -0.320199 0.101052 -0.380003
v -0.395504 0.097653 -0.466909
v -0.372556 0.142590 -0.482770
v -0.391190 0.073859 -0.419986
v -0.414410 0.032842 -0.422168
v -0.427089 0.121297 -0.318442
v 0.262143 0.227706 -0.720322
v 0.232223 0.251640 -0.505813
v 0.266724 0.190487 -0.542036
v 0.221748 0.284740 -0.710730
v 0.164030 0.189309 -0.576903
v 0.232223 0.251640 -0.505813
v 0.234528 0.135471 -0.543520
v 0.257159 0.141072 -0.407807
v 0.218754 0.095669 -0.497112
v 0.257159 0.141072 -0.407807
v 0.234528 0.135471 -0.543520
v 0.266724 0.190487 -0.542036
v 0.341718 0.049051 -0.416333
v 0.218754 0.095669 -0.497112
v 0.257159 0.141072 -0.407807
v -0.391190 0.073859 -0.419986
v -0.214433 0.046172 -0.358120
v -0.414410 0.032842 -0.422168
v -0.214433 0.046172 -0.358120
v -0.391190 0.073859 -0.419986
v -0.320199 0.101052 -0.380003
v 0.046139 0.064669 -0.259267
v 0.070160 0.078114 -0.387328
v -0.214433 0.046172 -0.358120
v 0.341718 0.049051 -0.416333
v 0.389243 0.065897 -0.226290
v 0.604035 0.028781 -0.264292
v -0.460993 0.064733 -0.216548
v -0.414410 0.032842 -0.422168
v -0.595120 0.009214 -0.327135
v 0.604035 0.028781 -0.264292
v 0.736289 0.010431 -0.123152
v 0.771395 -0.003864 -0.420270
v -0.446248 0.220355 -0.533083
v -0.377943 0.190877 -0.417461
v -0.424128 0.177115 -0.588567
v -0.446248 0.220355 -0.533083
v -0.453074 0.158737 -0.445100
v -0.377943 0.190877 -0.417461
v -0.377943 0.190877 -0.417461
v -0.320199 0.101052 -0.380003
v -0.372556 0.142590 -0.482770
v -0.453074 0.158737 -0.445100
v -0.391190 0.073859 -0.419986
v -0.427089 0.121297 -0.318442
v 0.232223 0.251640 -0.505813
v 0.257159 0.141072 -0.407807
v 0.266724 0.190487 -0.542036
v 0.168941 0.147801 -0.464781
v 0.232223 0.251640 -0.505813
v 0.164030 0.189309 -0.576903
v 0.257159 0.141072 -0.407807
v 0.230447 0.089521 -0.303435
v 0.341718 0.049051 -0.416333
v 0.070160 0.078114 -0.387328
v 0.202439 0.180146 -0.388100
v 0.168941 0.147801 -0.464781
v 0.341718 0.049051 -0.416333
v 0.230447 0.089521 -0.303435
v 0.389243 0.065897 -0.226290
v 0.046139 0.064669 -0.259267
v 0.230447 0.089521 -0.303435
v 0.070160 0.078114 -0.387328
v -0.377943 0.190877 -0.417461
v -0.360026 0.119556 -0.263010
v -0.320199 0.101052 -0.380003
v -0.427089 0.121297 -0.318442
v -0.377943 0.190877 -0.417461
v -0.453074 0.158737 -0.445100
v 0.232223 0.251640 -0.505813
v 0.202439 0.180146 -0.388100
v 0.257159 0.141072 -0.407807
v 0.232223 0.251640 -0.505813
v 0.168941 0.147801 -0.464781
v 0.202439 0.180146 -0.388100
v -0.427089 0.121297 -0.318442
v -0.414410 0.032842 -0.422168
v -0.460993 0.064733 -0.216548
v -0.320199 0.101052 -0.380003
v -0.293960 0.068815 -0.207276
v -0.214433 0.046172 -0.358120
v 0.230447 0.089521 -0.303435
v 0.257159 0.141072 -0.407807
v 0.202439 0.180146 -0.388100
v 0.202439 0.180146 -0.388100
v 0.070160 0.078114 -0.387328
v 0.230447 0.089521 -0.303435
v 0.046139 0.064669 -0.259267
v 0.199615 0.081901 -0.215020
v 0.230447 0.089521 -0.303435
v 0.046139 0.064669 -0.259267
v -0.214433 0.046172 -0.358120
v -0.144191 0.067064 -0.158668
v -0.460993 0.064733 -0.216548
v -0.595120 0.009214 -0.327135
v -0.619843 0.027161 -0.109957
v -0.293960 0.068815 -0.207276
v -0.144191 0.067064 -0.158668
v -0.214433 0.046172 -0.358120
v 0.230447 0.089521 -0.303435
v 0.199615 0.081901 -0.215020
v 0.389243 0.065897 -0.226290
v -0.619843 0.027161 -0.109957
v -0.595120 0.009214 -0.327135
v -0.732913 -0.004166 -0.178033
v -0.377943 0.190877 -0.417461
v -0.427089 0.121297 -0.318442
v -0.360026 0.119556 -0.263010
v -0.460993 0.064733 -0.216548
v -0.360026 0.119556 -0.263010
v -0.427089 0.121297 -0.318442
v -0.293960 0.068815 -0.207276
v -0.320199 0.101052 -0.380003
v -0.360026 0.119556 -0.263010
v 0.046139 0.064669 -0.259267
v -0.144191 0.067064 -0.158668
v 0.024475 0.086185 -0.140560
v 0.046139 0.064669 -0.259267
v 0.024475 0.086185 -0.140560
v 0.199615 0.081901 -0.215020
v 0.548143 0.068528 -0.091134
v 0.604035 0.028781 -0.264292
v 0.389243 0.065897 -0.226290
v -0.460993 0.064733 -0.216548
v -0.370738 0.061193 -0.116628
v -0.293960 0.068815 -0.207276
v 0.548143 0.068528 -0.091134
v 0.736289 0.010431 -0.123152
v 0.604035 0.028781 -0.264292
v -0.360026 0.119556 -0.263010
v -0.460993 0.064733 -0.216548
v -0.293960 0.068815 -0.207276
v 0.356125 0.114322 -0.127953
v 0.389243 0.065897 -0.226290
v 0.199615 0.081901 -0.215020
v -0.241692 0.071396 -0.077645
v -0.144191 0.067064 -0.158668
v -0.293960 0.068815 -0.207276
v -0.460993 0.064733 -0.216548
v -0.619843 0.027161 -0.109957
v -0.512534 0.050440 -0.052464
v -0.241692 0.071396 -0.077645
v -0.293960 0.068815 -0.207276
v -0.370738 0.061193 -0.116628
v -0.460993 0.064733 -0.216548
v -0.512534 0.050440 -0.052464
v -0.370738 0.061193 -0.116628
v 0.356125 0.114322 -0.127953
v 0.548143 0.068528 -0.091134
v 0.389243 0.065897 -0.226290
v -0.760346 0.000798 0.043406
v -0.619843 0.027161 -0.109957
v -0.732913 -0.004166 -0.178033
v 0.356125 0.114322 -0.127953
v 0.199615 0.081901 -0.215020
v 0.184862 0.098412 -0.097777
v 0.024475 0.086185 -0.140560
v 0.184862 0.098412 -0.097777
v 0.199615 0.081901 -0.215020
v -0.115073 0.110634 -0.030608
v 0.024475 0.086185 -0.140560
v -0.144191 0.067064 -0.158668
v 0.661820 0.024078 0.028381
v 0.736289 0.010431 -0.123152
v 0.548143 0.068528 -0.091134
v -0.241692 0.071396 -0.077645
v -0.115073 0.110634 -0.030608
v -0.144191 0.067064 -0.158668
v -0.241692 0.071396 -0.077645
v -0.370738 0.061193 -0.116628
v -0.397559 0.071885 0.042591
v 0.063012 0.100657 -0.035079
v 0.184862 0.098412 -0.097777
v 0.024475 0.086185 -0.140560
v -0.370738 0.061193 -0.116628
v -0.512534 0.050440 -0.052464
v -0.397559 0.071885 0.042591
v -0.512534 0.050440 -0.052464
v -0.619843 0.027161 -0.109957
v -0.638351 0.022997 0.081827
v -0.760346 0.000798 0.043406
v -0.638351 0.022997 0.081827
v -0.619843 0.027161 -0.109957
v 0.661820 0.024078 0.028381
v 0.736377 -0.002756 0.062354
v 0.736289 0.010431 -0.123152
v 0.442993 0.178572 -0.076231
v 0.548143 0.068528 -0.091134
v 0.356125 0.114322 -0.127953
v 0.661820 0.024078 0.028381
v 0.548143 0.068528 -0.091134
v 0.507986 0.062322 0.092159
v 0.063012 0.100657 -0.035079
v 0.024475 0.086185 -0.140560
v -0.115073 0.110634 -0.030608
v 0.356125 0.114322 -0.127953
v 0.184862 0.098412 -0.097777
v 0.352454 0.110025 0.032714
v 0.063012 0.100657 -0.035079
v 0.177724 0.094962 0.028045
v 0.184862 0.098412 -0.097777
v 0.548143 0.068528 -0.091134
v 0.442993 0.178572 -0.076231
v 0.534043 0.131956 0.006795
v -0.241692 0.071396 -0.077645
v -0.397559 0.071885 0.042591
v -0.225416 0.094098 0.081491
v -0.508919 0.044472 0.182881
v -0.512534 0.050440 -0.052464
v -0.638351 0.022997 0.081827
v -0.241692 0.071396 -0.077645
v -0.225416 0.094098 0.081491
v -0.115073 0.110634 -0.030608
v 0.063012 0.100657 -0.035079
v -0.115073 0.110634 -0.030608
v 0.025128 0.115034 0.052727
v -0.508919 0.044472 0.182881
v -0.397559 0.071885 0.042591
v -0.512534 0.050440 -0.052464
v 0.063012 0.100657 -0.035079
v 0.025128 0.115034 0.052727
v 0.177724 0.094962 0.028045
v 0.184862 0.098412 -0.097777
v 0.177724 0.094962 0.028045
v 0.352454 0.110025 0.032714
v 0.661820 0.024078 0.028381
v 0.507986 0.062322 0.092159
v 0.658008 0.002772 0.187134
v 0.661820 0.024078 0.028381
v 0.658008 0.002772 0.187134
v 0.736377 -0.002756 0.062354
v -0.638351 0.022997 0.081827
v -0.760346 0.000798 0.043406
v -0.736675 -0.001412 0.222187
v 0.534043 0.131956 0.006795
v 0.507986 0.062322 0.092159
v 0.548143 0.068528 -0.091134
v 0.442993 0.178572 -0.076231
v 0.356125 0.114322 -0.127953
v 0.421630 0.175982 0.018511
v 0.421630 0.175982 0.018511
v 0.356125 0.114322 -0.127953
v 0.352454 0.110025 0.032714
v 0.300961 0.079424 0.126702
v 0.507986 0.062322 0.092159
v 0.352454 0.110025 0.032714
v 0.300961 0.079424 0.126702
v 0.352454 0.110025 0.032714
v 0.177724 0.094962 0.028045
v 0.177724 0.094962 0.028045
v 0.025128 0.115034 0.052727
v 0.066806 0.082452 0.146180
v 0.536368 0.249668 -0.060084
v 0.534043 0.131956 0.006795
v 0.442993 0.178572 -0.076231
v 0.507986 0.062322 0.092159
v 0.534043 0.131956 0.006795
v 0.482347 0.130280 0.083619
v 0.482347 0.130280 0.083619
v 0.352454 0.110025 0.032714
v 0.507986 0.062322 0.092159
v -0.084919 0.215959 0.040952
v 0.025128 0.115034 0.052727
v -0.115073 0.110634 -0.030608
v -0.508919 0.044472 0.182881
v -0.638351 0.022997 0.081827
v -0.583661 0.010039 0.316616
v -0.129893 0.084575 0.185078
v 0.066806 0.082452 0.146180
v 0.025128 0.115034 0.052727
v 0.300961 0.079424 0.126702
v 0.177724 0.094962 0.028045
v 0.066806 0.082452 0.146180
v -0.298648 0.081573 0.193966
v -0.225416 0.094098 0.081491
v -0.397559 0.071885 0.042591
v -0.736675 -0.001412 0.222187
v -0.583661 0.010039 0.316616
v -0.638351 0.022997 0.081827
v 0.507986 0.062322 0.092159
v 0.547363 0.009342 0.323203
v 0.658008 0.002772 0.187134
v 0.538187 0.176339 0.093505
v 0.482347 0.130280 0.083619
v 0.534043 0.131956 0.006795
v 0.538187 0.176339 0.093505
v 0.534043 0.131956 0.006795
v 0.604348 0.198983 0.008546
v 0.492782 0.256062 0.032170
v 0.442993 0.178572 -0.076231
v 0.421630 0.175982 0.018511
v 0.442993 0.178572 -0.076231
v 0.492782 0.256062 0.032170
v 0.536368 0.249668 -0.060084
v 0.534043 0.131956 0.006795
v 0.536368 0.249668 -0.060084
v 0.604348 0.198983 0.008546
v -0.084919 0.215959 0.040952
v -0.115073 0.110634 -0.030608
v -0.165880 0.175201 0.100975
v 0.352454 0.110025 0.032714
v 0.482347 0.130280 0.083619
v 0.421630 0.175982 0.018511
v -0.165880 0.175201 0.100975
v -0.115073 0.110634 -0.030608
v -0.225416 0.094098 0.081491
v -0.496829 0.106604 0.211809
v -0.397559 0.071885 0.042591
v -0.508919 0.044472 0.182881
v 0.300961 0.079424 0.126702
v 0.066806 0.082452 0.146180
v 0.180221 0.092863 0.233377
v -0.129893 0.084575 0.185078
v -0.225416 0.094098 0.081491
v -0.298648 0.081573 0.193966
v 0.300961 0.079424 0.126702
v 0.389211 0.077945 0.240788
v 0.507986 0.062322 0.092159
v 0.507986 0.062322 0.092159
v 0.389211 0.077945 0.240788
v 0.547363 0.009342 0.323203
v 0.626561 0.296062 0.024568
v 0.604348 0.198983 0.008546
v 0.536368 0.249668 -0.060084
v 0.538187 0.176339 0.093505
v 0.421630 0.175982 0.018511
v 0.482347 0.130280 0.083619
v 0.421630 0.175982 0.018511
v 0.538187 0.176339 0.093505
v 0.492782 0.256062 0.032170
v -0.033610 0.185294 0.114672
v -0.129893 0.084575 0.185078
v 0.025128 0.115034 0.052727
v 0.025128 0.115034 0.052727
v -0.084919 0.215959 0.040952
v -0.033610 0.185294 0.114672
v -0.129027 0.131506 0.168757
v -0.225416 0.094098 0.081491
v -0.129893 0.084575 0.185078
v -0.225416 0.094098 0.081491
v -0.129027 0.131506 0.168757
v -0.165880 0.175201 0.100975
v -0.459529 0.144317 0.143848
v -0.397559 0.071885 0.042591
v -0.496829 0.106604 0.211809
v -0.459529 0.144317 0.143848
v -0.298648 0.081573 0.193966
v -0.397559 0.071885 0.042591
v -0.129893 0.084575 0.185078
v -0.058878 0.060080 0.296476
v 0.066806 0.082452 0.146180
v -0.508919 0.044472 0.182881
v -0.583661 0.010039 0.316616
v -0.382366 0.054141 0.328300
v -0.129893 0.084575 0.185078
v -0.298648 0.081573 0.193966
v -0.227804 0.045254 0.345528
v 0.300961 0.079424 0.126702
v 0.180221 0.092863 0.233377
v 0.389211 0.077945 0.240788
v 0.180221 0.092863 0.233377
v 0.066806 0.082452 0.146180
v -0.058878 0.060080 0.296476
v -0.661597 -0.005468 0.433446
v -0.583661 0.010039 0.316616
v -0.736675 -0.001412 0.222187
v 0.668683 0.235384 0.096069
v 0.538187 0.176339 0.093505
v 0.604348 0.198983 0.008546
v 0.626561 0.296062 0.024568
v 0.536368 0.249668 -0.060084
v 0.492782 0.256062 0.032170
v 0.604348 0.198983 0.008546
v 0.626561 0.296062 0.024568
v 0.668683 0.235384 0.096069
v -0.129893 0.084575 0.185078
v -0.033610 0.185294 0.114672
v -0.129027 0.131506 0.168757
v -0.129893 0.084575 0.185078
v -0.227804 0.045254 0.345528
v -0.058878 0.060080 0.296476
v -0.382366 0.054141 0.328300
v -0.227804 0.045254 0.345528
v -0.298648 0.081573 0.193966
v 0.547363 0.009342 0.323203
v 0.389211 0.077945 0.240788
v 0.360791 0.026847 0.448527
v 0.712432 0.281311 0.076733
v 0.668683 0.235384 0.096069
v 0.626561 0.296062 0.024568
v 0.668683 0.235384 0.096069
v 0.712432 0.281311 0.076733
v 0.697040 0.252347 0.085973
v 0.640579 0.234623 0.152182
v 0.538187 0.176339 0.093505
v 0.668683 0.235384 0.096069
v 0.640579 0.234623 0.152182
v 0.492782 0.256062 0.032170
v 0.538187 0.176339 0.093505
v 0.626561 0.296062 0.024568
v 0.492782 0.256062 0.032170
v 0.634262 0.286479 0.119302
v -0.086685 0.210781 0.228555
v -0.129027 0.131506 0.168757
v -0.033610 0.185294 0.114672
v -0.086685 0.210781 0.228555
v -0.165880 0.175201 0.100975
v -0.129027 0.131506 0.168757
v -0.136389 0.289671 0.205619
v -0.084919 0.215959 0.040952
v -0.165880 0.175201 0.100975
v -0.569007 0.189712 0.239555
v -0.459529 0.144317 0.143848
v -0.496829 0.106604 0.211809
v -0.424404 0.102197 0.343062
v -0.508919 0.044472 0.182881
v -0.382366 0.054141 0.328300
v -0.508919 0.044472 0.182881
v -0.424404 0.102197 0.343062
v -0.496829 0.106604 0.211809
v -0.298648 0.081573 0.193966
v -0.459529 0.144317 0.143848
v -0.407190 0.172903 0.274354
v 0.115080 0.045530 0.389553
v 0.180221 0.092863 0.233377
v -0.058878 0.060080 0.296476
v -0.227804 0.045254 0.345528
v -0.382366 0.054141 0.328300
v -0.386310 0.018765 0.471089
v 0.115080 0.045530 0.389553
v -0.058878 0.060080 0.296476
v -0.086154 0.038495 0.392726
v -0.227804 0.045254 0.345528
v -0.086154 0.038495 0.392726
v -0.058878 0.060080 0.296476
v -0.386310 0.018765 0.471089
v -0.382366 0.054141 0.328300
v -0.583661 0.010039 0.316616
v -0.512431 -0.000007 0.530178
v -0.583661 0.010039 0.316616
v -0.661597 -0.005468 0.433446
v 0.696678 0.265387 0.094959
v 0.719305 0.253552 0.131514
v 0.697040 0.252347 0.085973
v 0.696678 0.265387 0.094959
v 0.694965 0.287405 0.098985
v 0.719305 0.253552 0.131514
v 0.696678 0.265387 0.094959
v 0.712432 0.281311 0.076733
v 0.694965 0.287405 0.098985
v 0.696678 0.265387 0.094959
v 0.697040 0.252347 0.085973
v 0.712432 0.281311 0.076733
v 0.719305 0.253552 0.131514
v 0.640579 0.234623 0.152182
v 0.668683 0.235384 0.096069
v 0.719305 0.253552 0.131514
v 0.668683 0.235384 0.096069
v 0.697040 0.252347 0.085973
v 0.719305 0.253552 0.131514
v 0.634262 0.286479 0.119302
v 0.640579 0.234623 0.152182
v 0.634262 0.286479 0.119302
v 0.719305 0.253552 0.131514
v 0.694965 0.287405 0.098985
v 0.694965 0.287405 0.098985
v 0.626561 0.296062 0.024568
v 0.634262 0.286479 0.119302
v 0.626561 0.296062 0.024568
v 0.694965 0.287405 0.098985
v 0.712432 0.281311 0.076733
v 0.492782 0.256062 0.032170
v 0.640579 0.234623 0.152182
v 0.634262 0.286479 0.119302
v -0.069471 0.331487 0.159611
v -0.033610 0.185294 0.114672
v -0.084919 0.215959 0.040952
v -0.459529 0.144317 0.143848
v -0.569007 0.189712 0.239555
v -0.533085 0.261587 0.208618
v -0.533085 0.261587 0.208618
v -0.407190 0.172903 0.274354
v -0.459529 0.144317 0.143848
v 0.275119 0.184240 0.313476
v 0.389211 0.077945 0.240788
v 0.180221 0.092863 0.233377
v -0.407190 0.172903 0.274354
v -0.382366 0.054141 0.328300
v -0.298648 0.081573 0.193966
v 0.115080 0.045530 0.389553
v -0.086154 0.038495 0.392726
v 0.004181 0.017897 0.479690
v -0.227804 0.045254 0.345528
v -0.190754 0.018130 0.543534
v -0.086154 0.038495 0.392726
v -0.583661 0.010039 0.316616
v -0.512431 -0.000007 0.530178
v -0.386310 0.018765 0.471089
v 0.360791 0.026847 0.448527
v 0.476501 -0.004849 0.511703
v 0.547363 0.009342 0.323203
v -0.086685 0.210781 0.228555
v -0.033610 0.185294 0.114672
v -0.009177 0.279759 0.218763
v -0.165880 0.175201 0.100975
v -0.086685 0.210781 0.228555
v -0.136389 0.289671 0.205619
v -0.084919 0.215959 0.040952
v -0.136389 0.289671 0.205619
v -0.069471 0.331487 0.159611
v -0.033610 0.185294 0.114672
v -0.069471 0.331487 0.159611
v -0.009177 0.279759 0.218763
v -0.486518 0.194185 0.342991
v -0.496829 0.106604 0.211809
v -0.424404 0.102197 0.343062
v -0.496829 0.106604 0.211809
v -0.486518 0.194185 0.342991
v -0.569007 0.189712 0.239555
v -0.382366 0.054141 0.328300
v -0.407190 0.172903 0.274354
v -0.424404 0.102197 0.343062
v 0.347634 0.138714 0.417851
v 0.360791 0.026847 0.448527
v 0.389211 0.077945 0.240788
v 0.275119 0.184240 0.313476
v 0.180221 0.092863 0.233377
v 0.210599 0.124573 0.393482
v 0.210599 0.124573 0.393482
v 0.180221 0.092863 0.233377
v 0.115080 0.045530 0.389553
v 0.389211 0.077945 0.240788
v 0.275119 0.184240 0.313476
v 0.347634 0.138714 0.417851
v 0.115080 0.045530 0.389553
v 0.004181 0.017897 0.479690
v 0.198617 0.007130 0.522188
v -0.227804 0.045254 0.345528
v -0.386310 0.018765 0.471089
v -0.190754 0.018130 0.543534
v 0.115080 0.045530 0.389553
v 0.198617 0.007130 0.522188
v 0.360791 0.026847 0.448527
v -0.086154 0.038495 0.392726
v -0.190754 0.018130 0.543534
v 0.004181 0.017897 0.479690
v -0.569007 0.189712 0.239555
v -0.612339 0.189308 0.377935
v -0.661239 0.179060 0.324287
v -0.678466 0.257984 0.307084
v -0.533085 0.261587 0.208618
v -0.569007 0.189712 0.239555
v -0.486518 0.194185 0.342991
v -0.424404 0.102197 0.343062
v -0.407190 0.172903 0.274354
v 0.287565 0.072826 0.447451
v 0.115080 0.045530 0.389553
v 0.360791 0.026847 0.448527
v 0.115080 0.045530 0.389553
v 0.287565 0.072826 0.447451
v 0.210599 0.124573 0.393482
v -0.386310 0.018765 0.471089
v -0.512431 -0.000007 0.530178
v -0.372019 0.004405 0.616505
v 0.360791 0.026847 0.448527
v 0.198617 0.007130 0.522188
v 0.279341 -0.004506 0.600764
v 0.360791 0.026847 0.448527
v 0.279341 -0.004506 0.600764
v 0.476501 -0.004849 0.511703
v -0.190754 0.018130 0.543534
v 0.005638 -0.001391 0.642072
v 0.004181 0.017897 0.479690
v -0.372019 0.004405 0.616505
v -0.190754 0.018130 0.543534
v -0.386310 0.018765 0.471089
v 0.198617 0.007130 0.522188
v 0.004181 0.017897 0.479690
v 0.005638 -0.001391 0.642072
v -0.052114 0.241566 0.405411
v -0.086685 0.210781 0.228555
v -0.009177 0.279759 0.218763
v -0.114695 0.236337 0.356712
v -0.136389 0.289671 0.205619
v -0.086685 0.210781 0.228555
v -0.778615 0.149397 0.407873
v -0.762277 0.164234 0.369563
v -0.764018 0.149436 0.415867
v -0.764018 0.149436 0.415867
v -0.661239 0.179060 0.324287
v -0.612339 0.189308 0.377935
v -0.661239 0.179060 0.324287
v -0.764018 0.149436 0.415867
v -0.762277 0.164234 0.369563
v -0.762277 0.164234 0.369563
v -0.678466 0.257984 0.307084
v -0.661239 0.179060 0.324287
v -0.612339 0.189308 0.377935
v -0.569007 0.189712 0.239555
v -0.486518 0.194185 0.342991
v -0.678466 0.257984 0.307084
v -0.569007 0.189712 0.239555
v -0.661239 0.179060 0.324287
v -0.486518 0.194185 0.342991
v -0.407190 0.172903 0.274354
v -0.503232 0.287016 0.304635
v -0.407190 0.172903 0.274354
v -0.533085 0.261587 0.208618
v -0.503232 0.287016 0.304635
v 0.360791 0.026847 0.448527
v 0.347634 0.138714 0.417851
v 0.287565 0.072826 0.447451
v 0.198617 0.007130 0.522188
v 0.005638 -0.001391 0.642072
v 0.279341 -0.004506 0.600764
v -0.114695 0.236337 0.356712
v -0.086685 0.210781 0.228555
v -0.052114 0.241566 0.405411
v -0.084291 0.339429 0.375137
v -0.069471 0.331487 0.159611
v -0.136389 0.289671 0.205619
v -0.084291 0.339429 0.375137
v -0.009177 0.279759 0.218763
v -0.069471 0.331487 0.159611
v -0.778615 0.149397 0.407873
v -0.764018 0.149436 0.415867
v -0.757884 0.189383 0.403217
v -0.778615 0.149397 0.407873
v -0.754661 0.204273 0.377860
v -0.762277 0.164234 0.369563
v -0.778615 0.149397 0.407873
v -0.757884 0.189383 0.403217
v -0.754661 0.204273 0.377860
v -0.764018 0.149436 0.415867
v -0.612339 0.189308 0.377935
v -0.670686 0.240343 0.388819
v -0.764018 0.149436 0.415867
v -0.670686 0.240343 0.388819
v -0.757884 0.189383 0.403217
v -0.678466 0.257984 0.307084
v -0.762277 0.164234 0.369563
v -0.754661 0.204273 0.377860
v -0.612339 0.189308 0.377935
v -0.486518 0.194185 0.342991
v -0.670686 0.240343 0.388819
v -0.670686 0.240343 0.388819
v -0.486518 0.194185 0.342991
v -0.503232 0.287016 0.304635
v -0.678466 0.257984 0.307084
v -0.503232 0.287016 0.304635
v -0.533085 0.261587 0.208618
v 0.328327 0.143190 0.527451
v 0.287565 0.072826 0.447451
v 0.347634 0.138714 0.417851
v 0.328327 0.143190 0.527451
v 0.210599 0.124573 0.393482
v 0.287565 0.072826 0.447451
v 0.260398 0.214002 0.487792
v 0.275119 0.184240 0.313476
v 0.210599 0.124573 0.393482
v 0.308297 0.254815 0.442126
v 0.347634 0.138714 0.417851
v 0.275119 0.184240 0.313476
v -0.190754 0.018130 0.543534
v -0.372019 0.004405 0.616505
v -0.184372 -0.000225 0.690528
v -0.190754 0.018130 0.543534
v -0.184372 -0.000225 0.690528
v 0.005638 -0.001391 0.642072
v -0.136389 0.289671 0.205619
v -0.114695 0.236337 0.356712
v -0.156972 0.284565 0.410585
v -0.009177 0.279759 0.218763
v -0.084291 0.339429 0.375137
v -0.052114 0.241566 0.405411
v -0.754661 0.204273 0.377860
v -0.670686 0.240343 0.388819
v -0.678466 0.257984 0.307084
v -0.670686 0.240343 0.388819
v -0.754661 0.204273 0.377860
v -0.757884 0.189383 0.403217
v -0.503232 0.287016 0.304635
v -0.678466 0.257984 0.307084
v -0.670686 0.240343 0.388819
v 0.328327 0.143190 0.527451
v 0.347634 0.138714 0.417851
v 0.361962 0.203109 0.506757
v 0.210599 0.124573 0.393482
v 0.328327 0.143190 0.527451
v 0.260398 0.214002 0.487792
v 0.275119 0.184240 0.313476
v 0.260398 0.214002 0.487792
v 0.308297 0.254815 0.442126
v -0.116027 0.203123 0.536398
v -0.114695 0.236337 0.356712
v -0.052114 0.241566 0.405411
v -0.116027 0.203123 0.536398
v -0.156972 0.284565 0.410585
v -0.114695 0.236337 0.356712
v -0.084291 0.339429 0.375137
v -0.136389 0.289671 0.205619
v -0.156972 0.284565 0.410585
v 0.347634 0.138714 0.417851
v 0.308297 0.254815 0.442126
v 0.361962 0.203109 0.506757
v -0.116027 0.203123 0.536398
v -0.052114 0.241566 0.405411
v -0.076135 0.210121 0.533556
v 0.306935 0.164785 0.664183
v 0.260398 0.214002 0.487792
v 0.328327 0.143190 0.527451
v -0.139991 0.199309 0.580205
v -0.116027 0.203123 0.536398
v -0.076135 0.210121 0.533556
v -0.139991 0.199309 0.580205
v -0.136547 0.251152 0.543630
v -0.116027 0.203123 0.536398
v -0.139991 0.199309 0.580205
v -0.076135 0.210121 0.533556
v -0.102094 0.252308 0.577287
v -0.156972 0.284565 0.410585
v -0.116027 0.203123 0.536398
v -0.136547 0.251152 0.543630
v -0.136547 0.251152 0.543630
v -0.084291 0.339429 0.375137
v -0.156972 0.284565 0.410585
v -0.102094 0.252308 0.577287
v -0.052114 0.241566 0.405411
v -0.084291 0.339429 0.375137
v -0.052114 0.241566 0.405411
v -0.102094 0.252308 0.577287
v -0.076135 0.210121 0.533556
v 0.306935 0.164785 0.664183
v 0.328327 0.143190 0.527451
v 0.365334 0.181878 0.682044
v 0.365334 0.181878 0.682044
v 0.328327 0.143190 0.527451
v 0.361962 0.203109 0.506757
v 0.299188 0.254677 0.639243
v 0.308297 0.254815 0.442126
v 0.260398 0.214002 0.487792
v 0.299188 0.254677 0.639243
v 0.361962 0.203109 0.506757
v 0.308297 0.254815 0.442126
v -0.139991 0.199309 0.580205
v -0.102094 0.252308 0.577287
v -0.136547 0.251152 0.543630
v -0.084291 0.339429 0.375137
v -0.136547 0.251152 0.543630
v -0.102094 0.252308 0.577287
v 0.260398 0.214002 0.487792
v 0.306935 0.164785 0.664183
v 0.257080 0.202727 0.653480
v 0.299188 0.254677 0.639243
v 0.260398 0.214002 0.487792
v 0.257080 0.202727 0.653480
v 0.361962 0.203109 0.506757
v 0.299188 0.254677 0.639243
v 0.365334 0.181878 0.682044
v 0.331420 0.165376 0.797784
v 0.306935 0.164785 0.664183
v 0.365334 0.181878 0.682044
v 0.331420 0.165376 0.797784
v 0.257080 0.202727 0.653480
v 0.306935 0.164785 0.664183
v 0.297441 0.201375 0.799004
v 0.299188 0.254677 0.639243
v 0.257080 0.202727 0.653480
v 0.317942 0.217470 0.819538
v 0.365334 0.181878 0.682044
v 0.299188 0.254677 0.639243
v 0.331420 0.165376 0.797784
v 0.365334 0.181878 0.682044
v 0.374436 0.177444 0.810738
v 0.257080 0.202727 0.653480
v 0.331420 0.165376 0.797784
v 0.297441 0.201375 0.799004
v 0.299188 0.254677 0.639243
v 0.297441 0.201375 0.799004
v 0.317942 0.217470 0.819538
v 0.365334 0.181878 0.682044
v 0.317942 0.217470 0.819538
v 0.374436 0.177444 0.810738
v 0.320934 0.186470 0.819474
v 0.331420 0.165376 0.797784
v 0.374436 0.177444 0.810738
v 0.320934 0.186470 0.819474
v 0.297441 0.201375 0.799004
v 0.331420 0.165376 0.797784
v 0.320934 0.186470 0.819474
v 0.317942 0.217470 0.819538
v 0.297441 0.201375 0.799004
v 0.320934 0.186470 0.819474
v 0.374436 0.177444 0.810738
v 0.317942 0.217470 0.819538
vt 0.7695 0.8490
vt 0.8398 0.9948
vt 0.7383 0.9531
vt 0.7695 0.8490
vt 0.7383 0.9531
vt 0.6992 0.9115
vt 0.8398 0.9948
vt 0.8555 0.7760
vt 0.9102 0.9219
vt 0.8555 0.7760
vt 0.9805 0.8698
vt 0.9102 0.9219
vt 0.8555 0.7760
vt 0.8398 0.9948
vt 0.7695 0.8490
vt 0.6992 0.9531
vt 0.6992 0.9115
vt 0.7227 0.9219
vt 0.6992 0.9531
vt 0.6758 0.9323
vt 0.6992 0.9115
vt 0.6992 0.9531
vt 0.6992 0.9427
vt 0.6758 0.9323
vt 0.6992 0.9531
vt 0.7227 0.9219
vt 0.6992 0.9427
vt 0.6992 0.9115
vt 0.6523 0.8281
vt 0.7695 0.8490
vt 0.6523 0.8281
vt 0.6992 0.9115
vt 0.6211 0.9219
vt 0.3477 0.8490
vt 0.5195 0.8906
vt 0.3633 0.9115
vt 0.6523 0.8281
vt 0.6211 0.9219
vt 0.5195 0.8906
vt 0.6836 0.9115
vt 0.6758 0.9323
vt 0.6992 0.9427
vt 0.4570 0.8177
vt 0.5195 0.8906
vt 0.3477 0.8490
vt 0.8555 0.7760
vt 0.9883 0.7344
vt 0.9805 0.8698
vt 0.3477 0.8490
vt 0.3633 0.9115
vt 0.2227 0.8490
vt 0.2070 0.9323
vt 0.2148 0.9115
vt 0.2148 0.9323
vt 0.2070 0.9323
vt 0.2148 0.9427
vt 0.1992 0.9219
vt 0.2070 0.9323
vt 0.2148 0.9323
vt 0.2148 0.9427
vt 0.6992 0.9115
vt 0.7070 0.8594
vt 0.7227 0.9219
vt 0.6523 0.8594
vt 0.6992 0.9115
vt 0.6758 0.9323
vt 0.6758 0.9323
vt 0.6836 0.9115
vt 0.6523 0.8594
vt 0.6992 0.9427
vt 0.7070 0.8594
vt 0.6836 0.9115
vt 0.7070 0.8594
vt 0.6992 0.9427
vt 0.7227 0.9219
vt 0.7383 0.7552
vt 0.8555 0.7760
vt 0.7695 0.8490
vt 0.7383 0.7552
vt 0.7695 0.8490
vt 0.6523 0.8281
vt 0.6523 0.8281
vt 0.5195 0.8906
vt 0.4570 0.8177
vt 0.2070 0.9323
vt 0.1992 0.9219
vt 0.2148 0.9115
vt 0.2383 0.8802
vt 0.1992 0.9219
vt 0.2148 0.9427
vt 0.2773 0.8594
vt 0.2148 0.9427
vt 0.2148 0.9323
vt 0.6992 0.9115
vt 0.6523 0.8594
vt 0.6758 0.8177
vt 0.2695 0.8177
vt 0.4570 0.8177
vt 0.3477 0.8490
vt 0.2695 0.8177
vt 0.3477 0.8490
vt 0.2227 0.8490
vt 0.2148 0.9115
vt 0.2773 0.8594
vt 0.2148 0.9323
vt 0.2227 0.8177
vt 0.2148 0.9115
vt 0.1992 0.9219
vt 0.2148 0.9427
vt 0.2773 0.8594
vt 0.2383 0.8802
vt 0.6992 0.9115
vt 0.6758 0.8177
vt 0.7070 0.8594
vt 0.6836 0.9115
vt 0.6367 0.8177
vt 0.6523 0.8594
vt 0.6523 0.8281
vt 0.4570 0.8177
vt 0.5742 0.7656
vt 0.2695 0.8177
vt 0.2227 0.8490
vt 0.1367 0.7448
vt 0.9883 0.7344
vt 0.8555 0.7760
vt 0.8945 0.6302
vt 0.1992 0.9219
vt 0.2383 0.8802
vt 0.2227 0.8177
vt 0.6367 0.8177
vt 0.6758 0.8177
vt 0.6523 0.8594
vt 0.6836 0.9115
vt 0.6758 0.8698
vt 0.6367 0.8177
vt 0.6836 0.9115
vt 0.7148 0.8177
vt 0.6758 0.8698
vt 0.7148 0.8177
vt 0.6836 0.9115
vt 0.7070 0.8594
vt 0.6680 0.8385
vt 0.6523 0.8281
vt 0.6055 0.7760
vt 0.6680 0.8385
vt 0.7383 0.7552
vt 0.6523 0.8281
vt 0.7383 0.7552
vt 0.8945 0.6302
vt 0.8555 0.7760
vt 0.2695 0.8177
vt 0.3789 0.7552
vt 0.4570 0.8177
vt 0.5742 0.7656
vt 0.4570 0.8177
vt 0.3789 0.7552
vt 0.2148 0.9115
vt 0.2461 0.7969
vt 0.2773 0.8594
vt 0.2148 0.9115
vt 0.2227 0.8177
vt 0.2461 0.7969
vt 0.2383 0.8802
vt 0.2695 0.8385
vt 0.2461 0.7760
vt 0.2383 0.8802
vt 0.2461 0.7760
vt 0.2227 0.8177
vt 0.2383 0.8802
vt 0.3086 0.8073
vt 0.2695 0.8385
vt 0.3086 0.8073
vt 0.2383 0.8802
vt 0.2773 0.8594
vt 0.6758 0.8177
vt 0.6680 0.7448
vt 0.7070 0.8594
vt 0.6367 0.8177
vt 0.6680 0.8385
vt 0.6055 0.7760
vt 0.6680 0.8385
vt 0.6367 0.8177
vt 0.6758 0.8698
vt 0.6055 0.7760
vt 0.6523 0.8281
vt 0.5742 0.7656
vt 0.2773 0.8594
vt 0.2930 0.7344
vt 0.3086 0.8073
vt 0.2461 0.7760
vt 0.2461 0.7969
vt 0.2227 0.8177
vt 0.2930 0.8177
vt 0.2461 0.7760
vt 0.2695 0.8385
vt 0.2695 0.8385
vt 0.3398 0.7760
vt 0.2930 0.8177
vt 0.3398 0.7760
vt 0.2695 0.8385
vt 0.3086 0.8073
vt 0.2930 0.8177
vt 0.2695 0.8177
vt 0.2461 0.7240
vt 0.7070 0.8594
vt 0.6680 0.7448
vt 0.7148 0.8177
vt 0.6758 0.8177
vt 0.6367 0.8177
vt 0.6680 0.7448
vt 0.6758 0.8698
vt 0.7227 0.7760
vt 0.6680 0.8385
vt 0.7227 0.7760
vt 0.6758 0.8698
vt 0.7148 0.8177
vt 0.7383 0.7552
vt 0.6680 0.8385
vt 0.7227 0.7760
vt 0.2930 0.8177
vt 0.3789 0.7552
vt 0.2695 0.8177
vt 0.3789 0.7552
vt 0.2930 0.8177
vt 0.3398 0.7760
vt 0.5273 0.6719
vt 0.5742 0.7656
vt 0.3789 0.7552
vt 0.7383 0.7552
vt 0.7773 0.6406
vt 0.8945 0.6302
vt 0.2383 0.7031
vt 0.2695 0.8177
vt 0.1367 0.7448
vt 0.8945 0.6302
vt 0.9961 0.5469
vt 0.9883 0.7344
vt 0.2461 0.7969
vt 0.2930 0.7344
vt 0.2773 0.8594
vt 0.2461 0.7969
vt 0.2461 0.7760
vt 0.2930 0.7344
vt 0.2930 0.7344
vt 0.3398 0.7760
vt 0.3086 0.8073
vt 0.2461 0.7760
vt 0.2930 0.8177
vt 0.2461 0.7240
vt 0.6680 0.7448
vt 0.7227 0.7760
vt 0.7148 0.8177
vt 0.6055 0.7760
vt 0.6680 0.7448
vt 0.6367 0.8177
vt 0.7227 0.7760
vt 0.6602 0.6719
vt 0.7383 0.7552
vt 0.5742 0.7656
vt 0.6602 0.7031
vt 0.6055 0.7760
vt 0.7383 0.7552
vt 0.6602 0.6719
vt 0.7773 0.6406
vt 0.5273 0.6719
vt 0.6602 0.6719
vt 0.5742 0.7656
vt 0.2930 0.7344
vt 0.3086 0.6823
vt 0.3398 0.7760
vt 0.2461 0.7240
vt 0.2930 0.7344
vt 0.2461 0.7760
vt 0.6680 0.7448
vt 0.6602 0.7031
vt 0.7227 0.7760
vt 0.6680 0.7448
vt 0.6055 0.7760
vt 0.6602 0.7031
vt 0.2461 0.7240
vt 0.2695 0.8177
vt 0.2383 0.7031
vt 0.3398 0.7760
vt 0.3242 0.6406
vt 0.3789 0.7552
vt 0.6602 0.6719
vt 0.7227 0.7760
vt 0.6602 0.7031
vt 0.6602 0.7031
vt 0.5742 0.7656
vt 0.6602 0.6719
vt 0.5273 0.6719
vt 0.6523 0.6406
vt 0.6602 0.6719
vt 0.5273 0.6719
vt 0.3789 0.7552
vt 0.4180 0.6094
vt 0.2383 0.7031
vt 0.1367 0.7448
vt 0.1523 0.5885
vt 0.3242 0.6406
vt 0.4180 0.6094
vt 0.3789 0.7552
vt 0.6602 0.6719
vt 0.6523 0.6406
vt 0.7773 0.6406
vt 0.1523 0.5885
vt 0.1367 0.7448
vt 0.0430 0.6510
vt 0.2930 0.7344
vt 0.2461 0.7240
vt 0.3086 0.6823
vt 0.2383 0.7031
vt 0.3086 0.6823
vt 0.2461 0.7240
vt 0.3242 0.6406
vt 0.3398 0.7760
vt 0.3086 0.6823
vt 0.5273 0.6719
vt 0.4180 0.6094
vt 0.5430 0.6198
vt 0.5273 0.6719
vt 0.5430 0.6198
vt 0.6523 0.6406
vt 0.8477 0.5365
vt 0.8945 0.6302
vt 0.7773 0.6406
vt 0.2383 0.7031
vt 0.2852 0.6094
vt 0.3242 0.6406
vt 0.8477 0.5365
vt 0.9961 0.5469
vt 0.8945 0.6302
vt 0.3086 0.6823
vt 0.2383 0.7031
vt 0.3242 0.6406
vt 0.7461 0.5677
vt 0.7773 0.6406
vt 0.6523 0.6406
vt 0.3633 0.5469
vt 0.4180 0.6094
vt 0.3242 0.6406
vt 0.2383 0.7031
vt 0.1523 0.5885
vt 0.2227 0.5469
vt 0.3633 0.5469
vt 0.3242 0.6406
vt 0.2852 0.6094
vt 0.2383 0.7031
vt 0.2227 0.5469
vt 0.2852 0.6094
vt 0.7461 0.5677
vt 0.8477 0.5365
vt 0.7773 0.6406
vt 0.0039 0.5052
vt 0.1523 0.5885
vt 0.0430 0.6510
vt 0.7461 0.5677
vt 0.6523 0.6406
vt 0.6289 0.5469
vt 0.5430 0.6198
vt 0.6289 0.5469
vt 0.6523 0.6406
vt 0.4414 0.5469
vt 0.5430 0.6198
vt 0.4180 0.6094
vt 0.8867 0.4531
vt 0.9961 0.5469
vt 0.8477 0.5365
vt 0.3633 0.5469
vt 0.4414 0.5469
vt 0.4180 0.6094
vt 0.3633 0.5469
vt 0.2852 0.6094
vt 0.2461 0.5156
vt 0.5508 0.5156
vt 0.6289 0.5469
vt 0.5430 0.6198
vt 0.2852 0.6094
vt 0.2227 0.5469
vt 0.2461 0.5156
vt 0.2227 0.5469
vt 0.1523 0.5885
vt 0.1211 0.5052
vt 0.0039 0.5052
vt 0.1211 0.5052
vt 0.1523 0.5885
vt 0.8867 0.4531
vt 0.9570 0.4323
vt 0.9961 0.5469
vt 0.8164 0.5469
vt 0.8477 0.5365
vt 0.7461 0.5677
vt 0.8867 0.4531
vt 0.8477 0.5365
vt 0.8164 0.4219
vt 0.5508 0.5156
vt 0.5430 0.6198
vt 0.4414 0.5469
vt 0.7461 0.5677
vt 0.6289 0.5469
vt 0.7305 0.4531
vt 0.5508 0.5156
vt 0.6367 0.4531
vt 0.6289 0.5469
vt 0.8477 0.5365
vt 0.8164 0.5469
vt 0.8555 0.4844
vt 0.3633 0.5469
vt 0.2461 0.5156
vt 0.3789 0.4635
vt 0.1758 0.4010
vt 0.2227 0.5469
vt 0.1211 0.5052
vt 0.3633 0.5469
vt 0.3789 0.4635
vt 0.4414 0.5469
vt 0.5508 0.5156
vt 0.4414 0.5469
vt 0.5195 0.4635
vt 0.1758 0.4010
vt 0.2461 0.5156
vt 0.2227 0.5469
vt 0.5508 0.5156
vt 0.5195 0.4635
vt 0.6367 0.4531
vt 0.6289 0.5469
vt 0.6367 0.4531
vt 0.7305 0.4531
vt 0.8867 0.4531
vt 0.8164 0.4219
vt 0.9336 0.3281
vt 0.8867 0.4531
vt 0.9336 0.3281
vt 0.9570 0.4323
vt 0.1211 0.5052
vt 0.0039 0.5052
vt 0.0430 0.4010
vt 0.8555 0.4844
vt 0.8164 0.4219
vt 0.8477 0.5365
vt 0.8164 0.5469
vt 0.7461 0.5677
vt 0.7617 0.4844
vt 0.7617 0.4844
vt 0.7461 0.5677
vt 0.7305 0.4531
vt 0.6992 0.3906
vt 0.8164 0.4219
vt 0.7305 0.4531
vt 0.6992 0.3906
vt 0.7305 0.4531
vt 0.6367 0.4531
vt 0.6367 0.4531
vt 0.5195 0.4635
vt 0.5430 0.3802
vt 0.8555 0.5365
vt 0.8555 0.4844
vt 0.8164 0.5469
vt 0.8164 0.4219
vt 0.8555 0.4844
vt 0.8164 0.4219
vt 0.8164 0.4219
vt 0.7305 0.4531
vt 0.8164 0.4219
vt 0.4570 0.5260
vt 0.5195 0.4635
vt 0.4414 0.5469
vt 0.1758 0.4010
vt 0.1211 0.5052
vt 0.1289 0.3698
vt 0.4336 0.3594
vt 0.5430 0.3802
vt 0.5195 0.4635
vt 0.6992 0.3906
vt 0.6367 0.4531
vt 0.5430 0.3802
vt 0.3086 0.4115
vt 0.3789 0.4635
vt 0.2461 0.5156
vt 0.0430 0.4010
vt 0.1289 0.3698
vt 0.1211 0.5052
vt 0.8164 0.4219
vt 0.8477 0.2760
vt 0.9336 0.3281
vt 0.8477 0.4010
vt 0.8164 0.4219
vt 0.8555 0.4844
vt 0.8477 0.4010
vt 0.8555 0.4844
vt 0.8867 0.4844
vt 0.8164 0.4844
vt 0.8164 0.5469
vt 0.7617 0.4844
vt 0.8164 0.5469
vt 0.8164 0.4844
vt 0.8555 0.5365
vt 0.8555 0.4844
vt 0.8555 0.5365
vt 0.8867 0.4844
vt 0.4570 0.5260
vt 0.4414 0.5469
vt 0.3945 0.4635
vt 0.7305 0.4531
vt 0.8164 0.4219
vt 0.7617 0.4844
vt 0.3945 0.4635
vt 0.4414 0.5469
vt 0.3789 0.4635
vt 0.1680 0.4010
vt 0.2461 0.5156
vt 0.1758 0.4010
vt 0.6992 0.3906
vt 0.5430 0.3802
vt 0.6289 0.3594
vt 0.4336 0.3594
vt 0.3789 0.4635
vt 0.3086 0.4115
vt 0.6992 0.3906
vt 0.7383 0.3177
vt 0.8164 0.4219
vt 0.8164 0.4219
vt 0.7383 0.3177
vt 0.8477 0.2760
vt 0.9023 0.4948
vt 0.8867 0.4844
vt 0.8555 0.5365
vt 0.8477 0.4010
vt 0.7617 0.4844
vt 0.8164 0.4219
vt 0.7617 0.4844
vt 0.8477 0.4010
vt 0.8164 0.4844
vt 0.5039 0.4427
vt 0.4336 0.3594
vt 0.5195 0.4635
vt 0.5195 0.4635
vt 0.4570 0.5260
vt 0.5039 0.4427
vt 0.4180 0.3802
vt 0.3789 0.4635
vt 0.4336 0.3594
vt 0.3789 0.4635
vt 0.4180 0.3802
vt 0.3945 0.4635
vt 0.2148 0.4844
vt 0.2461 0.5156
vt 0.1680 0.4010
vt 0.2148 0.4844
vt 0.3086 0.4115
vt 0.2461 0.5156
vt 0.4336 0.3594
vt 0.4648 0.2865
vt 0.5430 0.3802
vt 0.1758 0.4010
vt 0.1289 0.3698
vt 0.2461 0.3177
vt 0.4336 0.3594
vt 0.3086 0.4115
vt 0.3477 0.2760
vt 0.6992 0.3906
vt 0.6289 0.3594
vt 0.7383 0.3177
vt 0.6289 0.3594
vt 0.5430 0.3802
vt 0.4648 0.2865
vt 0.0820 0.2760
vt 0.1289 0.3698
vt 0.0430 0.4010
vt 0.9258 0.4531
vt 0.8477 0.4010
vt 0.8867 0.4844
vt 0.9023 0.4948
vt 0.8555 0.5365
vt 0.8164 0.4844
vt 0.8867 0.4844
vt 0.9023 0.4948
vt 0.9258 0.4531
vt 0.4336 0.3594
vt 0.5039 0.4427
vt 0.4180 0.3802
vt 0.4336 0.3594
vt 0.3477 0.2760
vt 0.4648 0.2865
vt 0.2461 0.3177
vt 0.3477 0.2760
vt 0.3086 0.4115
vt 0.8477 0.2760
vt 0.7383 0.3177
vt 0.6836 0.1927
vt 0.9336 0.4323
vt 0.9258 0.4531
vt 0.9023 0.4948
vt 0.9258 0.4531
vt 0.9336 0.4323
vt 0.9258 0.4323
vt 0.8867 0.4010
vt 0.8477 0.4010
vt 0.9258 0.4531
vt 0.8867 0.4010
vt 0.8164 0.4844
vt 0.8477 0.4010
vt 0.9023 0.4948
vt 0.8164 0.4844
vt 0.8711 0.4427
vt 0.4336 0.3594
vt 0.4180 0.3802
vt 0.5039 0.4427
vt 0.4336 0.3594
vt 0.3945 0.4635
vt 0.4180 0.3802
vt 0.4023 0.4323
vt 0.4570 0.5260
vt 0.3945 0.4635
vt 0.1445 0.3906
vt 0.2148 0.4844
vt 0.1680 0.4010
vt 0.2148 0.3490
vt 0.1758 0.4010
vt 0.2461 0.3177
vt 0.1758 0.4010
vt 0.2148 0.3490
vt 0.1680 0.4010
vt 0.3086 0.4115
vt 0.2148 0.4844
vt 0.2617 0.4115
vt 0.5664 0.2552
vt 0.6289 0.3594
vt 0.4648 0.2865
vt 0.3477 0.2760
vt 0.2461 0.3177
vt 0.2539 0.2656
vt 0.5664 0.2552
vt 0.4648 0.2865
vt 0.4102 0.2448
vt 0.3477 0.2760
vt 0.4102 0.2448
vt 0.4648 0.2865
vt 0.2539 0.2656
vt 0.2461 0.3177
vt 0.1289 0.3698
vt 0.1680 0.2240
vt 0.1289 0.3698
vt 0.0820 0.2760
vt 0.9336 0.4115
vt 0.9102 0.4115
vt 0.9258 0.4323
vt 0.9336 0.4115
vt 0.9102 0.4219
vt 0.9102 0.4115
vt 0.9336 0.4115
vt 0.9336 0.4323
vt 0.9102 0.4219
vt 0.9336 0.4115
vt 0.9258 0.4323
vt 0.9336 0.4323
vt 0.9102 0.4115
vt 0.8867 0.4010
vt 0.9258 0.4531
vt 0.9102 0.4115
vt 0.9258 0.4531
vt 0.9258 0.4323
vt 0.9102 0.4115
vt 0.8711 0.4427
vt 0.8867 0.4010
vt 0.8711 0.4427
vt 0.9102 0.4115
vt 0.9102 0.4219
vt 0.9102 0.4219
vt 0.9023 0.4948
vt 0.8711 0.4427
vt 0.9023 0.4948
vt 0.9102 0.4219
vt 0.9336 0.4323
vt 0.8164 0.4844
vt 0.8867 0.4010
vt 0.8711 0.4427
vt 0.4570 0.4531
vt 0.5039 0.4427
vt 0.4570 0.5260
vt 0.2148 0.4844
vt 0.1445 0.3906
vt 0.1758 0.4531
vt 0.1758 0.4531
vt 0.2617 0.4115
vt 0.2148 0.4844
vt 0.6836 0.3073
vt 0.7383 0.3177
vt 0.6289 0.3594
vt 0.2617 0.4115
vt 0.2461 0.3177
vt 0.3086 0.4115
vt 0.5664 0.2552
vt 0.4102 0.2448
vt 0.4805 0.2135
vt 0.3477 0.2760
vt 0.3633 0.1719
vt 0.4102 0.2448
vt 0.1289 0.3698
vt 0.1680 0.2240
vt 0.2539 0.2656
vt 0.6836 0.1927
vt 0.8008 0.1823
vt 0.8477 0.2760
vt 0.4336 0.3594
vt 0.5039 0.4427
vt 0.4805 0.4010
vt 0.3945 0.4635
vt 0.4336 0.3594
vt 0.4023 0.4323
vt 0.4570 0.5260
vt 0.4023 0.4323
vt 0.4570 0.4531
vt 0.5039 0.4427
vt 0.4570 0.4531
vt 0.4805 0.4010
vt 0.1836 0.3177
vt 0.1680 0.4010
vt 0.2148 0.3490
vt 0.1680 0.4010
vt 0.1836 0.3177
vt 0.1445 0.3906
vt 0.2461 0.3177
vt 0.2617 0.4115
vt 0.2148 0.3490
vt 0.7305 0.2240
vt 0.6836 0.1927
vt 0.7383 0.3177
vt 0.6836 0.3073
vt 0.6289 0.3594
vt 0.6133 0.2240
vt 0.6133 0.2240
vt 0.6289 0.3594
vt 0.5664 0.2552
vt 0.7383 0.3177
vt 0.6836 0.3073
vt 0.7305 0.2240
vt 0.5664 0.2552
vt 0.4805 0.2135
vt 0.6055 0.1927
vt 0.3477 0.2760
vt 0.2539 0.2656
vt 0.3633 0.1719
vt 0.5664 0.2552
vt 0.6055 0.1927
vt 0.6836 0.1927
vt 0.4102 0.2448
vt 0.3633 0.1719
vt 0.4805 0.2135
vt 0.1445 0.3906
vt 0.1289 0.2969
vt 0.0898 0.3594
vt 0.1289 0.4010
vt 0.1758 0.4531
vt 0.1445 0.3906
vt 0.1836 0.3177
vt 0.2148 0.3490
vt 0.2617 0.4115
vt 0.6680 0.1615
vt 0.5664 0.2552
vt 0.6836 0.1927
vt 0.5664 0.2552
vt 0.6680 0.1615
vt 0.6133 0.2240
vt 0.2539 0.2656
vt 0.1680 0.2240
vt 0.2383 0.1198
vt 0.6836 0.1927
vt 0.6055 0.1927
vt 0.6602 0.0990
vt 0.6836 0.1927
vt 0.6602 0.0990
vt 0.8008 0.1823
vt 0.3633 0.1719
vt 0.4805 0.1198
vt 0.4805 0.2135
vt 0.2383 0.1198
vt 0.3633 0.1719
vt 0.2539 0.2656
vt 0.6055 0.1927
vt 0.4805 0.2135
vt 0.4805 0.1198
vt 0.4727 0.3281
vt 0.4336 0.3594
vt 0.4805 0.4010
vt 0.4180 0.3073
vt 0.4023 0.4323
vt 0.4336 0.3594
vt 0.0430 0.3073
vt 0.0508 0.3177
vt 0.0586 0.2865
vt 0.0586 0.2865
vt 0.0898 0.3594
vt 0.1289 0.2969
vt 0.0898 0.3594
vt 0.0586 0.2865
vt 0.0508 0.3177
vt 0.0508 0.3177
vt 0.1289 0.4010
vt 0.0898 0.3594
vt 0.1289 0.2969
vt 0.1445 0.3906
vt 0.1836 0.3177
vt 0.1289 0.4010
vt 0.1445 0.3906
vt 0.0898 0.3594
vt 0.1836 0.3177
vt 0.2617 0.4115
vt 0.2227 0.3906
vt 0.2617 0.4115
vt 0.1758 0.4531
vt 0.2227 0.3906
vt 0.6836 0.1927
vt 0.7305 0.2240
vt 0.6680 0.1615
vt 0.6055 0.1927
vt 0.4805 0.1198
vt 0.6602 0.0990
vt 0.4180 0.3073
vt 0.4336 0.3594
vt 0.4727 0.3281
vt 0.4414 0.3698
vt 0.4570 0.4531
vt 0.4023 0.4323
vt 0.4414 0.3698
vt 0.4805 0.4010
vt 0.4570 0.4531
vt 0.0430 0.3073
vt 0.0586 0.2865
vt 0.0586 0.3177
vt 0.0430 0.3073
vt 0.0508 0.3281
vt 0.0508 0.3177
vt 0.0430 0.3073
vt 0.0586 0.3177
vt 0.0508 0.3281
vt 0.0586 0.2865
vt 0.1289 0.2969
vt 0.1445 0.3490
vt 0.0586 0.2865
vt 0.1445 0.3490
vt 0.0586 0.3177
vt 0.1289 0.4010
vt 0.0508 0.3177
vt 0.0508 0.3281
vt 0.1289 0.2969
vt 0.1836 0.3177
vt 0.1445 0.3490
vt 0.1445 0.3490
vt 0.1836 0.3177
vt 0.2227 0.3906
vt 0.1289 0.4010
vt 0.2227 0.3906
vt 0.1758 0.4531
vt 0.6758 0.1198
vt 0.6680 0.1615
vt 0.7305 0.2240
vt 0.6758 0.1198
vt 0.6133 0.2240
vt 0.6680 0.1615
vt 0.6289 0.1823
vt 0.6836 0.3073
vt 0.6133 0.2240
vt 0.6836 0.2344
vt 0.7305 0.2240
vt 0.6836 0.3073
vt 0.3633 0.1719
vt 0.2383 0.1198
vt 0.3555 0.0885
vt 0.3633 0.1719
vt 0.3555 0.0885
vt 0.4805 0.1198
vt 0.4023 0.4323
vt 0.4180 0.3073
vt 0.3945 0.3594
vt 0.4805 0.4010
vt 0.4414 0.3698
vt 0.4727 0.3281
vt 0.0508 0.3281
vt 0.1445 0.3490
vt 0.1289 0.4010
vt 0.1445 0.3490
vt 0.0508 0.3281
vt 0.0586 0.3177
vt 0.2227 0.3906
vt 0.1289 0.4010
vt 0.1445 0.3490
vt 0.6758 0.1198
vt 0.7305 0.2240
vt 0.7148 0.1823
vt 0.6133 0.2240
vt 0.6758 0.1198
vt 0.6289 0.1823
vt 0.6836 0.3073
vt 0.6289 0.1823
vt 0.6836 0.2344
vt 0.4180 0.2344
vt 0.4180 0.3073
vt 0.4727 0.3281
vt 0.4180 0.2344
vt 0.3945 0.3594
vt 0.4180 0.3073
vt 0.4414 0.3698
vt 0.4023 0.4323
vt 0.3945 0.3594
vt 0.7305 0.2240
vt 0.6836 0.2344
vt 0.7148 0.1823
vt 0.4180 0.2344
vt 0.4727 0.3281
vt 0.4336 0.2448
vt 0.6758 0.0781
vt 0.6289 0.1823
vt 0.6758 0.1198
vt 0.4180 0.2344
vt 0.4180 0.2344
vt 0.4336 0.2448
vt 0.4180 0.2344
vt 0.4023 0.2552
vt 0.4180 0.2344
vt 0.4180 0.2344
vt 0.4336 0.2448
vt 0.4258 0.2656
vt 0.3945 0.3594
vt 0.4180 0.2344
vt 0.4023 0.2552
vt 0.4023 0.2552
vt 0.4414 0.3698
vt 0.3945 0.3594
vt 0.4258 0.2656
vt 0.4727 0.3281
vt 0.4414 0.3698
vt 0.4727 0.3281
vt 0.4258 0.2656
vt 0.4336 0.2448
vt 0.6758 0.0781
vt 0.6758 0.1198
vt 0.7148 0.0990
vt 0.7148 0.0990
vt 0.6758 0.1198
vt 0.7148 0.1823
vt 0.6836 0.1615
vt 0.6836 0.2344
vt 0.6289 0.1823
vt 0.6836 0.1615
vt 0.7148 0.1823
vt 0.6836 0.2344
vt 0.4180 0.2344
vt 0.4258 0.2656
vt 0.4023 0.2552
vt 0.4414 0.3698
vt 0.4023 0.2552
vt 0.4258 0.2656
vt 0.6289 0.1823
vt 0.6758 0.0781
vt 0.6445 0.1094
vt 0.6836 0.1615
vt 0.6289 0.1823
vt 0.6445 0.1094
vt 0.7148 0.1823
vt 0.6836 0.1615
vt 0.7148 0.0990
vt 0.6758 0.0156
vt 0.6758 0.0781
vt 0.7148 0.0990
vt 0.6758 0.0156
vt 0.6445 0.1094
vt 0.6758 0.0781
vt 0.6602 0.0365
vt 0.6836 0.1615
vt 0.6445 0.1094
vt 0.6836 0.0469
vt 0.7148 0.0990
vt 0.6836 0.1615
vt 0.6758 0.0156
vt 0.7148 0.0990
vt 0.6992 0.0260
vt 0.6445 0.1094
vt 0.6758 0.0156
vt 0.6602 0.0365
vt 0.6836 0.1615
vt 0.6602 0.0365
vt 0.6836 0.0469
vt 0.7148 0.0990
vt 0.6836 0.0469
vt 0.6992 0.0260
vt 0.6758 0.0052
vt 0.6758 0.0156
vt 0.6992 0.0260
vt 0.6758 0.0052
vt 0.6602 0.0365
vt 0.6758 0.0156
vt 0.6758 0.0052
vt 0.6836 0.0469
vt 0.6602 0.0365
vt 0.6758 0.0052
vt 0.6992 0.0260
vt 0.6836 0.0469
vn -0.0151 0.9923 -0.1231
vn -0.0263 0.9921 -0.1228
vn 0.0318 0.9969 -0.0714
vn 0.0720 0.9952 -0.0659
vn 0.0345 0.9968 -0.0725
vn 0.6179 0.4780 -0.6242
vn -0.4628 0.5900 -0.6616
vn -0.1819 -0.9800 0.0808
vn 0.7715 -0.6275 -0.1050
vn 0.0347 0.9741 -0.2232
vn -0.0526 0.9645 -0.2586
vn -0.0483 0.9755 -0.2145
vn -0.0468 0.9643 -0.2605
vn -0.1359 -0.9906 0.0157
vn -0.0411 0.9802 -0.1938
vn 0.0863 0.9953 -0.0441
vn -0.0824 0.9730 -0.2154
vn -0.2752 0.7588 -0.5903
vn -0.3080 -0.9508 0.0334
vn 0.2050 -0.8813 -0.4257
vn 0.7600 0.6233 -0.1842
vn -0.6065 0.6206 -0.4971
vn -0.7862 -0.6142 0.0682
vn 0.8231 -0.5126 0.2443
vn 0.7938 -0.5445 0.2708
vn 0.0610 0.9793 -0.1928
vn 0.0480 0.9802 -0.1921
vn -0.0697 0.9753 -0.2097
vn -0.8804 0.4627 -0.1040
vn -0.2980 -0.9498 0.0953
vn 0.8603 -0.3826 -0.3368
vn -0.5591 0.6916 -0.4574
vn -0.0259 0.9717 -0.2349
vn -0.1001 0.9490 -0.2991
vn 0.4602 0.7887 -0.4075
vn -0.8824 0.4668 -0.0593
vn 0.7738 -0.6141 -0.1552
vn 0.7866 0.5885 -0.1868
vn -0.6974 -0.7030 -0.1394
vn -0.0900 0.9429 -0.3208
vn -0.2213 0.9579 -0.1827
vn 0.1147 0.9898 -0.0840
vn -0.6670 -0.6480 0.3676
vn -0.7816 0.6155 0.1018
vn -0.5848 -0.8083 -0.0685
vn 0.8484 -0.4911 -0.1976
vn 0.7716 -0.6185 -0.1489
vn 0.0458 0.5577 -0.8288
vn 0.5582 0.0359 -0.8289
vn 0.1255 0.9885 -0.0847
vn -0.0108 0.9851 -0.1714
vn -0.1327 0.9611 -0.2423
vn 0.4711 0.7769 -0.4176
vn -0.4357 0.8980 -0.0611
vn -0.6674 -0.7096 0.2259
vn -0.7035 -0.6760 0.2194
vn 0.6470 -0.5254 -0.5525
vn 0.6100 -0.6161 -0.4984
vn 0.8190 0.5716 0.0505
vn -0.7665 -0.6126 -0.1932
vn -0.2166 -0.7034 -0.6769
vn -0.7255 0.4435 -0.5262
vn 0.8500 0.4546 -0.2660
vn -0.5779 0.6889 0.4376
vn -0.7477 -0.6174 -0.2444
vn 0.5221 -0.7404 -0.4234
vn 0.6529 -0.5258 -0.5452
vn -0.7535 0.4520 -0.4775
vn 0.8864 0.4571 0.0726
vn -0.7449 0.6515 0.1433
vn 0.8644 -0.4872 -0.1240
vn 0.8580 -0.4988 -0.1225
vn 0.5873 0.5909 -0.5530
vn 0.3102 -0.1255 -0.9424
vn 0.3577 0.3431 -0.8685
vn -0.1025 0.9911 0.0848
vn 0.1476 0.9813 -0.1239
vn -0.2296 0.9526 -0.1998
vn 0.1664 0.9857 -0.0278
vn 0.7009 0.6705 -0.2431
vn -0.4880 0.7323 0.4750
vn 0.8581 0.4442 -0.2576
vn -0.8067 -0.5909 -0.0092
vn 0.8994 0.3854 0.2060
vn -0.7812 0.5735 0.2465
vn 0.6752 0.5780 0.4583
vn -0.6096 0.7899 -0.0669
vn 0.2113 0.9675 -0.1386
vn -0.1137 0.9901 0.0826
vn 0.7925 0.5835 0.1775
vn -0.4725 0.8141 0.3376
vn 0.6128 0.5971 0.5177
vn -0.8239 0.5523 0.1270
vn -0.9602 0.1436 -0.2398
vn 0.4420 0.8915 0.0992
vn 0.6188 0.6298 0.4695
vn -0.4182 0.5477 0.7246
vn -0.1235 0.9914 0.0424
vn -0.0359 0.9951 -0.0916
vn -0.2995 0.9474 -0.1124
vn 0.0511 0.9912 -0.1218
vn 0.0904 0.9890 0.1168
vn -0.2069 0.9728 -0.1039
vn -0.3311 0.8415 0.4270
vn -0.2965 0.8734 0.3862
vn 0.5724 0.8173 0.0656
vn -0.0900 0.9770 -0.1935
vn -0.0559 0.9806 -0.1879
vn 0.1366 0.9742 -0.1795
vn -0.0277 0.9978 0.0604
vn 0.2721 0.9533 -0.1310
vn -0.0565 0.7040 0.7079
vn 0.0508 0.9026 -0.4274
vn 0.0209 0.9994 -0.0283
vn -0.2201 0.9754 0.0158
vn -0.0829 0.9965 0.0136
vn -0.0423 0.9964 0.0735
vn 0.2800 0.8953 -0.3466
vn -0.2379 0.9699 -0.0512
vn -0.1181 0.9811 -0.1530
vn -0.0370 0.9889 -0.1439
vn -0.0748 0.9491 -0.3059
vn 0.3044 0.9504 0.0640
vn -0.1888 0.9420 -0.2776
vn -0.0557 0.9955 -0.0762
vn -0.0436 0.9918 -0.1202
vn -0.1138 0.9898 -0.0856
vn -0.2124 0.9772 0.0007
vn -0.1802 0.9836 0.0040
vn 0.3106 0.9482 0.0673
vn 0.2591 0.3685 -0.8928
vn 0.2763 0.9566 0.0929
vn 0.0514 0.9867 -0.1542
vn -0.0882 0.9958 0.0246
vn 0.0335 0.9990 0.0293
vn 0.6560 0.6731 -0.3415
vn -0.0978 0.9866 -0.1307
vn -0.1847 0.9824 0.0277
vn -0.2564 0.9602 -0.1108
vn 0.0519 0.9889 -0.1395
vn -0.2056 0.9782 0.0280
vn 0.1115 0.9873 -0.1135
vn -0.0865 0.9960 0.0224
vn 0.2911 0.9472 0.1341
vn 0.2808 0.9503 0.1343
vn -0.1903 0.9810 0.0373
vn 0.9720 -0.1071 0.2093
vn -0.5517 0.8278 -0.1018
vn -0.6897 0.7241 0.0036
vn 0.1382 0.9170 0.3743
vn -0.0898 0.9605 0.2635
vn 0.1668 0.9518 0.2574
vn 0.4695 -0.4432 -0.7637
vn 0.7713 0.3572 0.5268
vn -0.3622 -0.0195 0.9319
vn 0.4574 0.4064 -0.7910
vn -0.2460 0.9630 0.1104
vn 0.0697 0.9512 0.3005
vn 0.0234 0.9916 0.1270
vn -0.1332 0.9908 0.0236
vn -0.1257 0.9885 0.0838
vn 0.2676 0.9481 0.1718
vn 0.5557 -0.7505 0.3576
vn 0.6491 -0.6893 0.3218
vn -0.7271 0.6709 -0.1456
vn -0.5414 0.7815 -0.3100
vn 0.4469 -0.4486 -0.7740
vn -0.6592 0.5425 -0.5207
vn -0.3771 0.5552 0.7413
vn -0.6208 0.5819 -0.5253
vn -0.7565 0.3912 -0.5241
vn 0.0027 0.9925 -0.1220
vn -0.0123 0.9946 0.1028
vn 0.0748 0.9962 -0.0449
vn 0.3219 0.9333 0.1591
vn 0.6948 -0.0405 -0.7181
vn -0.4893 0.4304 0.7585
vn -0.5133 0.3202 0.7962
vn 0.6577 -0.1075 0.7456
vn 0.6758 0.7167 -0.1722
vn -0.7012 0.2457 0.6692
vn -0.6987 0.3651 0.6152
vn -0.8656 -0.0430 -0.4989
vn 0.4311 0.8377 -0.3353
vn 0.0473 0.9815 0.1857
vn -0.2193 0.9674 0.1265
vn -0.0049 0.9719 0.2352
vn 0.0727 0.9964 -0.0433
vn -0.1244 0.9913 0.0435
vn -0.1102 0.9922 0.0582
vn 0.4098 -0.9090 0.0768
vn -0.2911 0.9351 -0.2023
vn 0.8205 -0.0947 -0.5637
vn 0.3342 0.3041 0.8921
vn -0.0197 0.9738 0.2267
vn 0.0317 0.9752 0.2189
vn 0.2646 0.9274 0.2643
vn 0.3294 -0.6153 -0.7162
vn -0.2315 -0.1819 -0.9557
vn 0.4017 -0.8960 0.1890
vn -0.5865 0.2570 0.7681
vn -0.2782 0.9531 0.1190
vn 0.6164 -0.6568 0.4343
vn -0.8563 0.0714 0.5116
vn -0.6495 0.5974 -0.4704
vn -0.6916 -0.3999 -0.6015
vn -0.5541 -0.6460 0.5251
vn -0.8750 -0.0537 0.4811
vn 0.4336 0.8281 -0.3553
vn -0.0618 0.9620 0.2658
vn 0.0289 0.9701 0.2411
vn -0.0308 0.9771 0.2104
vn -0.0241 0.9769 0.2123
vn -0.2210 0.9481 0.2288
vn -0.0851 0.9935 0.0751
vn 0.8492 0.3154 -0.4235
vn 0.8617 0.1554 -0.4831
vn 0.7782 -0.0539 0.6257
vn 0.8353 -0.2961 0.4633
vn 0.2613 -0.9580 0.1179
vn 0.4506 -0.8707 -0.1973
vn 0.0894 0.5411 0.8362
vn 0.1997 0.7498 0.6309
vn 0.0180 0.9949 0.0992
vn 0.2222 0.9707 -0.0914
vn -0.5412 0.4023 0.7384
vn 0.8324 0.3389 -0.4384
vn -0.6572 0.0041 -0.7537
vn 0.6583 0.6356 -0.4032
vn 0.0717 0.6143 -0.7858
vn 0.7386 0.4006 0.5421
vn -0.0297 0.9653 0.2594
vn 0.0022 0.9908 0.1353
vn -0.1086 0.9906 0.0828
vn 0.1877 0.9717 0.1437
vn 0.6282 -0.6438 0.4369
vn -0.7634 -0.3175 0.5625
vn -0.6767 0.5696 -0.4665
vn 0.7915 0.3485 -0.5020
vn -0.7591 -0.5123 0.4017
vn -0.5732 -0.6600 0.4857
vn 0.6849 0.4152 0.5988
vn 0.9716 0.1616 0.1727
vn -0.6877 0.7259 -0.0133
vn -0.6364 0.7707 -0.0319
vn 0.6385 0.7615 -0.1114
vn -0.0088 0.9590 0.2832
vn -0.0504 0.9882 0.1448
vn 0.0074 0.9618 0.2738
vn 0.0578 0.9833 0.1729
vn 0.1562 -0.9866 0.0460
vn -0.5578 -0.0769 -0.8264
vn 0.6520 0.4408 0.6169
vn -0.2434 -0.3666 0.8980
vn -0.3478 0.3777 0.8581
vn -0.0970 0.9895 0.1072
vn -0.0364 0.9825 0.1829
vn 0.1197 0.9578 0.2613
vn 0.0397 0.9923 0.1175
vn -0.0344 0.9942 0.1016
vn 0.0293 0.9926 0.1176
vn 0.6648 -0.7470 0.0001
vn -0.8341 -0.5468 -0.0733
vn 0.1639 -0.9414 -0.2947
vn 0.2451 -0.9687 -0.0383
vn 0.0034 -0.9526 -0.3043
vn -0.3597 -0.2730 -0.8922
vn 0.0415 -0.9991 0.0101
vn -0.6280 -0.2941 -0.7205
vn 0.6608 0.3852 0.6442
vn 0.6569 0.6529 -0.3771
vn 0.1610 0.2786 0.9468
vn 0.0290 0.9927 0.1172
vn -0.0601 -0.9814 0.1826
vn -0.5624 0.8240 -0.0690
vn 0.6420 0.7665 0.0159
vn -0.4538 0.3316 0.8271
vn -0.9232 0.2381 -0.3015
vn -0.8676 0.4691 0.1652
vn 0.2288 0.0543 0.9720
vn -0.0208 0.3047 0.9522
vn -0.7503 0.2679 -0.6044
vn 0.2629 0.0958 0.9600
vn 0.3157 0.4103 0.8555
vn -0.1628 0.9651 -0.2050
vn 0.7642 -0.6248 0.1601
vn -0.6824 -0.3402 0.6470
vn -0.7742 0.6099 -0.1695
vn 0.8310 0.3687 -0.4166
vn -0.0248 0.9919 0.1249
vn 0.0373 0.9918 0.1222
vn -0.7988 -0.5941 -0.0950
vn 0.8828 0.3770 0.2802
vn -0.4093 0.8831 0.2295
vn -0.4035 0.8105 0.4246
vn -0.1563 0.9623 0.2226
vn 0.8832 -0.4359 0.1734
vn -0.6951 -0.3013 0.6527
vn -0.7297 0.6611 -0.1745
vn 0.2171 -0.9602 -0.1759
vn -0.8064 -0.5804 -0.1133
vn -0.6150 0.7874 -0.0421
vn 0.8385 0.3681 -0.4018
vn 0.1546 -0.9658 -0.2080
vn -0.7207 -0.6932 -0.0033
vn 0.1734 -0.9848 0.0091
vn -0.8309 -0.2828 -0.4792
vn 0.5867 -0.3802 0.7150
vn -0.9166 -0.3978 0.0408
vn -0.4864 0.8268 0.2823
vn 0.8984 0.3691 0.2382
vn 0.9185 0.3083 0.2478
vn 0.2232 -0.9569 0.1860
vn 0.8576 -0.5084 -0.0781
vn -0.6648 0.7464 -0.0302
vn 0.6735 0.7385 0.0316
vn -0.6217 0.4787 0.6200
vn -0.3629 0.8669 0.3417
vn -0.5952 -0.8008 -0.0664
vn -0.7728 0.6340 0.0277
vn 0.7174 0.6931 0.0702
vn 0.2946 -0.9543 -0.0498
vn -0.6172 -0.7781 0.1166
vn -0.7310 0.6497 0.2088
vn 0.7181 0.6926 0.0682
vn 0.2845 -0.9572 -0.0531
vn -0.7106 -0.6772 0.1908
vn -0.7255 0.6552 0.2107
vn 0.5768 0.8168 -0.0126
vn -0.0077 -0.7187 0.6952
vn -0.6865 -0.6585 0.3084
vn -0.6793 -0.0671 0.7308
vn 0.1634 0.0137 0.9865
usemtl CF3D5D73BA3731E9FA03886E285C09F7
s off
f 1/1/1 2/2/1 3/3/1
f 4/4/2 5/5/2 6/6/2
f 7/7/3 8/8/3 9/9/3
f 10/10/4 11/11/4 12/12/4
f 13/13/5 14/14/5 15/15/5
f 16/16/6 17/17/6 18/18/6
f 19/19/7 20/20/7 21/21/7
f 22/22/8 23/23/8 24/24/8
f 25/25/9 26/26/9 27/27/9
f 28/28/10 29/29/10 30/30/10
f 31/31/11 32/32/11 33/33/11
f 34/34/12 35/35/12 36/36/12
f 37/37/13 38/38/13 39/39/13
f 40/40/14 41/41/14 42/42/14
f 43/43/15 44/44/15 45/45/15
f 46/46/16 47/47/16 48/48/16
f 49/49/17 50/50/17 51/51/17
f 52/52/18 53/53/18 54/54/18
f 55/55/19 56/56/19 57/57/19
f 58/58/20 59/59/20 60/60/20
f 61/61/21 62/62/21 63/63/21
f 64/64/22 65/65/22 66/66/22
f 67/67/23 68/68/23 69/69/23
f 70/70/24 71/71/24 72/72/24
f 73/73/25 74/74/25 75/75/25
f 76/76/26 77/77/26 78/78/26
f 79/79/27 80/80/27 81/81/27
f 82/82/28 83/83/28 84/84/28
f 85/85/29 86/86/29 87/87/29
f 88/88/30 89/89/30 90/90/30
f 91/91/31 92/92/31 93/93/31
f 94/94/32 95/95/32 96/96/32
f 97/97/33 98/98/33 99/99/33
f 100/100/34 101/101/34 102/102/34
f 103/103/35 104/104/35 105/105/35
f 106/106/36 107/107/36 108/108/36
f 109/109/37 110/110/37 111/111/37
f 112/112/38 113/113/38 114/114/38
f 115/115/39 116/116/39 117/117/39
f 118/118/40 119/119/40 120/120/40
f 121/121/41 122/122/41 123/123/41
f 124/124/42 125/125/42 126/126/42
f 127/127/43 128/128/43 129/129/43
f 130/130/44 131/131/44 132/132/44
f 133/133/45 134/134/45 135/135/45
f 136/136/46 137/137/46 138/138/46
f 139/139/47 140/140/47 141/141/47
f 142/142/48 143/143/48 144/144/48
f 145/145/49 146/146/49 147/147/49
f 148/148/50 149/149/50 150/150/50
f 151/151/51 152/152/51 153/153/51
f 154/154/52 155/155/52 156/156/52
f 157/157/53 158/158/53 159/159/53
f 160/160/54 161/161/54 162/162/54
f 163/163/55 164/164/55 165/165/55
f 166/166/56 167/167/56 168/168/56
f 169/169/57 170/170/57 171/171/57
f 172/172/58 173/173/58 174/174/58
f 175/175/59 176/176/59 177/177/59
f 178/178/60 179/179/60 180/180/60
f 181/181/61 182/182/61 183/183/61
f 184/184/62 185/185/62 186/186/62
f 187/187/63 188/188/63 189/189/63
f 190/190/64 191/191/64 192/192/64
f 193/193/65 194/194/65 195/195/65
f 196/196/66 197/197/66 198/198/66
f 199/199/67 200/200/67 201/201/67
f 202/202/68 203/203/68 204/204/68
f 205/205/69 206/206/69 207/207/69
f 208/208/70 209/209/70 210/210/70
f 211/211/71 212/212/71 213/213/71
f 214/214/72 215/215/72 216/216/72
f 217/217/73 218/218/73 219/219/73
f 220/220/74 221/221/74 222/222/74
f 223/223/75 224/224/75 225/225/75
f 226/226/76 227/227/76 228/228/76
f 229/229/77 230/230/77 231/231/77
f 232/232/78 233/233/78 234/234/78
f 235/235/79 236/236/79 237/237/79
f 238/238/80 239/239/80 240/240/80
f 241/241/81 242/242/81 243/243/81
f 244/244/82 245/245/82 246/246/82
f 247/247/83 248/248/83 249/249/83
f 250/250/84 251/251/84 252/252/84
f 253/253/85 254/254/85 255/255/85
f 256/256/86 257/257/86 258/258/86
f 259/259/87 260/260/87 261/261/87
f 262/262/88 263/263/88 264/264/88
f 265/265/89 266/266/89 267/267/89
f 268/268/90 269/269/90 270/270/90
f 271/271/91 272/272/91 273/273/91
f 274/274/92 275/275/92 276/276/92
f 277/277/93 278/278/93 279/279/93
f 280/280/94 281/281/94 282/282/94
f 283/283/95 284/284/95 285/285/95
f 286/286/96 287/287/96 288/288/96
f 289/289/97 290/290/97 291/291/97
f 292/292/98 293/293/98 294/294/98
f 295/295/99 296/296/99 297/297/99
f 298/298/100 299/299/100 300/300/100
f 301/301/101 302/302/101 303/303/101
f 304/304/102 305/305/102 306/306/102
f 307/307/103 308/308/103 309/309/103
f 310/310/104 311/311/104 312/312/104
f 313/313/105 314/314/105 315/315/105
f 316/316/106 317/317/106 318/318/106
f 319/319/107 320/320/107 321/321/107
f 322/322/108 323/323/108 324/324/108
f 325/325/109 326/326/109 327/327/109
f 328/328/110 329/329/110 330/330/110
f 331/331/111 332/332/111 333/333/111
f 334/334/112 335/335/112 336/336/112
f 337/337/113 338/338/113 339/339/113
f 340/340/114 341/341/114 342/342/114
f 343/343/115 344/344/115 345/345/115
f 346/346/116 347/347/116 348/348/116
f 349/349/117 350/350/117 351/351/117
f 352/352/118 353/353/118 354/354/118
f 355/355/119 356/356/119 357/357/119
f 358/358/120 359/359/120 360/360/120
f 361/361/121 362/362/121 363/363/121
f 364/364/122 365/365/122 366/366/122
f 367/367/123 368/368/123 369/369/123
f 370/370/124 371/371/124 372/372/124
f 373/373/125 374/374/125 375/375/125
f 376/376/126 377/377/126 378/378/126
f 379/379/127 380/380/127 381/381/127
f 382/382/128 383/383/128 384/384/128
f 385/385/129 386/386/129 387/387/129
f 388/388/130 389/389/130 390/390/130
f 391/391/131 392/392/131 393/393/131
f 394/394/132 395/395/132 396/396/132
f 397/397/133 398/398/133 399/399/133
f 400/400/134 401/401/134 402/402/134
f 403/403/135 404/404/135 405/405/135
f 406/406/136 407/407/136 408/408/136
f 409/409/137 410/410/137 411/411/137
f 412/412/138 413/413/138 414/414/138
f 415/415/139 416/416/139 417/417/139
f 418/418/140 419/419/140 420/420/140
f 421/421/141 422/422/141 423/423/141
f 424/424/142 425/425/142 426/426/142
f 427/427/143 428/428/143 429/429/143
f 430/430/144 431/431/144 432/432/144
f 433/433/145 434/434/145 435/435/145
f 436/436/146 437/437/146 438/438/146
f 439/439/147 440/440/147 441/441/147
f 442/442/148 443/443/148 444/444/148
f 445/445/149 446/446/149 447/447/149
f 448/448/150 449/449/150 450/450/150
f 451/451/151 452/452/151 453/453/151
f 454/454/152 455/455/152 456/456/152
f 457/457/153 458/458/153 459/459/153
f 460/460/154 461/461/154 462/462/154
f 463/463/155 464/464/155 465/465/155
f 466/466/156 467/467/156 468/468/156
f 469/469/157 470/470/157 471/471/157
f 472/472/158 473/473/158 474/474/158
f 475/475/159 476/476/159 477/477/159
f 478/478/160 479/479/160 480/480/160
f 481/481/161 482/482/161 483/483/161
f 484/484/162 485/485/162 486/486/162
f 487/487/163 488/488/163 489/489/163
f 490/490/164 491/491/164 492/492/164
f 493/493/165 494/494/165 495/495/165
f 496/496/166 497/497/166 498/498/166
f 499/499/167 500/500/167 501/501/167
f 502/502/168 503/503/168 504/504/168
f 505/505/169 506/506/169 507/507/169
f 508/508/170 509/509/170 510/510/170
f 511/511/171 512/512/171 513/513/171
f 514/514/172 515/515/172 516/516/172
f 517/517/173 518/518/173 519/519/173
f 520/520/174 521/521/174 522/522/174
f 523/523/175 524/524/175 525/525/175
f 526/526/176 527/527/176 528/528/176
f 529/529/177 530/530/177 531/531/177
f 532/532/178 533/533/178 534/534/178
f 535/535/179 536/536/179 537/537/179
f 538/538/180 539/539/180 540/540/180
f 541/541/181 542/542/181 543/543/181
f 544/544/182 545/545/182 546/546/182
f 547/547/183 548/548/183 549/549/183
f 550/550/184 551/551/184 552/552/184
f 553/553/185 554/554/185 555/555/185
f 556/556/186 557/557/186 558/558/186
f 559/559/187 560/560/187 561/561/187
f 562/562/188 563/563/188 564/564/188
f 565/565/189 566/566/189 567/567/189
f 568/568/190 569/569/190 570/570/190
f 571/571/191 572/572/191 573/573/191
f 574/574/192 575/575/192 576/576/192
f 577/577/193 578/578/193 579/579/193
f 580/580/194 581/581/194 582/582/194
f 583/583/195 584/584/195 585/585/195
f 586/586/196 587/587/196 588/588/196
f 589/589/197 590/590/197 591/591/197
f 592/592/198 593/593/198 594/594/198
f 595/595/199 596/596/199 597/597/199
f 598/598/200 599/599/200 600/600/200
f 601/601/201 602/602/201 603/603/201
f 604/604/202 605/605/202 606/606/202
f 607/607/203 608/608/203 609/609/203
f 610/610/204 611/611/204 612/612/204
f 613/613/205 614/614/205 615/615/205
f 616/616/206 617/617/206 618/618/206
f 619/619/207 620/620/207 621/621/207
f 622/622/208 623/623/208 624/624/208
f 625/625/209 626/626/209 627/627/209
f 628/628/210 629/629/210 630/630/210
f 631/631/211 632/632/211 633/633/211
f 634/634/212 635/635/212 636/636/212
f 637/637/213 638/638/213 639/639/213
f 640/640/214 641/641/214 642/642/214
f 643/643/215 644/644/215 645/645/215
f 646/646/216 647/647/216 648/648/216
f 649/649/217 650/650/217 651/651/217
f 652/652/218 653/653/218 654/654/218
f 655/655/219 656/656/219 657/657/219
f 658/658/220 659/659/220 660/660/220
f 661/661/221 662/662/221 663/663/221
f 664/664/222 665/665/222 666/666/222
f 667/667/223 668/668/223 669/669/223
f 670/670/224 671/671/224 672/672/224
f 673/673/225 674/674/225 675/675/225
f 676/676/226 677/677/226 678/678/226
f 679/679/227 680/680/227 681/681/227
f 682/682/228 683/683/228 684/684/228
f 685/685/229 686/686/229 687/687/229
f 688/688/230 689/689/230 690/690/230
f 691/691/231 692/692/231 693/693/231
f 694/694/232 695/695/232 696/696/232
f 697/697/233 698/698/233 699/699/233
f 700/700/234 701/701/234 702/702/234
f 703/703/235 704/704/235 705/705/235
f 706/706/236 707/707/236 708/708/236
f 709/709/237 710/710/237 711/711/237
f 712/712/238 713/713/238 714/714/238
f 715/715/239 716/716/239 717/717/239
f 718/718/240 719/719/240 720/720/240
f 721/721/241 722/722/241 723/723/241
f 724/724/242 725/725/242 726/726/242
f 727/727/243 728/728/243 729/729/243
f 730/730/244 731/731/244 732/732/244
f 733/733/245 734/734/245 735/735/245
f 736/736/246 737/737/246 738/738/246
f 739/739/247 740/740/247 741/741/247
f 742/742/248 743/743/248 744/744/248
f 745/745/249 746/746/249 747/747/249
f 748/748/250 749/749/250 750/750/250
f 751/751/251 752/752/251 753/753/251
f 754/754/252 755/755/252 756/756/252
f 757/757/253 758/758/253 759/759/253
f 760/760/254 761/761/254 762/762/254
f 763/763/255 764/764/255 765/765/255
f 766/766/256 767/767/256 768/768/256
f 769/769/257 770/770/257 771/771/257
f 772/772/258 773/773/258 774/774/258
f 775/775/259 776/776/259 777/777/259
f 778/778/260 779/779/260 780/780/260
f 781/781/261 782/782/261 783/783/261
f 784/784/262 785/785/262 786/786/262
f 787/787/263 788/788/263 789/789/263
f 790/790/264 791/791/264 792/792/264
f 793/793/265 794/794/265 795/795/265
f 796/796/266 797/797/266 798/798/266
f 799/799/267 800/800/267 801/801/267
f 802/802/268 803/803/268 804/804/268
f 805/805/269 806/806/269 807/807/269
f 808/808/270 809/809/270 810/810/270
f 811/811/271 812/812/271 813/813/271
f 814/814/272 815/815/272 816/816/272
f 817/817/273 818/818/273 819/819/273
f 820/820/274 821/821/274 822/822/274
f 823/823/275 824/824/275 825/825/275
f 826/826/276 827/827/276 828/828/276
f 829/829/277 830/830/277 831/831/277
f 832/832/278 833/833/278 834/834/278
f 835/835/279 836/836/279 837/837/279
f 838/838/280 839/839/280 840/840/280
f 841/841/281 842/842/281 843/843/281
f 844/844/282 845/845/282 846/846/282
f 847/847/283 848/848/283 849/849/283
f 850/850/284 851/851/284 852/852/284
f 853/853/285 854/854/285 855/855/285
f 856/856/286 857/857/286 858/858/286
f 859/859/287 860/860/287 861/861/287
f 862/862/288 863/863/288 864/864/288
f 865/865/289 866/866/289 867/867/289
f 868/868/290 869/869/290 870/870/290
f 871/871/291 872/872/291 873/873/291
f 874/874/292 875/875/292 876/876/292
f 877/877/293 878/878/293 879/879/293
f 880/880/294 881/881/294 882/882/294
f 883/883/295 884/884/295 885/885/295
f 886/886/296 887/887/296 888/888/296
f 889/889/297 890/890/297 891/891/297
f 892/892/298 893/893/298 894/894/298
f 895/895/299 896/896/299 897/897/299
f 898/898/300 899/899/300 900/900/300
f 901/901/301 902/902/301 903/903/301
f 904/904/302 905/905/302 906/906/302
f 907/907/303 908/908/303 909/909/303
f 910/910/304 911/911/304 912/912/304
f 913/913/305 914/914/305 915/915/305
f 916/916/306 917/917/306 918/918/306
f 919/919/307 920/920/307 921/921/307
f 922/922/308 923/923/308 924/924/308
f 925/925/309 926/926/309 927/927/309
f 928/928/310 929/929/310 930/930/310
f 931/931/311 932/932/311 933/933/311
f 934/934/312 935/935/312 936/936/312
f 937/937/313 938/938/313 939/939/313
f 940/940/314 941/941/314 942/942/314
f 943/943/315 944/944/315 945/945/315
f 946/946/316 947/947/316 948/948/316
f 949/949/317 950/950/317 951/951/317
f 952/952/318 953/953/318 954/954/318
f 955/955/319 956/956/319 957/957/319
f 958/958/320 959/959/320 960/960/320
f 961/961/321 962/962/321 963/963/321
f 964/964/322 965/965/322 966/966/322
f 967/967/323 968/968/323 969/969/323
f 970/970/324 971/971/324 972/972/324
f 973/973/325 974/974/325 975/975/325
f 976/976/326 977/977/326 978/978/326
f 979/979/327 980/980/327 981/981/327
f 982/982/328 983/983/328 984/984/328
f 985/985/329 986/986/329 987/987/329
f 988/988/330 989/989/330 990/990/330
f 991/991/331 992/992/331 993/993/331
f 994/994/332 995/995/332 996/996/332
f 997/997/333 998/998/333 999/999/333
